<?xml version="1.0" encoding="UTF-8" standalone="no"?>
<!DOCTYPE svg PUBLIC "-//W3C//DTD SVG 1.1//EN"
 "http://www.w3.org/Graphics/SVG/1.1/DTD/svg11.dtd">
<!-- Generated by graphviz version 2.43.0 (0)
 -->
<!-- Title: 6502isa.cpp Pages: 1 -->
<!--zoomable 302 -->
<svg id="main" version="1.1" xmlns="http://www.w3.org/2000/svg" xmlns:xlink="http://www.w3.org/1999/xlink" xml:space="preserve" onload="init(evt)">
<style type="text/css"><![CDATA[
.edge:hover path { stroke: red; }
.edge:hover polygon { stroke: red; fill: red; }
]]></style>
<script type="text/javascript"><![CDATA[
var edges = document.getElementsByTagName('g');
if (edges && edges.length) {
  for (var i=0;i<edges.length;i++) {
    if (edges[i].id.substr(0,4)=='edge') {
      edges[i].setAttribute('class','edge');
    }
  }
}
]]></script>
        <defs>
                <circle id="rim" cx="0" cy="0" r="7"/>
                <circle id="rim2" cx="0" cy="0" r="3.5"/>
                <g id="zoomPlus">
                        <use xlink:href="#rim" fill="#404040">
                                <set attributeName="fill" to="#808080" begin="zoomplus.mouseover" end="zoomplus.mouseout"/>
                        </use>
                        <path d="M-4,0h8M0,-4v8" fill="none" stroke="white" stroke-width="1.5" pointer-events="none"/>
                </g>
                <g id="zoomMin">
                        <use xlink:href="#rim" fill="#404040">
                                <set attributeName="fill" to="#808080" begin="zoomminus.mouseover" end="zoomminus.mouseout"/>
                        </use>
                        <path d="M-4,0h8" fill="none" stroke="white" stroke-width="1.5" pointer-events="none"/>
                </g>
                <g id="dirArrow">
                        <path fill="none" stroke="white" stroke-width="1.5" d="M0,-3.0v7 M-2.5,-0.5L0,-3.0L2.5,-0.5"/>
                </g>
               <g id="resetDef">
                       <use xlink:href="#rim2" fill="#404040">
                               <set attributeName="fill" to="#808080" begin="reset.mouseover" end="reset.mouseout"/>
                       </use>
               </g>
        </defs>

<script type="text/javascript">
var viewWidth = 768;
var viewHeight = 302;
var sectionId = 'dynsection-0';
</script>
<script xlink:href="svgpan.js"/>
<svg id="graph" class="graph">
<g id="viewport">
<title>6502isa.cpp</title>
<!-- Node1 -->
<g id="node1" class="node">
<title>Node1</title>
<g id="a_node1"><a xlink:title=" ">
<polygon fill="#999999" stroke="#666666" points="434.5,-294 359.5,-294 359.5,-275 434.5,-275 434.5,-294"/>
<text text-anchor="middle" x="397" y="-282" font-family="Helvetica,sans-Serif" font-size="10.00">6502isa.cpp</text>
</a>
</g>
</g>
<!-- Node2 -->
<g id="node2" class="node">
<title>Node2</title>
<g id="a_node2"><a xlink:href="6502isa_8h.html" target="_top" xlink:title=" ">
<polygon fill="white" stroke="#666666" points="286,-184 222,-184 222,-165 286,-165 286,-184"/>
<text text-anchor="middle" x="254" y="-172" font-family="Helvetica,sans-Serif" font-size="10.00">6502isa.h</text>
</a>
</g>
</g>
<!-- Node1&#45;&gt;Node2 -->
<g id="edge1" class="edge">
<title>Node1&#45;&gt;Node2</title>
<path fill="none" stroke="#63b8ff" d="M385.3,-274.66C360.77,-256.14 303.75,-213.08 273.56,-190.28"/>
<polygon fill="#63b8ff" stroke="#63b8ff" points="275.55,-187.39 265.46,-184.16 271.33,-192.98 275.55,-187.39"/>
</g>
<!-- Node3 -->
<g id="node3" class="node">
<title>Node3</title>
<g id="a_node3"><a xlink:href="instruction__types_8h.html" target="_top" xlink:title=" ">
<polygon fill="white" stroke="#666666" points="250,-129 140,-129 140,-110 250,-110 250,-129"/>
<text text-anchor="middle" x="195" y="-117" font-family="Helvetica,sans-Serif" font-size="10.00">instruction_types.h</text>
</a>
</g>
</g>
<!-- Node1&#45;&gt;Node3 -->
<g id="edge29" class="edge">
<title>Node1&#45;&gt;Node3</title>
<path fill="none" stroke="#63b8ff" d="M365.6,-274.99C324.36,-262.18 252.58,-233.96 213,-184 202.88,-171.23 198.45,-153.06 196.51,-139.42"/>
<polygon fill="#63b8ff" stroke="#63b8ff" points="199.97,-138.81 195.4,-129.25 193.01,-139.57 199.97,-138.81"/>
</g>
<!-- Node4 -->
<g id="node4" class="node">
<title>Node4</title>
<g id="a_node4"><a xlink:href="address_8h.html" target="_top" xlink:title=" ">
<polygon fill="white" stroke="#666666" points="513,-74 449,-74 449,-55 513,-55 513,-74"/>
<text text-anchor="middle" x="481" y="-62" font-family="Helvetica,sans-Serif" font-size="10.00">address.h</text>
</a>
</g>
</g>
<!-- Node1&#45;&gt;Node4 -->
<g id="edge27" class="edge">
<title>Node1&#45;&gt;Node4</title>
<path fill="none" stroke="#63b8ff" d="M434.66,-283.03C497.52,-279.95 622.44,-263.55 678,-184 690.13,-166.64 681.79,-126.88 665,-110 645.4,-90.3 571.42,-77.21 523.44,-70.59"/>
<polygon fill="#63b8ff" stroke="#63b8ff" points="523.71,-67.1 513.33,-69.24 522.78,-74.04 523.71,-67.1"/>
</g>
<!-- Node6 -->
<g id="node6" class="node">
<title>Node6</title>
<g id="a_node6"><a xlink:title=" ">
<polygon fill="#e0e0e0" stroke="#999999" points="275.5,-19 222.5,-19 222.5,0 275.5,0 275.5,-19"/>
<text text-anchor="middle" x="249" y="-7" font-family="Helvetica,sans-Serif" font-size="10.00">cstddef</text>
</a>
</g>
</g>
<!-- Node1&#45;&gt;Node6 -->
<g id="edge31" class="edge">
<title>Node1&#45;&gt;Node6</title>
<path fill="none" stroke="#63b8ff" d="M359.29,-281.29C260.2,-274.47 0,-249.52 0,-175.5 0,-175.5 0,-175.5 0,-118.5 0,-27.07 143.05,-12.19 212.3,-10.35"/>
<polygon fill="#63b8ff" stroke="#63b8ff" points="212.42,-13.85 222.35,-10.16 212.29,-6.85 212.42,-13.85"/>
</g>
<!-- Node7 -->
<g id="node7" class="node">
<title>Node7</title>
<g id="a_node7"><a xlink:title=" ">
<polygon fill="#e0e0e0" stroke="#999999" points="709,-19 659,-19 659,0 709,0 709,-19"/>
<text text-anchor="middle" x="684" y="-7" font-family="Helvetica,sans-Serif" font-size="10.00">cstdint</text>
</a>
</g>
</g>
<!-- Node1&#45;&gt;Node7 -->
<g id="edge32" class="edge">
<title>Node1&#45;&gt;Node7</title>
<path fill="none" stroke="#63b8ff" d="M434.82,-280.34C527.79,-271.54 760,-242.81 760,-175.5 760,-175.5 760,-175.5 760,-118.5 760,-79.47 726.39,-44.58 703.87,-25.6"/>
<polygon fill="#63b8ff" stroke="#63b8ff" points="705.85,-22.7 695.88,-19.12 701.44,-28.14 705.85,-22.7"/>
</g>
<!-- Node11 -->
<g id="node11" class="node">
<title>Node11</title>
<g id="a_node11"><a xlink:href="6502cpu_8h.html" target="_top" xlink:title=" ">
<polygon fill="white" stroke="#666666" points="470.5,-239 403.5,-239 403.5,-220 470.5,-220 470.5,-239"/>
<text text-anchor="middle" x="437" y="-227" font-family="Helvetica,sans-Serif" font-size="10.00">6502cpu.h</text>
</a>
</g>
</g>
<!-- Node1&#45;&gt;Node11 -->
<g id="edge10" class="edge">
<title>Node1&#45;&gt;Node11</title>
<path fill="none" stroke="#63b8ff" d="M403.61,-274.75C409.26,-267.26 417.54,-256.28 424.45,-247.13"/>
<polygon fill="#63b8ff" stroke="#63b8ff" points="427.29,-249.18 430.52,-239.09 421.7,-244.96 427.29,-249.18"/>
</g>
<!-- Node12 -->
<g id="node12" class="node">
<title>Node12</title>
<g id="a_node12"><a xlink:href="byte__utils_8h.html" target="_top" xlink:title=" ">
<polygon fill="white" stroke="#666666" points="669,-184 595,-184 595,-165 669,-165 669,-184"/>
<text text-anchor="middle" x="632" y="-172" font-family="Helvetica,sans-Serif" font-size="10.00">byte_utils.h</text>
</a>
</g>
</g>
<!-- Node1&#45;&gt;Node12 -->
<g id="edge28" class="edge">
<title>Node1&#45;&gt;Node12</title>
<path fill="none" stroke="#63b8ff" d="M415.83,-274.84C457.1,-255.88 555.67,-210.58 604.14,-188.31"/>
<polygon fill="#63b8ff" stroke="#63b8ff" points="605.78,-191.4 613.4,-184.05 602.85,-185.04 605.78,-191.4"/>
</g>
<!-- Node18 -->
<g id="node18" class="node">
<title>Node18</title>
<g id="a_node18"><a xlink:href="psr_8h.html" target="_top" xlink:title=" ">
<polygon fill="white" stroke="#666666" points="382,-184 342,-184 342,-165 382,-165 382,-184"/>
<text text-anchor="middle" x="362" y="-172" font-family="Helvetica,sans-Serif" font-size="10.00">psr.h</text>
</a>
</g>
</g>
<!-- Node1&#45;&gt;Node18 -->
<g id="edge30" class="edge">
<title>Node1&#45;&gt;Node18</title>
<path fill="none" stroke="#63b8ff" d="M394.14,-274.66C388.44,-257.09 375.59,-217.45 367.98,-193.95"/>
<polygon fill="#63b8ff" stroke="#63b8ff" points="371.22,-192.59 364.81,-184.16 364.56,-194.75 371.22,-192.59"/>
</g>
<!-- Node2&#45;&gt;Node3 -->
<g id="edge2" class="edge">
<title>Node2&#45;&gt;Node3</title>
<path fill="none" stroke="#63b8ff" d="M244.52,-164.98C235.8,-157.15 222.66,-145.34 212.1,-135.86"/>
<polygon fill="#63b8ff" stroke="#63b8ff" points="214.43,-133.25 204.65,-129.17 209.75,-138.46 214.43,-133.25"/>
</g>
<!-- Node10 -->
<g id="node10" class="node">
<title>Node10</title>
<g id="a_node10"><a xlink:title=" ">
<polygon fill="#e0e0e0" stroke="#999999" points="121.5,-129 28.5,-129 28.5,-110 121.5,-110 121.5,-129"/>
<text text-anchor="middle" x="75" y="-117" font-family="Helvetica,sans-Serif" font-size="10.00">unordered_map</text>
</a>
</g>
</g>
<!-- Node2&#45;&gt;Node10 -->
<g id="edge9" class="edge">
<title>Node2&#45;&gt;Node10</title>
<path fill="none" stroke="#63b8ff" d="M225.24,-164.98C195.06,-156.05 147.43,-141.94 113.9,-132.02"/>
<polygon fill="#63b8ff" stroke="#63b8ff" points="114.57,-128.57 103.98,-129.08 112.58,-135.28 114.57,-128.57"/>
</g>
<!-- Node3&#45;&gt;Node4 -->
<g id="edge3" class="edge">
<title>Node3&#45;&gt;Node4</title>
<path fill="none" stroke="#63b8ff" d="M240.95,-109.98C295.57,-99.86 385.97,-83.11 438.86,-73.31"/>
<polygon fill="#63b8ff" stroke="#63b8ff" points="439.72,-76.71 448.92,-71.45 438.45,-69.83 439.72,-76.71"/>
</g>
<!-- Node8 -->
<g id="node8" class="node">
<title>Node8</title>
<g id="a_node8"><a xlink:title=" ">
<polygon fill="#e0e0e0" stroke="#999999" points="305.5,-74 240.5,-74 240.5,-55 305.5,-55 305.5,-74"/>
<text text-anchor="middle" x="273" y="-62" font-family="Helvetica,sans-Serif" font-size="10.00">functional</text>
</a>
</g>
</g>
<!-- Node3&#45;&gt;Node8 -->
<g id="edge7" class="edge">
<title>Node3&#45;&gt;Node8</title>
<path fill="none" stroke="#63b8ff" d="M207.53,-109.98C219.4,-101.92 237.46,-89.65 251.61,-80.03"/>
<polygon fill="#63b8ff" stroke="#63b8ff" points="253.94,-82.69 260.24,-74.17 250,-76.9 253.94,-82.69"/>
</g>
<!-- Node9 -->
<g id="node9" class="node">
<title>Node9</title>
<g id="a_node9"><a xlink:title=" ">
<polygon fill="#e0e0e0" stroke="#999999" points="217,-74 173,-74 173,-55 217,-55 217,-74"/>
<text text-anchor="middle" x="195" y="-62" font-family="Helvetica,sans-Serif" font-size="10.00">string</text>
</a>
</g>
</g>
<!-- Node3&#45;&gt;Node9 -->
<g id="edge8" class="edge">
<title>Node3&#45;&gt;Node9</title>
<path fill="none" stroke="#63b8ff" d="M195,-109.75C195,-102.8 195,-92.85 195,-84.13"/>
<polygon fill="#63b8ff" stroke="#63b8ff" points="198.5,-84.09 195,-74.09 191.5,-84.09 198.5,-84.09"/>
</g>
<!-- Node5 -->
<g id="node5" class="node">
<title>Node5</title>
<g id="a_node5"><a xlink:title=" ">
<polygon fill="#e0e0e0" stroke="#999999" points="511,-19 451,-19 451,0 511,0 511,-19"/>
<text text-anchor="middle" x="481" y="-7" font-family="Helvetica,sans-Serif" font-size="10.00">concepts</text>
</a>
</g>
</g>
<!-- Node4&#45;&gt;Node5 -->
<g id="edge4" class="edge">
<title>Node4&#45;&gt;Node5</title>
<path fill="none" stroke="#63b8ff" d="M481,-54.75C481,-47.8 481,-37.85 481,-29.13"/>
<polygon fill="#63b8ff" stroke="#63b8ff" points="484.5,-29.09 481,-19.09 477.5,-29.09 484.5,-29.09"/>
</g>
<!-- Node4&#45;&gt;Node6 -->
<g id="edge5" class="edge">
<title>Node4&#45;&gt;Node6</title>
<path fill="none" stroke="#63b8ff" d="M448.74,-56.13C405.89,-46.34 330.38,-29.09 285.49,-18.84"/>
<polygon fill="#63b8ff" stroke="#63b8ff" points="286.12,-15.39 275.59,-16.57 284.56,-22.21 286.12,-15.39"/>
</g>
<!-- Node4&#45;&gt;Node7 -->
<g id="edge6" class="edge">
<title>Node4&#45;&gt;Node7</title>
<path fill="none" stroke="#63b8ff" d="M513.17,-55.1C550.06,-45.47 610.35,-29.73 648.56,-19.75"/>
<polygon fill="#63b8ff" stroke="#63b8ff" points="649.93,-23.01 658.72,-17.1 648.16,-16.24 649.93,-23.01"/>
</g>
<!-- Node11&#45;&gt;Node2 -->
<g id="edge11" class="edge">
<title>Node11&#45;&gt;Node2</title>
<path fill="none" stroke="#63b8ff" d="M407.6,-219.98C376.61,-211.01 327.62,-196.82 293.33,-186.89"/>
<polygon fill="#63b8ff" stroke="#63b8ff" points="294.21,-183.5 283.63,-184.08 292.26,-190.23 294.21,-183.5"/>
</g>
<!-- Node11&#45;&gt;Node3 -->
<g id="edge22" class="edge">
<title>Node11&#45;&gt;Node3</title>
<path fill="none" stroke="#63b8ff" d="M416.12,-219.99C395.01,-211.29 361.51,-197.21 333,-184 315.87,-176.06 312.07,-173.06 295,-165 271.37,-153.84 244.28,-141.83 224.26,-133.11"/>
<polygon fill="#63b8ff" stroke="#63b8ff" points="225.61,-129.88 215.04,-129.1 222.82,-136.3 225.61,-129.88"/>
</g>
<!-- Node11&#45;&gt;Node4 -->
<g id="edge12" class="edge">
<title>Node11&#45;&gt;Node4</title>
<path fill="none" stroke="#63b8ff" d="M456.6,-219.83C485.43,-205.74 537.53,-174.74 553,-129 555.71,-121 557.11,-117.38 553,-110 544.96,-95.58 530.1,-85.24 515.96,-78.18"/>
<polygon fill="#63b8ff" stroke="#63b8ff" points="517.4,-74.99 506.85,-74.01 514.49,-81.36 517.4,-74.99"/>
</g>
<!-- Node11&#45;&gt;Node12 -->
<g id="edge13" class="edge">
<title>Node11&#45;&gt;Node12</title>
<path fill="none" stroke="#63b8ff" d="M468.33,-219.98C501.49,-210.97 554,-196.7 590.56,-186.76"/>
<polygon fill="#63b8ff" stroke="#63b8ff" points="591.69,-190.08 600.42,-184.08 589.86,-183.33 591.69,-190.08"/>
</g>
<!-- Node13 -->
<g id="node13" class="node">
<title>Node13</title>
<g id="a_node13"><a xlink:title=" ">
<polygon fill="#e0e0e0" stroke="#999999" points="544,-129 484,-129 484,-110 544,-110 544,-129"/>
<text text-anchor="middle" x="514" y="-117" font-family="Helvetica,sans-Serif" font-size="10.00">iostream</text>
</a>
</g>
</g>
<!-- Node11&#45;&gt;Node13 -->
<g id="edge26" class="edge">
<title>Node11&#45;&gt;Node13</title>
<path fill="none" stroke="#63b8ff" d="M452.12,-219.94C464.71,-212.1 482.27,-199.38 493,-184 502.45,-170.46 507.88,-152.37 510.84,-138.97"/>
<polygon fill="#63b8ff" stroke="#63b8ff" points="514.3,-139.49 512.78,-129.01 507.43,-138.15 514.3,-139.49"/>
</g>
<!-- Node15 -->
<g id="node15" class="node">
<title>Node15</title>
<g id="a_node15"><a xlink:href="gp__memory_8h.html" target="_top" xlink:title=" ">
<polygon fill="white" stroke="#666666" points="483.5,-184 400.5,-184 400.5,-165 483.5,-165 483.5,-184"/>
<text text-anchor="middle" x="442" y="-172" font-family="Helvetica,sans-Serif" font-size="10.00">gp_memory.h</text>
</a>
</g>
</g>
<!-- Node11&#45;&gt;Node15 -->
<g id="edge17" class="edge">
<title>Node11&#45;&gt;Node15</title>
<path fill="none" stroke="#63b8ff" d="M437.83,-219.75C438.48,-212.8 439.42,-202.85 440.24,-194.13"/>
<polygon fill="#63b8ff" stroke="#63b8ff" points="443.73,-194.37 441.19,-184.09 436.77,-193.72 443.73,-194.37"/>
</g>
<!-- Node11&#45;&gt;Node18 -->
<g id="edge23" class="edge">
<title>Node11&#45;&gt;Node18</title>
<path fill="none" stroke="#63b8ff" d="M424.95,-219.98C413.54,-211.92 396.17,-199.65 382.57,-190.03"/>
<polygon fill="#63b8ff" stroke="#63b8ff" points="384.46,-187.08 374.27,-184.17 380.42,-192.8 384.46,-187.08"/>
</g>
<!-- Node12&#45;&gt;Node7 -->
<g id="edge14" class="edge">
<title>Node12&#45;&gt;Node7</title>
<path fill="none" stroke="#63b8ff" d="M640.51,-164.76C648.2,-156.33 659.18,-142.83 665,-129 678.97,-95.83 682.74,-53.47 683.71,-29.43"/>
<polygon fill="#63b8ff" stroke="#63b8ff" points="687.21,-29.31 684,-19.21 680.22,-29.11 687.21,-29.31"/>
</g>
<!-- Node12&#45;&gt;Node13 -->
<g id="edge15" class="edge">
<title>Node12&#45;&gt;Node13</title>
<path fill="none" stroke="#63b8ff" d="M613.04,-164.98C593.97,-156.42 564.34,-143.11 542.45,-133.28"/>
<polygon fill="#63b8ff" stroke="#63b8ff" points="543.86,-130.07 533.3,-129.17 540.99,-136.46 543.86,-130.07"/>
</g>
<!-- Node14 -->
<g id="node14" class="node">
<title>Node14</title>
<g id="a_node14"><a xlink:title=" ">
<polygon fill="#e0e0e0" stroke="#999999" points="656,-129 600,-129 600,-110 656,-110 656,-129"/>
<text text-anchor="middle" x="628" y="-117" font-family="Helvetica,sans-Serif" font-size="10.00">sstream</text>
</a>
</g>
</g>
<!-- Node12&#45;&gt;Node14 -->
<g id="edge16" class="edge">
<title>Node12&#45;&gt;Node14</title>
<path fill="none" stroke="#63b8ff" d="M631.34,-164.75C630.82,-157.8 630.06,-147.85 629.41,-139.13"/>
<polygon fill="#63b8ff" stroke="#63b8ff" points="632.89,-138.8 628.65,-129.09 625.91,-139.32 632.89,-138.8"/>
</g>
<!-- Node15&#45;&gt;Node4 -->
<g id="edge18" class="edge">
<title>Node15&#45;&gt;Node4</title>
<path fill="none" stroke="#63b8ff" d="M431.93,-164.76C418.99,-152.42 399.36,-129.23 410,-110 417.84,-95.83 432.29,-85.57 446.11,-78.5"/>
<polygon fill="#63b8ff" stroke="#63b8ff" points="447.92,-81.52 455.49,-74.1 444.95,-75.18 447.92,-81.52"/>
</g>
<!-- Node15&#45;&gt;Node13 -->
<g id="edge19" class="edge">
<title>Node15&#45;&gt;Node13</title>
<path fill="none" stroke="#63b8ff" d="M453.57,-164.98C464.42,-157 480.88,-144.88 493.88,-135.31"/>
<polygon fill="#63b8ff" stroke="#63b8ff" points="496.24,-137.92 502.22,-129.17 492.09,-132.28 496.24,-137.92"/>
</g>
<!-- Node16 -->
<g id="node16" class="node">
<title>Node16</title>
<g id="a_node16"><a xlink:title=" ">
<polygon fill="#e0e0e0" stroke="#999999" points="362,-129 306,-129 306,-110 362,-110 362,-129"/>
<text text-anchor="middle" x="334" y="-117" font-family="Helvetica,sans-Serif" font-size="10.00">stddef.h</text>
</a>
</g>
</g>
<!-- Node15&#45;&gt;Node16 -->
<g id="edge20" class="edge">
<title>Node15&#45;&gt;Node16</title>
<path fill="none" stroke="#63b8ff" d="M424.65,-164.98C407.43,-156.54 380.8,-143.47 360.85,-133.68"/>
<polygon fill="#63b8ff" stroke="#63b8ff" points="362.19,-130.43 351.67,-129.17 359.1,-136.72 362.19,-130.43"/>
</g>
<!-- Node17 -->
<g id="node17" class="node">
<title>Node17</title>
<g id="a_node17"><a xlink:title=" ">
<polygon fill="#e0e0e0" stroke="#999999" points="465.5,-129 418.5,-129 418.5,-110 465.5,-110 465.5,-129"/>
<text text-anchor="middle" x="442" y="-117" font-family="Helvetica,sans-Serif" font-size="10.00">vector</text>
</a>
</g>
</g>
<!-- Node15&#45;&gt;Node17 -->
<g id="edge21" class="edge">
<title>Node15&#45;&gt;Node17</title>
<path fill="none" stroke="#63b8ff" d="M442,-164.75C442,-157.8 442,-147.85 442,-139.13"/>
<polygon fill="#63b8ff" stroke="#63b8ff" points="445.5,-139.09 442,-129.09 438.5,-139.09 445.5,-139.09"/>
</g>
<!-- Node18&#45;&gt;Node8 -->
<g id="edge24" class="edge">
<title>Node18&#45;&gt;Node8</title>
<path fill="none" stroke="#63b8ff" d="M343.73,-164.92C329.28,-157.3 309.5,-144.92 297,-129 286.65,-115.82 280.39,-97.69 276.87,-84.18"/>
<polygon fill="#63b8ff" stroke="#63b8ff" points="280.21,-83.07 274.54,-74.12 273.39,-84.66 280.21,-83.07"/>
</g>
<!-- Node18&#45;&gt;Node16 -->
<g id="edge25" class="edge">
<title>Node18&#45;&gt;Node16</title>
<path fill="none" stroke="#63b8ff" d="M357.38,-164.75C353.54,-157.49 347.98,-146.95 343.24,-137.98"/>
<polygon fill="#63b8ff" stroke="#63b8ff" points="346.3,-136.3 338.54,-129.09 340.11,-139.57 346.3,-136.3"/>
</g>
</g>
</svg>
        <g id="navigator" transform="translate(0 0)" fill="#404254">
                <rect fill="#f2f5e9" fill-opacity="0.5" stroke="#606060" stroke-width=".5" x="0" y="0" width="60" height="60"/>
                <use id="zoomplus" xlink:href="#zoomPlus" x="17" y="9" onmousedown="handleZoom(evt,'in')"/>
                <use id="zoomminus" xlink:href="#zoomMin" x="42" y="9" onmousedown="handleZoom(evt,'out')"/>
                <use id="reset" xlink:href="#resetDef" x="30" y="36" onmousedown="handleReset()"/>
                <g id="arrowUp" xlink:href="#dirArrow" transform="translate(30 24)" onmousedown="handlePan(0,-1)">
                  <use xlink:href="#rim" fill="#404040">
                        <set attributeName="fill" to="#808080" begin="arrowUp.mouseover" end="arrowUp.mouseout"/>
                  </use>
                  <path fill="none" stroke="white" stroke-width="1.5" d="M0,-3.0v7 M-2.5,-0.5L0,-3.0L2.5,-0.5"/>
                </g>
                <g id="arrowRight" xlink:href="#dirArrow" transform="rotate(90) translate(36 -43)" onmousedown="handlePan(1,0)">
                  <use xlink:href="#rim" fill="#404040">
                        <set attributeName="fill" to="#808080" begin="arrowRight.mouseover" end="arrowRight.mouseout"/>
                  </use>
                  <path fill="none" stroke="white" stroke-width="1.5" d="M0,-3.0v7 M-2.5,-0.5L0,-3.0L2.5,-0.5"/>
                </g>
                <g id="arrowDown" xlink:href="#dirArrow" transform="rotate(180) translate(-30 -48)" onmousedown="handlePan(0,1)">
                  <use xlink:href="#rim" fill="#404040">
                        <set attributeName="fill" to="#808080" begin="arrowDown.mouseover" end="arrowDown.mouseout"/>
                  </use>
                  <path fill="none" stroke="white" stroke-width="1.5" d="M0,-3.0v7 M-2.5,-0.5L0,-3.0L2.5,-0.5"/>
                </g>
                <g id="arrowLeft" xlink:href="#dirArrow" transform="rotate(270) translate(-36 17)" onmousedown="handlePan(-1,0)">
                  <use xlink:href="#rim" fill="#404040">
                        <set attributeName="fill" to="#808080" begin="arrowLeft.mouseover" end="arrowLeft.mouseout"/>
                  </use>
                  <path fill="none" stroke="white" stroke-width="1.5" d="M0,-3.0v7 M-2.5,-0.5L0,-3.0L2.5,-0.5"/>
                </g>
        </g>
        <svg viewBox="0 0 15 15" width="100%" height="30px" preserveAspectRatio="xMaxYMin meet">
         <g id="arrow_out" transform="scale(0.3 0.3)">
          <a xlink:href="6502isa_8cpp__incl_org.svg" target="_base">
           <rect id="button" ry="5" rx="5" y="6" x="6" height="38" width="38"
                fill="#f2f5e9" fill-opacity="0.5" stroke="#606060" stroke-width="1.0"/>
           <path id="arrow"
             d="M 11.500037,31.436501 C 11.940474,20.09759 22.043105,11.32322 32.158766,21.979434 L 37.068811,17.246167 C 37.068811,17.246167 37.088388,32 37.088388,32 L 22.160133,31.978069 C 22.160133,31.978069 26.997745,27.140456 26.997745,27.140456 C 18.528582,18.264221 13.291696,25.230495 11.500037,31.436501 z"
             style="fill:#404040;"/>
          </a>
         </g>
        </svg>
</svg>
