<?xml version="1.0" encoding="UTF-8" standalone="no"?>
<!DOCTYPE svg PUBLIC "-//W3C//DTD SVG 1.1//EN"
 "http://www.w3.org/Graphics/SVG/1.1/DTD/svg11.dtd">
<!-- Generated by graphviz version 2.43.0 (0)
 -->
<!-- Title: 6502cpu.h Pages: 1 -->
<svg width="328pt" height="137pt"
 viewBox="0.00 0.00 328.00 137.00" xmlns="http://www.w3.org/2000/svg" xmlns:xlink="http://www.w3.org/1999/xlink">
<g id="graph0" class="graph" transform="scale(1 1) rotate(0) translate(4 133)">
<title>6502cpu.h</title>
<!-- Node1 -->
<g id="node1" class="node">
<title>Node1</title>
<g id="a_node1"><a xlink:title=" ">
<polygon fill="#999999" stroke="#666666" points="212.5,-129 145.5,-129 145.5,-110 212.5,-110 212.5,-129"/>
<text text-anchor="middle" x="179" y="-117" font-family="Helvetica,sans-Serif" font-size="10.00">6502cpu.h</text>
</a>
</g>
</g>
<!-- Node2 -->
<g id="node2" class="node">
<title>Node2</title>
<g id="a_node2"><a xlink:href="6502cpu_8cpp.html" target="_top" xlink:title=" ">
<polygon fill="white" stroke="#666666" points="78,-74 0,-74 0,-55 78,-55 78,-74"/>
<text text-anchor="middle" x="39" y="-62" font-family="Helvetica,sans-Serif" font-size="10.00">6502cpu.cpp</text>
</a>
</g>
</g>
<!-- Node1&#45;&gt;Node2 -->
<g id="edge1" class="edge">
<title>Node1&#45;&gt;Node2</title>
<path fill="none" stroke="#63b8ff" d="M147.09,-106.42C121.12,-96.59 85.08,-82.95 61.9,-74.17"/>
<polygon fill="#63b8ff" stroke="#63b8ff" points="145.92,-109.72 156.51,-109.98 148.39,-103.17 145.92,-109.72"/>
</g>
<!-- Node3 -->
<g id="node3" class="node">
<title>Node3</title>
<g id="a_node3"><a xlink:href="6502isa_8cpp.html" target="_top" xlink:title=" ">
<polygon fill="white" stroke="#666666" points="171.5,-74 96.5,-74 96.5,-55 171.5,-55 171.5,-74"/>
<text text-anchor="middle" x="134" y="-62" font-family="Helvetica,sans-Serif" font-size="10.00">6502isa.cpp</text>
</a>
</g>
</g>
<!-- Node1&#45;&gt;Node3 -->
<g id="edge2" class="edge">
<title>Node1&#45;&gt;Node3</title>
<path fill="none" stroke="#63b8ff" d="M164.95,-101.96C157.11,-92.72 147.67,-81.6 141.29,-74.09"/>
<polygon fill="#63b8ff" stroke="#63b8ff" points="162.43,-104.39 171.57,-109.75 167.76,-99.86 162.43,-104.39"/>
</g>
<!-- Node4 -->
<g id="node4" class="node">
<title>Node4</title>
<g id="a_node4"><a xlink:href="debugger_8h.html" target="_top" xlink:title=" ">
<polygon fill="white" stroke="#666666" points="260.5,-74 189.5,-74 189.5,-55 260.5,-55 260.5,-74"/>
<text text-anchor="middle" x="225" y="-62" font-family="Helvetica,sans-Serif" font-size="10.00">debugger.h</text>
</a>
</g>
</g>
<!-- Node1&#45;&gt;Node4 -->
<g id="edge3" class="edge">
<title>Node1&#45;&gt;Node4</title>
<path fill="none" stroke="#63b8ff" d="M193.36,-101.96C201.37,-92.72 211.03,-81.6 217.55,-74.09"/>
<polygon fill="#63b8ff" stroke="#63b8ff" points="190.51,-99.9 186.6,-109.75 195.79,-104.49 190.51,-99.9"/>
</g>
<!-- Node6 -->
<g id="node6" class="node">
<title>Node6</title>
<g id="a_node6"><a xlink:href="main_8cpp.html" target="_top" xlink:title=" ">
<polygon fill="white" stroke="#666666" points="320,-19 258,-19 258,0 320,0 320,-19"/>
<text text-anchor="middle" x="289" y="-7" font-family="Helvetica,sans-Serif" font-size="10.00">main.cpp</text>
</a>
</g>
</g>
<!-- Node1&#45;&gt;Node6 -->
<g id="edge6" class="edge">
<title>Node1&#45;&gt;Node6</title>
<path fill="none" stroke="#63b8ff" d="M220.79,-106.4C238.18,-99.46 257.24,-89.05 270,-74 283.55,-58.03 287.43,-32.67 288.55,-19.35"/>
<polygon fill="#63b8ff" stroke="#63b8ff" points="219.51,-103.14 211.36,-109.91 221.95,-109.7 219.51,-103.14"/>
</g>
<!-- Node5 -->
<g id="node5" class="node">
<title>Node5</title>
<g id="a_node5"><a xlink:href="debugger_8cpp.html" target="_top" xlink:title=" ">
<polygon fill="white" stroke="#666666" points="240,-19 158,-19 158,0 240,0 240,-19"/>
<text text-anchor="middle" x="199" y="-7" font-family="Helvetica,sans-Serif" font-size="10.00">debugger.cpp</text>
</a>
</g>
</g>
<!-- Node4&#45;&gt;Node5 -->
<g id="edge4" class="edge">
<title>Node4&#45;&gt;Node5</title>
<path fill="none" stroke="#63b8ff" d="M216.18,-45.53C211.8,-36.6 206.71,-26.22 203.21,-19.09"/>
<polygon fill="#63b8ff" stroke="#63b8ff" points="213.16,-47.31 220.71,-54.75 219.44,-44.23 213.16,-47.31"/>
</g>
<!-- Node4&#45;&gt;Node6 -->
<g id="edge5" class="edge">
<title>Node4&#45;&gt;Node6</title>
<path fill="none" stroke="#63b8ff" d="M242.99,-48.6C254.46,-39.11 268.91,-27.13 278.53,-19.17"/>
<polygon fill="#63b8ff" stroke="#63b8ff" points="240.75,-45.91 235.28,-54.98 245.22,-51.3 240.75,-45.91"/>
</g>
</g>
</svg>
