<?xml version="1.0" encoding="UTF-8" standalone="no"?>
<!DOCTYPE svg PUBLIC "-//W3C//DTD SVG 1.1//EN"
 "http://www.w3.org/Graphics/SVG/1.1/DTD/svg11.dtd">
<!-- Generated by graphviz version 2.43.0 (0)
 -->
<!-- Title: 6502cpu.cpp Pages: 1 -->
<!--zoomable 302 -->
<svg id="main" version="1.1" xmlns="http://www.w3.org/2000/svg" xmlns:xlink="http://www.w3.org/1999/xlink" xml:space="preserve" onload="init(evt)">
<style type="text/css"><![CDATA[
.edge:hover path { stroke: red; }
.edge:hover polygon { stroke: red; fill: red; }
]]></style>
<script type="text/javascript"><![CDATA[
var edges = document.getElementsByTagName('g');
if (edges && edges.length) {
  for (var i=0;i<edges.length;i++) {
    if (edges[i].id.substr(0,4)=='edge') {
      edges[i].setAttribute('class','edge');
    }
  }
}
]]></script>
        <defs>
                <circle id="rim" cx="0" cy="0" r="7"/>
                <circle id="rim2" cx="0" cy="0" r="3.5"/>
                <g id="zoomPlus">
                        <use xlink:href="#rim" fill="#404040">
                                <set attributeName="fill" to="#808080" begin="zoomplus.mouseover" end="zoomplus.mouseout"/>
                        </use>
                        <path d="M-4,0h8M0,-4v8" fill="none" stroke="white" stroke-width="1.5" pointer-events="none"/>
                </g>
                <g id="zoomMin">
                        <use xlink:href="#rim" fill="#404040">
                                <set attributeName="fill" to="#808080" begin="zoomminus.mouseover" end="zoomminus.mouseout"/>
                        </use>
                        <path d="M-4,0h8" fill="none" stroke="white" stroke-width="1.5" pointer-events="none"/>
                </g>
                <g id="dirArrow">
                        <path fill="none" stroke="white" stroke-width="1.5" d="M0,-3.0v7 M-2.5,-0.5L0,-3.0L2.5,-0.5"/>
                </g>
               <g id="resetDef">
                       <use xlink:href="#rim2" fill="#404040">
                               <set attributeName="fill" to="#808080" begin="reset.mouseover" end="reset.mouseout"/>
                       </use>
               </g>
        </defs>

<script type="text/javascript">
var viewWidth = 697;
var viewHeight = 302;
var sectionId = 'dynsection-0';
</script>
<script xlink:href="svgpan.js"/>
<svg id="graph" class="graph">
<g id="viewport">
<title>6502cpu.cpp</title>
<!-- Node1 -->
<g id="node1" class="node">
<title>Node1</title>
<g id="a_node1"><a xlink:title=" ">
<polygon fill="#999999" stroke="#666666" points="472.5,-294 394.5,-294 394.5,-275 472.5,-275 472.5,-294"/>
<text text-anchor="middle" x="433.5" y="-282" font-family="Helvetica,sans-Serif" font-size="10.00">6502cpu.cpp</text>
</a>
</g>
</g>
<!-- Node2 -->
<g id="node2" class="node">
<title>Node2</title>
<g id="a_node2"><a xlink:href="6502cpu_8h.html" target="_top" xlink:title=" ">
<polygon fill="white" stroke="#666666" points="467,-239 400,-239 400,-220 467,-220 467,-239"/>
<text text-anchor="middle" x="433.5" y="-227" font-family="Helvetica,sans-Serif" font-size="10.00">6502cpu.h</text>
</a>
</g>
</g>
<!-- Node1&#45;&gt;Node2 -->
<g id="edge1" class="edge">
<title>Node1&#45;&gt;Node2</title>
<path fill="none" stroke="#63b8ff" d="M433.5,-274.75C433.5,-267.8 433.5,-257.85 433.5,-249.13"/>
<polygon fill="#63b8ff" stroke="#63b8ff" points="437,-249.09 433.5,-239.09 430,-249.09 437,-249.09"/>
</g>
<!-- Node4 -->
<g id="node4" class="node">
<title>Node4</title>
<g id="a_node4"><a xlink:href="instruction__types_8h.html" target="_top" xlink:title=" ">
<polygon fill="white" stroke="#666666" points="165.5,-129 55.5,-129 55.5,-110 165.5,-110 165.5,-129"/>
<text text-anchor="middle" x="110.5" y="-117" font-family="Helvetica,sans-Serif" font-size="10.00">instruction_types.h</text>
</a>
</g>
</g>
<!-- Node1&#45;&gt;Node4 -->
<g id="edge28" class="edge">
<title>Node1&#45;&gt;Node4</title>
<path fill="none" stroke="#63b8ff" d="M408.89,-274.92C365.98,-259.49 275.27,-224.85 204.5,-184 177.97,-168.68 148.98,-148.54 130.31,-135.08"/>
<polygon fill="#63b8ff" stroke="#63b8ff" points="132.17,-132.12 122.03,-129.07 128.06,-137.78 132.17,-132.12"/>
</g>
<!-- Node5 -->
<g id="node5" class="node">
<title>Node5</title>
<g id="a_node5"><a xlink:href="address_8h.html" target="_top" xlink:title=" ">
<polygon fill="white" stroke="#666666" points="593.5,-74 529.5,-74 529.5,-55 593.5,-55 593.5,-74"/>
<text text-anchor="middle" x="561.5" y="-62" font-family="Helvetica,sans-Serif" font-size="10.00">address.h</text>
</a>
</g>
</g>
<!-- Node1&#45;&gt;Node5 -->
<g id="edge26" class="edge">
<title>Node1&#45;&gt;Node5</title>
<path fill="none" stroke="#63b8ff" d="M472.53,-279.85C527.06,-272.42 624.22,-250.11 667.5,-184 678.72,-166.85 668.61,-127.51 654.5,-110 641.55,-93.93 621.41,-83.31 603.17,-76.49"/>
<polygon fill="#63b8ff" stroke="#63b8ff" points="604.17,-73.13 593.58,-73.17 601.88,-79.75 604.17,-73.13"/>
</g>
<!-- Node12 -->
<g id="node12" class="node">
<title>Node12</title>
<g id="a_node12"><a xlink:href="byte__utils_8h.html" target="_top" xlink:title=" ">
<polygon fill="white" stroke="#666666" points="658.5,-184 584.5,-184 584.5,-165 658.5,-165 658.5,-184"/>
<text text-anchor="middle" x="621.5" y="-172" font-family="Helvetica,sans-Serif" font-size="10.00">byte_utils.h</text>
</a>
</g>
</g>
<!-- Node1&#45;&gt;Node12 -->
<g id="edge27" class="edge">
<title>Node1&#45;&gt;Node12</title>
<path fill="none" stroke="#63b8ff" d="M448.57,-274.84C481.1,-256.16 558.14,-211.9 597.48,-189.3"/>
<polygon fill="#63b8ff" stroke="#63b8ff" points="599.69,-192.06 606.62,-184.05 596.21,-185.99 599.69,-192.06"/>
</g>
<!-- Node18 -->
<g id="node18" class="node">
<title>Node18</title>
<g id="a_node18"><a xlink:href="psr_8h.html" target="_top" xlink:title=" ">
<polygon fill="white" stroke="#666666" points="253.5,-184 213.5,-184 213.5,-165 253.5,-165 253.5,-184"/>
<text text-anchor="middle" x="233.5" y="-172" font-family="Helvetica,sans-Serif" font-size="10.00">psr.h</text>
</a>
</g>
</g>
<!-- Node1&#45;&gt;Node18 -->
<g id="edge29" class="edge">
<title>Node1&#45;&gt;Node18</title>
<path fill="none" stroke="#63b8ff" d="M417.47,-274.84C382.64,-256.04 299.86,-211.33 258.26,-188.87"/>
<polygon fill="#63b8ff" stroke="#63b8ff" points="259.79,-185.72 249.33,-184.05 256.46,-191.88 259.79,-185.72"/>
</g>
<!-- Node3 -->
<g id="node3" class="node">
<title>Node3</title>
<g id="a_node3"><a xlink:href="6502isa_8h.html" target="_top" xlink:title=" ">
<polygon fill="white" stroke="#666666" points="373.5,-184 309.5,-184 309.5,-165 373.5,-165 373.5,-184"/>
<text text-anchor="middle" x="341.5" y="-172" font-family="Helvetica,sans-Serif" font-size="10.00">6502isa.h</text>
</a>
</g>
</g>
<!-- Node2&#45;&gt;Node3 -->
<g id="edge2" class="edge">
<title>Node2&#45;&gt;Node3</title>
<path fill="none" stroke="#63b8ff" d="M418.72,-219.98C404.32,-211.69 382.19,-198.94 365.31,-189.22"/>
<polygon fill="#63b8ff" stroke="#63b8ff" points="366.96,-186.13 356.55,-184.17 363.47,-192.19 366.96,-186.13"/>
</g>
<!-- Node2&#45;&gt;Node4 -->
<g id="edge21" class="edge">
<title>Node2&#45;&gt;Node4</title>
<path fill="none" stroke="#63b8ff" d="M404.01,-219.94C376.76,-211.72 335.36,-198.46 300.5,-184 283.06,-176.76 280.08,-171.9 262.5,-165 227.55,-151.27 186.63,-139.53 156.06,-131.56"/>
<polygon fill="#63b8ff" stroke="#63b8ff" points="156.67,-128.1 146.11,-129 154.93,-134.88 156.67,-128.1"/>
</g>
<!-- Node2&#45;&gt;Node5 -->
<g id="edge11" class="edge">
<title>Node2&#45;&gt;Node5</title>
<path fill="none" stroke="#63b8ff" d="M450.33,-219.96C465.1,-211.95 486.65,-198.98 502.5,-184 524.46,-163.23 529.09,-156.09 542.5,-129 549.61,-114.64 554.6,-97.12 557.68,-84.12"/>
<polygon fill="#63b8ff" stroke="#63b8ff" points="561.17,-84.58 559.9,-74.06 554.33,-83.07 561.17,-84.58"/>
</g>
<!-- Node2&#45;&gt;Node12 -->
<g id="edge12" class="edge">
<title>Node2&#45;&gt;Node12</title>
<path fill="none" stroke="#63b8ff" d="M463.71,-219.98C495.54,-211.01 545.86,-196.82 581.1,-186.89"/>
<polygon fill="#63b8ff" stroke="#63b8ff" points="582.38,-190.16 591.06,-184.08 580.48,-183.43 582.38,-190.16"/>
</g>
<!-- Node13 -->
<g id="node13" class="node">
<title>Node13</title>
<g id="a_node13"><a xlink:title=" ">
<polygon fill="#e0e0e0" stroke="#999999" points="533.5,-129 473.5,-129 473.5,-110 533.5,-110 533.5,-129"/>
<text text-anchor="middle" x="503.5" y="-117" font-family="Helvetica,sans-Serif" font-size="10.00">iostream</text>
</a>
</g>
</g>
<!-- Node2&#45;&gt;Node13 -->
<g id="edge25" class="edge">
<title>Node2&#45;&gt;Node13</title>
<path fill="none" stroke="#63b8ff" d="M447.12,-219.87C458.66,-211.89 474.83,-199.02 484.5,-184 493.26,-170.39 498.13,-152.58 500.74,-139.28"/>
<polygon fill="#63b8ff" stroke="#63b8ff" points="504.2,-139.81 502.44,-129.36 497.3,-138.63 504.2,-139.81"/>
</g>
<!-- Node15 -->
<g id="node15" class="node">
<title>Node15</title>
<g id="a_node15"><a xlink:href="gp__memory_8h.html" target="_top" xlink:title=" ">
<polygon fill="white" stroke="#666666" points="475,-184 392,-184 392,-165 475,-165 475,-184"/>
<text text-anchor="middle" x="433.5" y="-172" font-family="Helvetica,sans-Serif" font-size="10.00">gp_memory.h</text>
</a>
</g>
</g>
<!-- Node2&#45;&gt;Node15 -->
<g id="edge16" class="edge">
<title>Node2&#45;&gt;Node15</title>
<path fill="none" stroke="#63b8ff" d="M433.5,-219.75C433.5,-212.8 433.5,-202.85 433.5,-194.13"/>
<polygon fill="#63b8ff" stroke="#63b8ff" points="437,-194.09 433.5,-184.09 430,-194.09 437,-194.09"/>
</g>
<!-- Node2&#45;&gt;Node18 -->
<g id="edge22" class="edge">
<title>Node2&#45;&gt;Node18</title>
<path fill="none" stroke="#63b8ff" d="M401.37,-219.98C363.32,-209.9 300.44,-193.24 263.4,-183.42"/>
<polygon fill="#63b8ff" stroke="#63b8ff" points="264.24,-180.02 253.67,-180.85 262.44,-186.79 264.24,-180.02"/>
</g>
<!-- Node3&#45;&gt;Node4 -->
<g id="edge3" class="edge">
<title>Node3&#45;&gt;Node4</title>
<path fill="none" stroke="#63b8ff" d="M309.38,-166.13C269.96,-157.09 202.81,-141.68 157.56,-131.3"/>
<polygon fill="#63b8ff" stroke="#63b8ff" points="158.22,-127.86 147.69,-129.03 156.66,-134.68 158.22,-127.86"/>
</g>
<!-- Node11 -->
<g id="node11" class="node">
<title>Node11</title>
<g id="a_node11"><a xlink:title=" ">
<polygon fill="#e0e0e0" stroke="#999999" points="277,-129 184,-129 184,-110 277,-110 277,-129"/>
<text text-anchor="middle" x="230.5" y="-117" font-family="Helvetica,sans-Serif" font-size="10.00">unordered_map</text>
</a>
</g>
</g>
<!-- Node3&#45;&gt;Node11 -->
<g id="edge10" class="edge">
<title>Node3&#45;&gt;Node11</title>
<path fill="none" stroke="#63b8ff" d="M323.67,-164.98C305.89,-156.5 278.35,-143.35 257.82,-133.54"/>
<polygon fill="#63b8ff" stroke="#63b8ff" points="259.19,-130.32 248.66,-129.17 256.17,-136.64 259.19,-130.32"/>
</g>
<!-- Node4&#45;&gt;Node5 -->
<g id="edge4" class="edge">
<title>Node4&#45;&gt;Node5</title>
<path fill="none" stroke="#63b8ff" d="M165.81,-111.21C169.09,-110.79 172.34,-110.39 175.5,-110 300.32,-94.64 448.05,-78.05 519.13,-70.17"/>
<polygon fill="#63b8ff" stroke="#63b8ff" points="519.9,-73.61 529.45,-69.03 519.13,-66.65 519.9,-73.61"/>
</g>
<!-- Node9 -->
<g id="node9" class="node">
<title>Node9</title>
<g id="a_node9"><a xlink:title=" ">
<polygon fill="#e0e0e0" stroke="#999999" points="65,-74 0,-74 0,-55 65,-55 65,-74"/>
<text text-anchor="middle" x="32.5" y="-62" font-family="Helvetica,sans-Serif" font-size="10.00">functional</text>
</a>
</g>
</g>
<!-- Node4&#45;&gt;Node9 -->
<g id="edge8" class="edge">
<title>Node4&#45;&gt;Node9</title>
<path fill="none" stroke="#63b8ff" d="M97.97,-109.98C86.1,-101.92 68.04,-89.65 53.89,-80.03"/>
<polygon fill="#63b8ff" stroke="#63b8ff" points="55.5,-76.9 45.26,-74.17 51.56,-82.69 55.5,-76.9"/>
</g>
<!-- Node10 -->
<g id="node10" class="node">
<title>Node10</title>
<g id="a_node10"><a xlink:title=" ">
<polygon fill="#e0e0e0" stroke="#999999" points="132.5,-74 88.5,-74 88.5,-55 132.5,-55 132.5,-74"/>
<text text-anchor="middle" x="110.5" y="-62" font-family="Helvetica,sans-Serif" font-size="10.00">string</text>
</a>
</g>
</g>
<!-- Node4&#45;&gt;Node10 -->
<g id="edge9" class="edge">
<title>Node4&#45;&gt;Node10</title>
<path fill="none" stroke="#63b8ff" d="M110.5,-109.75C110.5,-102.8 110.5,-92.85 110.5,-84.13"/>
<polygon fill="#63b8ff" stroke="#63b8ff" points="114,-84.09 110.5,-74.09 107,-84.09 114,-84.09"/>
</g>
<!-- Node6 -->
<g id="node6" class="node">
<title>Node6</title>
<g id="a_node6"><a xlink:title=" ">
<polygon fill="#e0e0e0" stroke="#999999" points="601.5,-19 541.5,-19 541.5,0 601.5,0 601.5,-19"/>
<text text-anchor="middle" x="571.5" y="-7" font-family="Helvetica,sans-Serif" font-size="10.00">concepts</text>
</a>
</g>
</g>
<!-- Node5&#45;&gt;Node6 -->
<g id="edge5" class="edge">
<title>Node5&#45;&gt;Node6</title>
<path fill="none" stroke="#63b8ff" d="M563.15,-54.75C564.46,-47.8 566.34,-37.85 567.98,-29.13"/>
<polygon fill="#63b8ff" stroke="#63b8ff" points="571.46,-29.56 569.88,-19.09 564.59,-28.27 571.46,-29.56"/>
</g>
<!-- Node7 -->
<g id="node7" class="node">
<title>Node7</title>
<g id="a_node7"><a xlink:title=" ">
<polygon fill="#e0e0e0" stroke="#999999" points="523,-19 470,-19 470,0 523,0 523,-19"/>
<text text-anchor="middle" x="496.5" y="-7" font-family="Helvetica,sans-Serif" font-size="10.00">cstddef</text>
</a>
</g>
</g>
<!-- Node5&#45;&gt;Node7 -->
<g id="edge6" class="edge">
<title>Node5&#45;&gt;Node7</title>
<path fill="none" stroke="#63b8ff" d="M551.06,-54.98C541.35,-47.07 526.68,-35.11 515,-25.58"/>
<polygon fill="#63b8ff" stroke="#63b8ff" points="517.1,-22.78 507.13,-19.17 512.67,-28.2 517.1,-22.78"/>
</g>
<!-- Node8 -->
<g id="node8" class="node">
<title>Node8</title>
<g id="a_node8"><a xlink:title=" ">
<polygon fill="#e0e0e0" stroke="#999999" points="688.5,-19 638.5,-19 638.5,0 688.5,0 688.5,-19"/>
<text text-anchor="middle" x="663.5" y="-7" font-family="Helvetica,sans-Serif" font-size="10.00">cstdint</text>
</a>
</g>
</g>
<!-- Node5&#45;&gt;Node8 -->
<g id="edge7" class="edge">
<title>Node5&#45;&gt;Node8</title>
<path fill="none" stroke="#63b8ff" d="M577.89,-54.98C594.07,-46.57 619.07,-33.59 637.88,-23.81"/>
<polygon fill="#63b8ff" stroke="#63b8ff" points="639.55,-26.89 646.81,-19.17 636.33,-20.68 639.55,-26.89"/>
</g>
<!-- Node12&#45;&gt;Node8 -->
<g id="edge13" class="edge">
<title>Node12&#45;&gt;Node8</title>
<path fill="none" stroke="#63b8ff" d="M630.27,-164.87C638.15,-156.51 649.26,-143.06 654.5,-129 666.95,-95.61 666.7,-53.33 665.22,-29.36"/>
<polygon fill="#63b8ff" stroke="#63b8ff" points="668.69,-28.88 664.44,-19.18 661.71,-29.42 668.69,-28.88"/>
</g>
<!-- Node12&#45;&gt;Node13 -->
<g id="edge14" class="edge">
<title>Node12&#45;&gt;Node13</title>
<path fill="none" stroke="#63b8ff" d="M602.54,-164.98C583.47,-156.42 553.84,-143.11 531.95,-133.28"/>
<polygon fill="#63b8ff" stroke="#63b8ff" points="533.36,-130.07 522.8,-129.17 530.49,-136.46 533.36,-130.07"/>
</g>
<!-- Node14 -->
<g id="node14" class="node">
<title>Node14</title>
<g id="a_node14"><a xlink:title=" ">
<polygon fill="#e0e0e0" stroke="#999999" points="645.5,-129 589.5,-129 589.5,-110 645.5,-110 645.5,-129"/>
<text text-anchor="middle" x="617.5" y="-117" font-family="Helvetica,sans-Serif" font-size="10.00">sstream</text>
</a>
</g>
</g>
<!-- Node12&#45;&gt;Node14 -->
<g id="edge15" class="edge">
<title>Node12&#45;&gt;Node14</title>
<path fill="none" stroke="#63b8ff" d="M620.84,-164.75C620.32,-157.8 619.56,-147.85 618.91,-139.13"/>
<polygon fill="#63b8ff" stroke="#63b8ff" points="622.39,-138.8 618.15,-129.09 615.41,-139.32 622.39,-138.8"/>
</g>
<!-- Node15&#45;&gt;Node5 -->
<g id="edge17" class="edge">
<title>Node15&#45;&gt;Node5</title>
<path fill="none" stroke="#63b8ff" d="M435.64,-165C439.4,-151.67 448.35,-125.77 464.5,-110 479.85,-95.01 501.17,-84.48 519.91,-77.43"/>
<polygon fill="#63b8ff" stroke="#63b8ff" points="521.17,-80.7 529.43,-74.06 518.83,-74.1 521.17,-80.7"/>
</g>
<!-- Node15&#45;&gt;Node13 -->
<g id="edge18" class="edge">
<title>Node15&#45;&gt;Node13</title>
<path fill="none" stroke="#63b8ff" d="M444.75,-164.98C455.3,-157 471.3,-144.88 483.94,-135.31"/>
<polygon fill="#63b8ff" stroke="#63b8ff" points="486.19,-138 492.05,-129.17 481.96,-132.42 486.19,-138"/>
</g>
<!-- Node16 -->
<g id="node16" class="node">
<title>Node16</title>
<g id="a_node16"><a xlink:title=" ">
<polygon fill="#e0e0e0" stroke="#999999" points="351.5,-129 295.5,-129 295.5,-110 351.5,-110 351.5,-129"/>
<text text-anchor="middle" x="323.5" y="-117" font-family="Helvetica,sans-Serif" font-size="10.00">stddef.h</text>
</a>
</g>
</g>
<!-- Node15&#45;&gt;Node16 -->
<g id="edge19" class="edge">
<title>Node15&#45;&gt;Node16</title>
<path fill="none" stroke="#63b8ff" d="M415.83,-164.98C398.21,-156.5 370.92,-143.35 350.57,-133.54"/>
<polygon fill="#63b8ff" stroke="#63b8ff" points="352.02,-130.36 341.49,-129.17 348.98,-136.66 352.02,-130.36"/>
</g>
<!-- Node17 -->
<g id="node17" class="node">
<title>Node17</title>
<g id="a_node17"><a xlink:title=" ">
<polygon fill="#e0e0e0" stroke="#999999" points="417,-129 370,-129 370,-110 417,-110 417,-129"/>
<text text-anchor="middle" x="393.5" y="-117" font-family="Helvetica,sans-Serif" font-size="10.00">vector</text>
</a>
</g>
</g>
<!-- Node15&#45;&gt;Node17 -->
<g id="edge20" class="edge">
<title>Node15&#45;&gt;Node17</title>
<path fill="none" stroke="#63b8ff" d="M426.89,-164.75C421.24,-157.26 412.96,-146.28 406.05,-137.13"/>
<polygon fill="#63b8ff" stroke="#63b8ff" points="408.8,-134.96 399.98,-129.09 403.21,-139.18 408.8,-134.96"/>
</g>
<!-- Node18&#45;&gt;Node9 -->
<g id="edge23" class="edge">
<title>Node18&#45;&gt;Node9</title>
<path fill="none" stroke="#63b8ff" d="M213.28,-171.38C169.87,-166.43 69.78,-152.67 46.5,-129 35.01,-117.31 32.05,-98.46 31.64,-84.32"/>
<polygon fill="#63b8ff" stroke="#63b8ff" points="35.14,-84.26 31.74,-74.23 28.14,-84.19 35.14,-84.26"/>
</g>
<!-- Node18&#45;&gt;Node16 -->
<g id="edge24" class="edge">
<title>Node18&#45;&gt;Node16</title>
<path fill="none" stroke="#63b8ff" d="M247.96,-164.98C261.92,-156.77 283.29,-144.18 299.75,-134.49"/>
<polygon fill="#63b8ff" stroke="#63b8ff" points="301.94,-137.26 308.78,-129.17 298.38,-131.23 301.94,-137.26"/>
</g>
</g>
</svg>
        <g id="navigator" transform="translate(0 0)" fill="#404254">
                <rect fill="#f2f5e9" fill-opacity="0.5" stroke="#606060" stroke-width=".5" x="0" y="0" width="60" height="60"/>
                <use id="zoomplus" xlink:href="#zoomPlus" x="17" y="9" onmousedown="handleZoom(evt,'in')"/>
                <use id="zoomminus" xlink:href="#zoomMin" x="42" y="9" onmousedown="handleZoom(evt,'out')"/>
                <use id="reset" xlink:href="#resetDef" x="30" y="36" onmousedown="handleReset()"/>
                <g id="arrowUp" xlink:href="#dirArrow" transform="translate(30 24)" onmousedown="handlePan(0,-1)">
                  <use xlink:href="#rim" fill="#404040">
                        <set attributeName="fill" to="#808080" begin="arrowUp.mouseover" end="arrowUp.mouseout"/>
                  </use>
                  <path fill="none" stroke="white" stroke-width="1.5" d="M0,-3.0v7 M-2.5,-0.5L0,-3.0L2.5,-0.5"/>
                </g>
                <g id="arrowRight" xlink:href="#dirArrow" transform="rotate(90) translate(36 -43)" onmousedown="handlePan(1,0)">
                  <use xlink:href="#rim" fill="#404040">
                        <set attributeName="fill" to="#808080" begin="arrowRight.mouseover" end="arrowRight.mouseout"/>
                  </use>
                  <path fill="none" stroke="white" stroke-width="1.5" d="M0,-3.0v7 M-2.5,-0.5L0,-3.0L2.5,-0.5"/>
                </g>
                <g id="arrowDown" xlink:href="#dirArrow" transform="rotate(180) translate(-30 -48)" onmousedown="handlePan(0,1)">
                  <use xlink:href="#rim" fill="#404040">
                        <set attributeName="fill" to="#808080" begin="arrowDown.mouseover" end="arrowDown.mouseout"/>
                  </use>
                  <path fill="none" stroke="white" stroke-width="1.5" d="M0,-3.0v7 M-2.5,-0.5L0,-3.0L2.5,-0.5"/>
                </g>
                <g id="arrowLeft" xlink:href="#dirArrow" transform="rotate(270) translate(-36 17)" onmousedown="handlePan(-1,0)">
                  <use xlink:href="#rim" fill="#404040">
                        <set attributeName="fill" to="#808080" begin="arrowLeft.mouseover" end="arrowLeft.mouseout"/>
                  </use>
                  <path fill="none" stroke="white" stroke-width="1.5" d="M0,-3.0v7 M-2.5,-0.5L0,-3.0L2.5,-0.5"/>
                </g>
        </g>
        <svg viewBox="0 0 15 15" width="100%" height="30px" preserveAspectRatio="xMaxYMin meet">
         <g id="arrow_out" transform="scale(0.3 0.3)">
          <a xlink:href="6502cpu_8cpp__incl_org.svg" target="_base">
           <rect id="button" ry="5" rx="5" y="6" x="6" height="38" width="38"
                fill="#f2f5e9" fill-opacity="0.5" stroke="#606060" stroke-width="1.0"/>
           <path id="arrow"
             d="M 11.500037,31.436501 C 11.940474,20.09759 22.043105,11.32322 32.158766,21.979434 L 37.068811,17.246167 C 37.068811,17.246167 37.088388,32 37.088388,32 L 22.160133,31.978069 C 22.160133,31.978069 26.997745,27.140456 26.997745,27.140456 C 18.528582,18.264221 13.291696,25.230495 11.500037,31.436501 z"
             style="fill:#404040;"/>
          </a>
         </g>
        </svg>
</svg>
