<?xml version="1.0" encoding="UTF-8" standalone="no"?>
<!DOCTYPE svg PUBLIC "-//W3C//DTD SVG 1.1//EN"
 "http://www.w3.org/Graphics/SVG/1.1/DTD/svg11.dtd">
<!-- Generated by graphviz version 2.43.0 (0)
 -->
<!-- Title: 6502isa.h Pages: 1 -->
<svg width="329pt" height="192pt"
 viewBox="0.00 0.00 328.50 192.00" xmlns="http://www.w3.org/2000/svg" xmlns:xlink="http://www.w3.org/1999/xlink">
<g id="graph0" class="graph" transform="scale(1 1) rotate(0) translate(4 188)">
<title>6502isa.h</title>
<!-- Node1 -->
<g id="node1" class="node">
<title>Node1</title>
<g id="a_node1"><a xlink:title=" ">
<polygon fill="#999999" stroke="#666666" points="117.5,-184 53.5,-184 53.5,-165 117.5,-165 117.5,-184"/>
<text text-anchor="middle" x="85.5" y="-172" font-family="Helvetica,sans-Serif" font-size="10.00">6502isa.h</text>
</a>
</g>
</g>
<!-- Node2 -->
<g id="node2" class="node">
<title>Node2</title>
<g id="a_node2"><a xlink:href="6502cpu_8h.html" target="_top" xlink:title=" ">
<polygon fill="white" stroke="#666666" points="166,-129 99,-129 99,-110 166,-110 166,-129"/>
<text text-anchor="middle" x="132.5" y="-117" font-family="Helvetica,sans-Serif" font-size="10.00">6502cpu.h</text>
</a>
</g>
</g>
<!-- Node1&#45;&gt;Node2 -->
<g id="edge1" class="edge">
<title>Node1&#45;&gt;Node2</title>
<path fill="none" stroke="#63b8ff" d="M99.92,-157.24C108.16,-147.95 118.15,-136.68 124.88,-129.09"/>
<polygon fill="#63b8ff" stroke="#63b8ff" points="97.28,-154.94 93.26,-164.75 102.51,-159.59 97.28,-154.94"/>
</g>
<!-- Node4 -->
<g id="node4" class="node">
<title>Node4</title>
<g id="a_node4"><a xlink:href="6502isa_8cpp.html" target="_top" xlink:title=" ">
<polygon fill="white" stroke="#666666" points="75,-74 0,-74 0,-55 75,-55 75,-74"/>
<text text-anchor="middle" x="37.5" y="-62" font-family="Helvetica,sans-Serif" font-size="10.00">6502isa.cpp</text>
</a>
</g>
</g>
<!-- Node1&#45;&gt;Node4 -->
<g id="edge8" class="edge">
<title>Node1&#45;&gt;Node4</title>
<path fill="none" stroke="#63b8ff" d="M77.47,-155.44C67.02,-131.92 49.16,-91.73 41.35,-74.16"/>
<polygon fill="#63b8ff" stroke="#63b8ff" points="74.31,-156.95 81.57,-164.66 80.71,-154.1 74.31,-156.95"/>
</g>
<!-- Node3 -->
<g id="node3" class="node">
<title>Node3</title>
<g id="a_node3"><a xlink:href="6502cpu_8cpp.html" target="_top" xlink:title=" ">
<polygon fill="white" stroke="#666666" points="171.5,-74 93.5,-74 93.5,-55 171.5,-55 171.5,-74"/>
<text text-anchor="middle" x="132.5" y="-62" font-family="Helvetica,sans-Serif" font-size="10.00">6502cpu.cpp</text>
</a>
</g>
</g>
<!-- Node2&#45;&gt;Node3 -->
<g id="edge2" class="edge">
<title>Node2&#45;&gt;Node3</title>
<path fill="none" stroke="#63b8ff" d="M132.5,-99.66C132.5,-90.93 132.5,-80.99 132.5,-74.09"/>
<polygon fill="#63b8ff" stroke="#63b8ff" points="129,-99.75 132.5,-109.75 136,-99.75 129,-99.75"/>
</g>
<!-- Node2&#45;&gt;Node4 -->
<g id="edge3" class="edge">
<title>Node2&#45;&gt;Node4</title>
<path fill="none" stroke="#63b8ff" d="M108.24,-104.97C90.87,-95.28 68.01,-82.52 53.04,-74.17"/>
<polygon fill="#63b8ff" stroke="#63b8ff" points="106.8,-108.17 117.24,-109.98 110.21,-102.06 106.8,-108.17"/>
</g>
<!-- Node5 -->
<g id="node5" class="node">
<title>Node5</title>
<g id="a_node5"><a xlink:href="debugger_8h.html" target="_top" xlink:title=" ">
<polygon fill="white" stroke="#666666" points="261,-74 190,-74 190,-55 261,-55 261,-74"/>
<text text-anchor="middle" x="225.5" y="-62" font-family="Helvetica,sans-Serif" font-size="10.00">debugger.h</text>
</a>
</g>
</g>
<!-- Node2&#45;&gt;Node5 -->
<g id="edge4" class="edge">
<title>Node2&#45;&gt;Node5</title>
<path fill="none" stroke="#63b8ff" d="M156.25,-104.97C173.25,-95.28 195.63,-82.52 210.29,-74.17"/>
<polygon fill="#63b8ff" stroke="#63b8ff" points="154.4,-101.99 147.44,-109.98 157.86,-108.07 154.4,-101.99"/>
</g>
<!-- Node7 -->
<g id="node7" class="node">
<title>Node7</title>
<g id="a_node7"><a xlink:href="main_8cpp.html" target="_top" xlink:title=" ">
<polygon fill="white" stroke="#666666" points="320.5,-19 258.5,-19 258.5,0 320.5,0 320.5,-19"/>
<text text-anchor="middle" x="289.5" y="-7" font-family="Helvetica,sans-Serif" font-size="10.00">main.cpp</text>
</a>
</g>
</g>
<!-- Node2&#45;&gt;Node7 -->
<g id="edge7" class="edge">
<title>Node2&#45;&gt;Node7</title>
<path fill="none" stroke="#63b8ff" d="M175.96,-114.99C206.3,-110.29 245.66,-99.37 270.5,-74 285.31,-58.87 288.65,-32.69 289.35,-19.15"/>
<polygon fill="#63b8ff" stroke="#63b8ff" points="175.48,-111.52 166.05,-116.35 176.43,-118.46 175.48,-111.52"/>
</g>
<!-- Node6 -->
<g id="node6" class="node">
<title>Node6</title>
<g id="a_node6"><a xlink:href="debugger_8cpp.html" target="_top" xlink:title=" ">
<polygon fill="white" stroke="#666666" points="240.5,-19 158.5,-19 158.5,0 240.5,0 240.5,-19"/>
<text text-anchor="middle" x="199.5" y="-7" font-family="Helvetica,sans-Serif" font-size="10.00">debugger.cpp</text>
</a>
</g>
</g>
<!-- Node5&#45;&gt;Node6 -->
<g id="edge5" class="edge">
<title>Node5&#45;&gt;Node6</title>
<path fill="none" stroke="#63b8ff" d="M216.68,-45.53C212.3,-36.6 207.21,-26.22 203.71,-19.09"/>
<polygon fill="#63b8ff" stroke="#63b8ff" points="213.66,-47.31 221.21,-54.75 219.94,-44.23 213.66,-47.31"/>
</g>
<!-- Node5&#45;&gt;Node7 -->
<g id="edge6" class="edge">
<title>Node5&#45;&gt;Node7</title>
<path fill="none" stroke="#63b8ff" d="M243.49,-48.6C254.96,-39.11 269.41,-27.13 279.03,-19.17"/>
<polygon fill="#63b8ff" stroke="#63b8ff" points="241.25,-45.91 235.78,-54.98 245.72,-51.3 241.25,-45.91"/>
</g>
</g>
</svg>
