<?xml version="1.0" encoding="UTF-8" standalone="no"?>
<!DOCTYPE svg PUBLIC "-//W3C//DTD SVG 1.1//EN"
 "http://www.w3.org/Graphics/SVG/1.1/DTD/svg11.dtd">
<!-- Generated by graphviz version 2.43.0 (0)
 -->
<!-- Title: address.h Pages: 1 -->
<svg width="491pt" height="302pt"
 viewBox="0.00 0.00 491.35 302.00" xmlns="http://www.w3.org/2000/svg" xmlns:xlink="http://www.w3.org/1999/xlink">
<g id="graph0" class="graph" transform="scale(1 1) rotate(0) translate(4 298)">
<title>address.h</title>
<!-- Node1 -->
<g id="node1" class="node">
<title>Node1</title>
<g id="a_node1"><a xlink:title=" ">
<polygon fill="#999999" stroke="#666666" points="251.85,-294 187.85,-294 187.85,-275 251.85,-275 251.85,-294"/>
<text text-anchor="middle" x="219.85" y="-282" font-family="Helvetica,sans-Serif" font-size="10.00">address.h</text>
</a>
</g>
</g>
<!-- Node2 -->
<g id="node2" class="node">
<title>Node2</title>
<g id="a_node2"><a xlink:href="6502cpu_8cpp.html" target="_top" xlink:title=" ">
<polygon fill="white" stroke="#666666" points="339.85,-74 261.85,-74 261.85,-55 339.85,-55 339.85,-74"/>
<text text-anchor="middle" x="300.85" y="-62" font-family="Helvetica,sans-Serif" font-size="10.00">6502cpu.cpp</text>
</a>
</g>
</g>
<!-- Node1&#45;&gt;Node2 -->
<g id="edge1" class="edge">
<title>Node1&#45;&gt;Node2</title>
<path fill="none" stroke="#63b8ff" d="M226.57,-265.42C243.15,-220.79 285.55,-106.67 297.61,-74.22"/>
<polygon fill="#63b8ff" stroke="#63b8ff" points="223.23,-264.36 223.02,-274.95 229.79,-266.8 223.23,-264.36"/>
</g>
<!-- Node3 -->
<g id="node3" class="node">
<title>Node3</title>
<g id="a_node3"><a xlink:href="6502cpu_8h.html" target="_top" xlink:title=" ">
<polygon fill="white" stroke="#666666" points="391.35,-129 324.35,-129 324.35,-110 391.35,-110 391.35,-129"/>
<text text-anchor="middle" x="357.85" y="-117" font-family="Helvetica,sans-Serif" font-size="10.00">6502cpu.h</text>
</a>
</g>
</g>
<!-- Node1&#45;&gt;Node3 -->
<g id="edge2" class="edge">
<title>Node1&#45;&gt;Node3</title>
<path fill="none" stroke="#63b8ff" d="M262.17,-280.09C316.84,-272.99 408.13,-251.14 434.85,-184 445.29,-157.76 411.22,-139.19 385.08,-129.16"/>
<polygon fill="#63b8ff" stroke="#63b8ff" points="261.61,-276.63 252.09,-281.29 262.43,-283.58 261.61,-276.63"/>
</g>
<!-- Node4 -->
<g id="node4" class="node">
<title>Node4</title>
<g id="a_node4"><a xlink:href="6502isa_8cpp.html" target="_top" xlink:title=" ">
<polygon fill="white" stroke="#666666" points="483.35,-74 408.35,-74 408.35,-55 483.35,-55 483.35,-74"/>
<text text-anchor="middle" x="445.85" y="-62" font-family="Helvetica,sans-Serif" font-size="10.00">6502isa.cpp</text>
</a>
</g>
</g>
<!-- Node1&#45;&gt;Node4 -->
<g id="edge9" class="edge">
<title>Node1&#45;&gt;Node4</title>
<path fill="none" stroke="#63b8ff" d="M262.07,-282.95C304.29,-280.45 369.33,-271.1 414.85,-239 459.04,-207.83 458.77,-182.47 466.85,-129 468.11,-120.65 468.69,-118.24 466.85,-110 463.9,-96.83 456.59,-82.97 451.43,-74.28"/>
<polygon fill="#63b8ff" stroke="#63b8ff" points="261.67,-279.46 251.85,-283.45 262.01,-286.45 261.67,-279.46"/>
</g>
<!-- Node5 -->
<g id="node5" class="node">
<title>Node5</title>
<g id="a_node5"><a xlink:href="debugger_8h.html" target="_top" xlink:title=" ">
<polygon fill="white" stroke="#666666" points="243.35,-74 172.35,-74 172.35,-55 243.35,-55 243.35,-74"/>
<text text-anchor="middle" x="207.85" y="-62" font-family="Helvetica,sans-Serif" font-size="10.00">debugger.h</text>
</a>
</g>
</g>
<!-- Node1&#45;&gt;Node5 -->
<g id="edge10" class="edge">
<title>Node1&#45;&gt;Node5</title>
<path fill="none" stroke="#63b8ff" d="M182.47,-271.51C108.48,-245.87 -44.67,-182.13 12.85,-110 32.39,-85.5 121.31,-73.43 172.07,-68.44"/>
<polygon fill="#63b8ff" stroke="#63b8ff" points="181.76,-274.97 192.35,-274.87 184.01,-268.34 181.76,-274.97"/>
</g>
<!-- Node8 -->
<g id="node8" class="node">
<title>Node8</title>
<g id="a_node8"><a xlink:href="gp__memory_8cpp.html" target="_top" xlink:title=" ">
<polygon fill="white" stroke="#666666" points="115.85,-129 21.85,-129 21.85,-110 115.85,-110 115.85,-129"/>
<text text-anchor="middle" x="68.85" y="-117" font-family="Helvetica,sans-Serif" font-size="10.00">gp_memory.cpp</text>
</a>
</g>
</g>
<!-- Node1&#45;&gt;Node8 -->
<g id="edge11" class="edge">
<title>Node1&#45;&gt;Node8</title>
<path fill="none" stroke="#63b8ff" d="M197.24,-269.42C170.82,-252.03 127.11,-220.27 98.85,-184 85.36,-166.69 76.01,-142.33 71.64,-129.39"/>
<polygon fill="#63b8ff" stroke="#63b8ff" points="195.51,-272.47 205.81,-274.95 199.31,-266.59 195.51,-272.47"/>
</g>
<!-- Node9 -->
<g id="node9" class="node">
<title>Node9</title>
<g id="a_node9"><a xlink:href="gp__memory_8h.html" target="_top" xlink:title=" ">
<polygon fill="white" stroke="#666666" points="191.35,-184 108.35,-184 108.35,-165 191.35,-165 191.35,-184"/>
<text text-anchor="middle" x="149.85" y="-172" font-family="Helvetica,sans-Serif" font-size="10.00">gp_memory.h</text>
</a>
</g>
</g>
<!-- Node1&#45;&gt;Node9 -->
<g id="edge12" class="edge">
<title>Node1&#45;&gt;Node9</title>
<path fill="none" stroke="#63b8ff" d="M208.55,-266.07C193.37,-242.64 166.95,-201.89 155.46,-184.16"/>
<polygon fill="#63b8ff" stroke="#63b8ff" points="205.74,-268.17 214.12,-274.66 211.62,-264.37 205.74,-268.17"/>
</g>
<!-- Node10 -->
<g id="node10" class="node">
<title>Node10</title>
<g id="a_node10"><a xlink:href="instruction__types_8h.html" target="_top" xlink:title=" ">
<polygon fill="white" stroke="#666666" points="373.85,-239 263.85,-239 263.85,-220 373.85,-220 373.85,-239"/>
<text text-anchor="middle" x="318.85" y="-227" font-family="Helvetica,sans-Serif" font-size="10.00">instruction_types.h</text>
</a>
</g>
</g>
<!-- Node1&#45;&gt;Node10 -->
<g id="edge17" class="edge">
<title>Node1&#45;&gt;Node10</title>
<path fill="none" stroke="#63b8ff" d="M244.63,-270.23C262.78,-260.51 286.91,-247.6 302.65,-239.17"/>
<polygon fill="#63b8ff" stroke="#63b8ff" points="242.92,-267.18 235.75,-274.98 246.22,-273.35 242.92,-267.18"/>
</g>
<!-- Node3&#45;&gt;Node2 -->
<g id="edge3" class="edge">
<title>Node3&#45;&gt;Node2</title>
<path fill="none" stroke="#63b8ff" d="M341.23,-103.04C331.11,-93.64 318.57,-81.98 310.17,-74.17"/>
<polygon fill="#63b8ff" stroke="#63b8ff" points="338.98,-105.74 348.69,-109.98 343.75,-100.61 338.98,-105.74"/>
</g>
<!-- Node3&#45;&gt;Node4 -->
<g id="edge4" class="edge">
<title>Node3&#45;&gt;Node4</title>
<path fill="none" stroke="#63b8ff" d="M380.77,-104.7C396.8,-95.04 417.72,-82.44 431.45,-74.17"/>
<polygon fill="#63b8ff" stroke="#63b8ff" points="378.75,-101.83 371.99,-109.98 382.36,-107.82 378.75,-101.83"/>
</g>
<!-- Node3&#45;&gt;Node5 -->
<g id="edge5" class="edge">
<title>Node3&#45;&gt;Node5</title>
<path fill="none" stroke="#63b8ff" d="M324.03,-106.55C296.17,-96.71 257.33,-82.98 232.39,-74.17"/>
<polygon fill="#63b8ff" stroke="#63b8ff" points="323.15,-109.95 333.75,-109.98 325.48,-103.35 323.15,-109.95"/>
</g>
<!-- Node7 -->
<g id="node7" class="node">
<title>Node7</title>
<g id="a_node7"><a xlink:href="main_8cpp.html" target="_top" xlink:title=" ">
<polygon fill="white" stroke="#666666" points="206.85,-19 144.85,-19 144.85,0 206.85,0 206.85,-19"/>
<text text-anchor="middle" x="175.85" y="-7" font-family="Helvetica,sans-Serif" font-size="10.00">main.cpp</text>
</a>
</g>
</g>
<!-- Node3&#45;&gt;Node7 -->
<g id="edge8" class="edge">
<title>Node3&#45;&gt;Node7</title>
<path fill="none" stroke="#63b8ff" d="M360.31,-99.88C361.07,-85.85 359.63,-67.05 348.85,-55 344.05,-49.64 255.37,-28.68 206.89,-17.55"/>
<polygon fill="#63b8ff" stroke="#63b8ff" points="356.82,-99.59 359.35,-109.88 363.79,-100.26 356.82,-99.59"/>
</g>
<!-- Node6 -->
<g id="node6" class="node">
<title>Node6</title>
<g id="a_node6"><a xlink:href="debugger_8cpp.html" target="_top" xlink:title=" ">
<polygon fill="white" stroke="#666666" points="306.85,-19 224.85,-19 224.85,0 306.85,0 306.85,-19"/>
<text text-anchor="middle" x="265.85" y="-7" font-family="Helvetica,sans-Serif" font-size="10.00">debugger.cpp</text>
</a>
</g>
</g>
<!-- Node5&#45;&gt;Node6 -->
<g id="edge6" class="edge">
<title>Node5&#45;&gt;Node6</title>
<path fill="none" stroke="#63b8ff" d="M224.76,-48.04C235.05,-38.64 247.81,-26.98 256.36,-19.17"/>
<polygon fill="#63b8ff" stroke="#63b8ff" points="222.19,-45.66 217.17,-54.98 226.91,-50.82 222.19,-45.66"/>
</g>
<!-- Node5&#45;&gt;Node7 -->
<g id="edge7" class="edge">
<title>Node5&#45;&gt;Node7</title>
<path fill="none" stroke="#63b8ff" d="M197.34,-46.1C191.87,-37.04 185.43,-26.37 181.03,-19.09"/>
<polygon fill="#63b8ff" stroke="#63b8ff" points="194.4,-48 202.56,-54.75 200.39,-44.38 194.4,-48"/>
</g>
<!-- Node9&#45;&gt;Node3 -->
<g id="edge13" class="edge">
<title>Node9&#45;&gt;Node3</title>
<path fill="none" stroke="#63b8ff" d="M193.26,-162.44C232.2,-152.52 288.54,-138.16 324.17,-129.08"/>
<polygon fill="#63b8ff" stroke="#63b8ff" points="192.09,-159.12 183.27,-164.98 193.82,-165.91 192.09,-159.12"/>
</g>
<!-- Node9&#45;&gt;Node5 -->
<g id="edge14" class="edge">
<title>Node9&#45;&gt;Node5</title>
<path fill="none" stroke="#63b8ff" d="M159.38,-155.76C171.98,-132.28 193.72,-91.81 203.2,-74.16"/>
<polygon fill="#63b8ff" stroke="#63b8ff" points="156.24,-154.2 154.59,-164.66 162.41,-157.51 156.24,-154.2"/>
</g>
<!-- Node9&#45;&gt;Node7 -->
<g id="edge16" class="edge">
<title>Node9&#45;&gt;Node7</title>
<path fill="none" stroke="#63b8ff" d="M150.9,-154.5C152.45,-130.97 155.93,-89.73 162.85,-55 165.37,-42.37 169.81,-28.15 172.8,-19.25"/>
<polygon fill="#63b8ff" stroke="#63b8ff" points="147.39,-154.6 150.28,-164.8 154.38,-155.03 147.39,-154.6"/>
</g>
<!-- Node9&#45;&gt;Node8 -->
<g id="edge15" class="edge">
<title>Node9&#45;&gt;Node8</title>
<path fill="none" stroke="#63b8ff" d="M128.34,-159.42C113.64,-149.81 94.62,-137.37 82.1,-129.17"/>
<polygon fill="#63b8ff" stroke="#63b8ff" points="126.55,-162.44 136.83,-164.98 130.38,-156.58 126.55,-162.44"/>
</g>
<!-- Node10&#45;&gt;Node2 -->
<g id="edge18" class="edge">
<title>Node10&#45;&gt;Node2</title>
<path fill="none" stroke="#63b8ff" d="M316.74,-209.37C312.83,-174.03 304.63,-99.79 301.82,-74.31"/>
<polygon fill="#63b8ff" stroke="#63b8ff" points="313.3,-210.18 317.88,-219.74 320.26,-209.41 313.3,-210.18"/>
</g>
<!-- Node10&#45;&gt;Node3 -->
<g id="edge19" class="edge">
<title>Node10&#45;&gt;Node3</title>
<path fill="none" stroke="#63b8ff" d="M325.48,-210.12C333.99,-186.56 348.4,-146.66 354.72,-129.16"/>
<polygon fill="#63b8ff" stroke="#63b8ff" points="322.14,-209.07 322.04,-219.66 328.73,-211.45 322.14,-209.07"/>
</g>
<!-- Node10&#45;&gt;Node4 -->
<g id="edge20" class="edge">
<title>Node10&#45;&gt;Node4</title>
<path fill="none" stroke="#63b8ff" d="M383.86,-217.29C403.15,-210.75 422.42,-200.4 434.85,-184 460.31,-150.41 452.18,-95.1 447.82,-74.02"/>
<polygon fill="#63b8ff" stroke="#63b8ff" points="382.64,-214.01 374.12,-220.29 384.7,-220.7 382.64,-214.01"/>
</g>
<!-- Node10&#45;&gt;Node5 -->
<g id="edge24" class="edge">
<title>Node10&#45;&gt;Node5</title>
<path fill="none" stroke="#63b8ff" d="M307.05,-211.18C283.52,-176.62 231.5,-100.23 213.85,-74.31"/>
<polygon fill="#63b8ff" stroke="#63b8ff" points="304.36,-213.44 312.88,-219.74 310.14,-209.5 304.36,-213.44"/>
</g>
<!-- Node11 -->
<g id="node11" class="node">
<title>Node11</title>
<g id="a_node11"><a xlink:href="6502isa_8h.html" target="_top" xlink:title=" ">
<polygon fill="white" stroke="#666666" points="425.85,-184 361.85,-184 361.85,-165 425.85,-165 425.85,-184"/>
<text text-anchor="middle" x="393.85" y="-172" font-family="Helvetica,sans-Serif" font-size="10.00">6502isa.h</text>
</a>
</g>
</g>
<!-- Node10&#45;&gt;Node11 -->
<g id="edge21" class="edge">
<title>Node10&#45;&gt;Node11</title>
<path fill="none" stroke="#63b8ff" d="M339.15,-214.15C352.71,-204.57 370.09,-192.29 381.58,-184.17"/>
<polygon fill="#63b8ff" stroke="#63b8ff" points="337.04,-211.36 330.9,-219.98 341.08,-217.07 337.04,-211.36"/>
</g>
<!-- Node11&#45;&gt;Node3 -->
<g id="edge22" class="edge">
<title>Node11&#45;&gt;Node3</title>
<path fill="none" stroke="#63b8ff" d="M382.22,-156.39C376.03,-147.27 368.68,-136.45 363.68,-129.09"/>
<polygon fill="#63b8ff" stroke="#63b8ff" points="379.39,-158.44 387.9,-164.75 385.18,-154.51 379.39,-158.44"/>
</g>
<!-- Node11&#45;&gt;Node4 -->
<g id="edge23" class="edge">
<title>Node11&#45;&gt;Node4</title>
<path fill="none" stroke="#63b8ff" d="M402.54,-155.44C413.87,-131.92 433.22,-91.73 441.68,-74.16"/>
<polygon fill="#63b8ff" stroke="#63b8ff" points="399.29,-154.13 398.1,-164.66 405.59,-157.17 399.29,-154.13"/>
</g>
</g>
</svg>
