<?xml version="1.0" encoding="UTF-8" standalone="no"?>
<!DOCTYPE svg PUBLIC "-//W3C//DTD SVG 1.1//EN"
 "http://www.w3.org/Graphics/SVG/1.1/DTD/svg11.dtd">
<!-- Generated by graphviz version 2.43.0 (0)
 -->
<!-- Title: is_negative Pages: 1 -->
<svg width="183pt" height="64pt"
 viewBox="0.00 0.00 183.00 64.00" xmlns="http://www.w3.org/2000/svg" xmlns:xlink="http://www.w3.org/1999/xlink">
<g id="graph0" class="graph" transform="scale(1 1) rotate(0) translate(4 60)">
<title>is_negative</title>
<!-- Node1 -->
<g id="node1" class="node">
<title>Node1</title>
<g id="a_node1"><a xlink:title=" ">
<polygon fill="#999999" stroke="#666666" points="175,-37 102,-37 102,-18 175,-18 175,-37"/>
<text text-anchor="middle" x="138.5" y="-25" font-family="Helvetica,sans-Serif" font-size="10.00">is_negative</text>
</a>
</g>
</g>
<!-- Node2 -->
<g id="node2" class="node">
<title>Node2</title>
<g id="a_node2"><a xlink:href="byte__utils_8h.html#ab4e4bc2f3e223942027ecb1c5f8ccfb4" target="_top" xlink:title=" ">
<polygon fill="white" stroke="#666666" points="66,-56 0,-56 0,-37 66,-37 66,-56"/>
<text text-anchor="middle" x="33" y="-44" font-family="Helvetica,sans-Serif" font-size="10.00">operator+</text>
</a>
</g>
</g>
<!-- Node1&#45;&gt;Node2 -->
<g id="edge1" class="edge">
<title>Node1&#45;&gt;Node2</title>
<path fill="none" stroke="#63b8ff" d="M91.89,-35.87C83.23,-37.46 74.35,-39.09 66.21,-40.59"/>
<polygon fill="#63b8ff" stroke="#63b8ff" points="92.68,-39.29 101.88,-34.04 91.41,-32.4 92.68,-39.29"/>
</g>
<!-- Node3 -->
<g id="node3" class="node">
<title>Node3</title>
<g id="a_node3"><a xlink:href="byte__utils_8h.html#a53b123478e43b4d1dd61aa7e07efb914" target="_top" xlink:title=" ">
<polygon fill="white" stroke="#666666" points="64,-19 2,-19 2,0 64,0 64,-19"/>
<text text-anchor="middle" x="33" y="-7" font-family="Helvetica,sans-Serif" font-size="10.00">operator&#45;</text>
</a>
</g>
</g>
<!-- Node1&#45;&gt;Node3 -->
<g id="edge2" class="edge">
<title>Node1&#45;&gt;Node3</title>
<path fill="none" stroke="#63b8ff" d="M91.87,-19.56C82.49,-17.93 72.84,-16.25 64.17,-14.75"/>
<polygon fill="#63b8ff" stroke="#63b8ff" points="91.43,-23.04 101.88,-21.31 92.63,-16.14 91.43,-23.04"/>
</g>
</g>
</svg>
