<?xml version="1.0" encoding="UTF-8" standalone="no"?>
<!DOCTYPE svg PUBLIC "-//W3C//DTD SVG 1.1//EN"
 "http://www.w3.org/Graphics/SVG/1.1/DTD/svg11.dtd">
<!-- Generated by graphviz version 2.43.0 (0)
 -->
<!-- Title: byte_utils.h Pages: 1 -->
<svg width="339pt" height="192pt"
 viewBox="0.00 0.00 339.00 192.00" xmlns="http://www.w3.org/2000/svg" xmlns:xlink="http://www.w3.org/1999/xlink">
<g id="graph0" class="graph" transform="scale(1 1) rotate(0) translate(4 188)">
<title>byte_utils.h</title>
<!-- Node1 -->
<g id="node1" class="node">
<title>Node1</title>
<g id="a_node1"><a xlink:title=" ">
<polygon fill="#999999" stroke="#666666" points="202,-184 128,-184 128,-165 202,-165 202,-184"/>
<text text-anchor="middle" x="165" y="-172" font-family="Helvetica,sans-Serif" font-size="10.00">byte_utils.h</text>
</a>
</g>
</g>
<!-- Node2 -->
<g id="node2" class="node">
<title>Node2</title>
<g id="a_node2"><a xlink:href="6502cpu_8cpp.html" target="_top" xlink:title=" ">
<polygon fill="white" stroke="#666666" points="78,-74 0,-74 0,-55 78,-55 78,-74"/>
<text text-anchor="middle" x="39" y="-62" font-family="Helvetica,sans-Serif" font-size="10.00">6502cpu.cpp</text>
</a>
</g>
</g>
<!-- Node1&#45;&gt;Node2 -->
<g id="edge1" class="edge">
<title>Node1&#45;&gt;Node2</title>
<path fill="none" stroke="#63b8ff" d="M146.81,-157.91C119.89,-134.83 70.34,-92.37 49.1,-74.16"/>
<polygon fill="#63b8ff" stroke="#63b8ff" points="144.82,-160.81 154.69,-164.66 149.37,-155.5 144.82,-160.81"/>
</g>
<!-- Node3 -->
<g id="node3" class="node">
<title>Node3</title>
<g id="a_node3"><a xlink:href="6502cpu_8h.html" target="_top" xlink:title=" ">
<polygon fill="white" stroke="#666666" points="229.5,-129 162.5,-129 162.5,-110 229.5,-110 229.5,-129"/>
<text text-anchor="middle" x="196" y="-117" font-family="Helvetica,sans-Serif" font-size="10.00">6502cpu.h</text>
</a>
</g>
</g>
<!-- Node1&#45;&gt;Node3 -->
<g id="edge2" class="edge">
<title>Node1&#45;&gt;Node3</title>
<path fill="none" stroke="#63b8ff" d="M175.18,-156.1C180.47,-147.04 186.72,-136.37 190.98,-129.09"/>
<polygon fill="#63b8ff" stroke="#63b8ff" points="172.15,-154.35 170.12,-164.75 178.19,-157.88 172.15,-154.35"/>
</g>
<!-- Node4 -->
<g id="node4" class="node">
<title>Node4</title>
<g id="a_node4"><a xlink:href="6502isa_8cpp.html" target="_top" xlink:title=" ">
<polygon fill="white" stroke="#666666" points="171.5,-74 96.5,-74 96.5,-55 171.5,-55 171.5,-74"/>
<text text-anchor="middle" x="134" y="-62" font-family="Helvetica,sans-Serif" font-size="10.00">6502isa.cpp</text>
</a>
</g>
</g>
<!-- Node1&#45;&gt;Node4 -->
<g id="edge9" class="edge">
<title>Node1&#45;&gt;Node4</title>
<path fill="none" stroke="#63b8ff" d="M159.63,-154.8C152.86,-131.2 141.49,-91.58 136.49,-74.16"/>
<polygon fill="#63b8ff" stroke="#63b8ff" points="156.34,-156.02 162.46,-164.66 163.07,-154.08 156.34,-156.02"/>
</g>
<!-- Node5 -->
<g id="node5" class="node">
<title>Node5</title>
<g id="a_node5"><a xlink:href="debugger_8h.html" target="_top" xlink:title=" ">
<polygon fill="white" stroke="#666666" points="299.5,-74 228.5,-74 228.5,-55 299.5,-55 299.5,-74"/>
<text text-anchor="middle" x="264" y="-62" font-family="Helvetica,sans-Serif" font-size="10.00">debugger.h</text>
</a>
</g>
</g>
<!-- Node1&#45;&gt;Node5 -->
<g id="edge10" class="edge">
<title>Node1&#45;&gt;Node5</title>
<path fill="none" stroke="#63b8ff" d="M196.32,-160.44C210.92,-153.04 227.56,-142.52 239,-129 252.93,-112.54 259.69,-87.39 262.43,-74.22"/>
<polygon fill="#63b8ff" stroke="#63b8ff" points="194.6,-157.39 187.09,-164.86 197.62,-163.7 194.6,-157.39"/>
</g>
<!-- Node3&#45;&gt;Node2 -->
<g id="edge3" class="edge">
<title>Node3&#45;&gt;Node2</title>
<path fill="none" stroke="#63b8ff" d="M160.95,-106.67C131.68,-96.79 90.63,-82.93 64.42,-74.08"/>
<polygon fill="#63b8ff" stroke="#63b8ff" points="160.18,-110.1 170.78,-109.98 162.42,-103.47 160.18,-110.1"/>
</g>
<!-- Node3&#45;&gt;Node4 -->
<g id="edge4" class="edge">
<title>Node3&#45;&gt;Node4</title>
<path fill="none" stroke="#63b8ff" d="M178.25,-103.32C167.19,-93.87 153.37,-82.06 144.14,-74.17"/>
<polygon fill="#63b8ff" stroke="#63b8ff" points="176.16,-106.15 186.04,-109.98 180.71,-100.83 176.16,-106.15"/>
</g>
<!-- Node3&#45;&gt;Node5 -->
<g id="edge5" class="edge">
<title>Node3&#45;&gt;Node5</title>
<path fill="none" stroke="#63b8ff" d="M215.12,-103.6C227.3,-94.11 242.66,-82.13 252.88,-74.17"/>
<polygon fill="#63b8ff" stroke="#63b8ff" points="212.66,-101.08 206.93,-109.98 216.96,-106.6 212.66,-101.08"/>
</g>
<!-- Node7 -->
<g id="node7" class="node">
<title>Node7</title>
<g id="a_node7"><a xlink:href="main_8cpp.html" target="_top" xlink:title=" ">
<polygon fill="white" stroke="#666666" points="231,-19 169,-19 169,0 231,0 231,-19"/>
<text text-anchor="middle" x="200" y="-7" font-family="Helvetica,sans-Serif" font-size="10.00">main.cpp</text>
</a>
</g>
</g>
<!-- Node3&#45;&gt;Node7 -->
<g id="edge8" class="edge">
<title>Node3&#45;&gt;Node7</title>
<path fill="none" stroke="#63b8ff" d="M196.7,-99.48C197.58,-75.84 199.04,-36.5 199.68,-19.16"/>
<polygon fill="#63b8ff" stroke="#63b8ff" points="193.2,-99.54 196.33,-109.66 200.2,-99.8 193.2,-99.54"/>
</g>
<!-- Node6 -->
<g id="node6" class="node">
<title>Node6</title>
<g id="a_node6"><a xlink:href="debugger_8cpp.html" target="_top" xlink:title=" ">
<polygon fill="white" stroke="#666666" points="331,-19 249,-19 249,0 331,0 331,-19"/>
<text text-anchor="middle" x="290" y="-7" font-family="Helvetica,sans-Serif" font-size="10.00">debugger.cpp</text>
</a>
</g>
</g>
<!-- Node5&#45;&gt;Node6 -->
<g id="edge6" class="edge">
<title>Node5&#45;&gt;Node6</title>
<path fill="none" stroke="#63b8ff" d="M272.82,-45.53C277.2,-36.6 282.29,-26.22 285.79,-19.09"/>
<polygon fill="#63b8ff" stroke="#63b8ff" points="269.56,-44.23 268.29,-54.75 275.84,-47.31 269.56,-44.23"/>
</g>
<!-- Node5&#45;&gt;Node7 -->
<g id="edge7" class="edge">
<title>Node5&#45;&gt;Node7</title>
<path fill="none" stroke="#63b8ff" d="M246.01,-48.6C234.54,-39.11 220.09,-27.13 210.47,-19.17"/>
<polygon fill="#63b8ff" stroke="#63b8ff" points="243.78,-51.3 253.72,-54.98 248.25,-45.91 243.78,-51.3"/>
</g>
</g>
</svg>
