<?xml version="1.0" encoding="UTF-8" standalone="no"?>
<!DOCTYPE svg PUBLIC "-//W3C//DTD SVG 1.1//EN"
 "http://www.w3.org/Graphics/SVG/1.1/DTD/svg11.dtd">
<!-- Generated by graphviz version 2.43.0 (0)
 -->
<!-- Title: CPU6502 Pages: 1 -->
<!--zoomable 650 -->
<svg id="main" version="1.1" xmlns="http://www.w3.org/2000/svg" xmlns:xlink="http://www.w3.org/1999/xlink" xml:space="preserve" onload="init(evt)">
<style type="text/css"><![CDATA[
.edge:hover path { stroke: red; }
.edge:hover polygon { stroke: red; fill: red; }
]]></style>
<script type="text/javascript"><![CDATA[
var edges = document.getElementsByTagName('g');
if (edges && edges.length) {
  for (var i=0;i<edges.length;i++) {
    if (edges[i].id.substr(0,4)=='edge') {
      edges[i].setAttribute('class','edge');
    }
  }
}
]]></script>
        <defs>
                <circle id="rim" cx="0" cy="0" r="7"/>
                <circle id="rim2" cx="0" cy="0" r="3.5"/>
                <g id="zoomPlus">
                        <use xlink:href="#rim" fill="#404040">
                                <set attributeName="fill" to="#808080" begin="zoomplus.mouseover" end="zoomplus.mouseout"/>
                        </use>
                        <path d="M-4,0h8M0,-4v8" fill="none" stroke="white" stroke-width="1.5" pointer-events="none"/>
                </g>
                <g id="zoomMin">
                        <use xlink:href="#rim" fill="#404040">
                                <set attributeName="fill" to="#808080" begin="zoomminus.mouseover" end="zoomminus.mouseout"/>
                        </use>
                        <path d="M-4,0h8" fill="none" stroke="white" stroke-width="1.5" pointer-events="none"/>
                </g>
                <g id="dirArrow">
                        <path fill="none" stroke="white" stroke-width="1.5" d="M0,-3.0v7 M-2.5,-0.5L0,-3.0L2.5,-0.5"/>
                </g>
               <g id="resetDef">
                       <use xlink:href="#rim2" fill="#404040">
                               <set attributeName="fill" to="#808080" begin="reset.mouseover" end="reset.mouseout"/>
                       </use>
               </g>
        </defs>

<script type="text/javascript">
var viewWidth = 292;
var viewHeight = 650;
var sectionId = 'dynsection-0';
</script>
<script xlink:href="svgpan.js"/>
<svg id="graph" class="graph">
<g id="viewport">
<title>CPU6502</title>
<!-- Node1 -->
<g id="node1" class="node">
<title>Node1</title>
<g id="a_node1"><a xlink:title="Class representing a W65C02S CPU.">
<polygon fill="#999999" stroke="#666666" points="80,-0.5 80,-233.5 167,-233.5 167,-0.5 80,-0.5"/>
<text text-anchor="middle" x="123.5" y="-221.5" font-family="Helvetica,sans-Serif" font-size="10.00">CPU6502</text>
<polyline fill="none" stroke="#666666" points="80,-214.5 167,-214.5 "/>
<text text-anchor="start" x="88" y="-202.5" font-family="Helvetica,sans-Serif" font-size="10.00">&#45; A</text>
<text text-anchor="start" x="88" y="-191.5" font-family="Helvetica,sans-Serif" font-size="10.00">&#45; X</text>
<text text-anchor="start" x="88" y="-180.5" font-family="Helvetica,sans-Serif" font-size="10.00">&#45; Y</text>
<text text-anchor="start" x="88" y="-169.5" font-family="Helvetica,sans-Serif" font-size="10.00">&#45; S</text>
<text text-anchor="start" x="88" y="-158.5" font-family="Helvetica,sans-Serif" font-size="10.00">&#45; isa_</text>
<text text-anchor="start" x="88" y="-147.5" font-family="Helvetica,sans-Serif" font-size="10.00">&#45; debug_</text>
<text text-anchor="start" x="88" y="-136.5" font-family="Helvetica,sans-Serif" font-size="10.00">&#45; verbose_</text>
<polyline fill="none" stroke="#666666" points="80,-129.5 167,-129.5 "/>
<text text-anchor="start" x="88" y="-117.5" font-family="Helvetica,sans-Serif" font-size="10.00">+ CPU6502()</text>
<text text-anchor="start" x="88" y="-106.5" font-family="Helvetica,sans-Serif" font-size="10.00">+ get_A()</text>
<text text-anchor="start" x="88" y="-95.5" font-family="Helvetica,sans-Serif" font-size="10.00">+ set_A()</text>
<text text-anchor="start" x="88" y="-84.5" font-family="Helvetica,sans-Serif" font-size="10.00">+ get_X()</text>
<text text-anchor="start" x="88" y="-73.5" font-family="Helvetica,sans-Serif" font-size="10.00">+ set_X()</text>
<text text-anchor="start" x="88" y="-62.5" font-family="Helvetica,sans-Serif" font-size="10.00">+ get_Y()</text>
<text text-anchor="start" x="88" y="-51.5" font-family="Helvetica,sans-Serif" font-size="10.00">+ set_Y()</text>
<text text-anchor="start" x="88" y="-40.5" font-family="Helvetica,sans-Serif" font-size="10.00">+ get_S()</text>
<text text-anchor="start" x="88" y="-29.5" font-family="Helvetica,sans-Serif" font-size="10.00">+ set_S()</text>
<text text-anchor="start" x="88" y="-18.5" font-family="Helvetica,sans-Serif" font-size="10.00">+ get_PC()</text>
<text text-anchor="start" x="88" y="-7.5" font-family="Helvetica,sans-Serif" font-size="10.00">and 16 more...</text>
</a>
</g>
</g>
<!-- Node2 -->
<g id="node2" class="node">
<title>Node2</title>
<g id="a_node2"><a xlink:href="classPSR.html" target="_top" xlink:title=" ">
<polygon fill="white" stroke="#666666" points="0,-292.5 0,-415.5 87,-415.5 87,-292.5 0,-292.5"/>
<text text-anchor="middle" x="43.5" y="-403.5" font-family="Helvetica,sans-Serif" font-size="10.00">PSR</text>
<polyline fill="none" stroke="#666666" points="0,-396.5 87,-396.5 "/>
<text text-anchor="start" x="8" y="-384.5" font-family="Helvetica,sans-Serif" font-size="10.00">&#45; psr_</text>
<polyline fill="none" stroke="#666666" points="0,-377.5 87,-377.5 "/>
<text text-anchor="start" x="8" y="-365.5" font-family="Helvetica,sans-Serif" font-size="10.00">+ PSR()</text>
<text text-anchor="start" x="8" y="-354.5" font-family="Helvetica,sans-Serif" font-size="10.00">+ PSR()</text>
<text text-anchor="start" x="8" y="-343.5" font-family="Helvetica,sans-Serif" font-size="10.00">+ get_bit()</text>
<text text-anchor="start" x="8" y="-332.5" font-family="Helvetica,sans-Serif" font-size="10.00">+ set_bit()</text>
<text text-anchor="start" x="8" y="-321.5" font-family="Helvetica,sans-Serif" font-size="10.00">+ update_bit()</text>
<text text-anchor="start" x="8" y="-310.5" font-family="Helvetica,sans-Serif" font-size="10.00">+ get()</text>
<text text-anchor="start" x="8" y="-299.5" font-family="Helvetica,sans-Serif" font-size="10.00">+ set()</text>
</a>
</g>
</g>
<!-- Node2&#45;&gt;Node1 -->
<g id="edge1" class="edge">
<title>Node2&#45;&gt;Node1</title>
<path fill="none" stroke="#404040" d="M64.1,-292.48C69.1,-277.79 74.64,-261.52 80.26,-245"/>
<polygon fill="none" stroke="#404040" points="80.3,-244.9 78.45,-237.94 84.17,-233.54 86.02,-240.51 80.3,-244.9"/>
<text text-anchor="middle" x="83" y="-255" font-family="Helvetica,sans-Serif" font-size="10.00"> &#45;P</text>
</g>
<!-- Node3 -->
<g id="node3" class="node">
<title>Node3</title>
<g id="a_node3"><a xlink:href="classaddress.html" target="_top" xlink:title=" ">
<polygon fill="white" stroke="#666666" points="75,-474.5 75,-641.5 204,-641.5 204,-474.5 75,-474.5"/>
<text text-anchor="middle" x="139.5" y="-629.5" font-family="Helvetica,sans-Serif" font-size="10.00">address</text>
<polyline fill="none" stroke="#666666" points="75,-622.5 204,-622.5 "/>
<text text-anchor="start" x="83" y="-610.5" font-family="Helvetica,sans-Serif" font-size="10.00">&#45; value_</text>
<polyline fill="none" stroke="#666666" points="75,-603.5 204,-603.5 "/>
<text text-anchor="start" x="83" y="-591.5" font-family="Helvetica,sans-Serif" font-size="10.00">+ address()</text>
<text text-anchor="start" x="83" y="-580.5" font-family="Helvetica,sans-Serif" font-size="10.00">+ address()</text>
<text text-anchor="start" x="83" y="-569.5" font-family="Helvetica,sans-Serif" font-size="10.00">+ address()</text>
<text text-anchor="start" x="83" y="-558.5" font-family="Helvetica,sans-Serif" font-size="10.00">+ address()</text>
<text text-anchor="start" x="83" y="-547.5" font-family="Helvetica,sans-Serif" font-size="10.00">+ address()</text>
<text text-anchor="start" x="83" y="-536.5" font-family="Helvetica,sans-Serif" font-size="10.00">+ operator std::size_t()</text>
<text text-anchor="start" x="83" y="-525.5" font-family="Helvetica,sans-Serif" font-size="10.00">+ operator std::byte()</text>
<text text-anchor="start" x="83" y="-514.5" font-family="Helvetica,sans-Serif" font-size="10.00">+ inner()</text>
<text text-anchor="start" x="83" y="-503.5" font-family="Helvetica,sans-Serif" font-size="10.00">+ low()</text>
<text text-anchor="start" x="83" y="-492.5" font-family="Helvetica,sans-Serif" font-size="10.00">+ high()</text>
<text text-anchor="start" x="83" y="-481.5" font-family="Helvetica,sans-Serif" font-size="10.00">+ is_carry()</text>
</a>
</g>
</g>
<!-- Node3&#45;&gt;Node1 -->
<g id="edge2" class="edge">
<title>Node3&#45;&gt;Node1</title>
<path fill="none" stroke="#404040" d="M134.75,-474.49C133.93,-458.73 133.14,-442.36 132.5,-427 130.03,-367.43 128.01,-301.36 126.51,-245.66"/>
<polygon fill="none" stroke="#404040" points="126.51,-245.57 122.35,-239.68 126.19,-233.58 130.35,-239.47 126.51,-245.57"/>
<text text-anchor="middle" x="142.5" y="-351.5" font-family="Helvetica,sans-Serif" font-size="10.00"> &#45;PC</text>
</g>
<!-- Node4 -->
<g id="node4" class="node">
<title>Node4</title>
<g id="a_node4"><a xlink:href="classGP__Memory.html" target="_top" xlink:title=" ">
<polygon fill="white" stroke="#666666" points="161.5,-281.5 161.5,-426.5 283.5,-426.5 283.5,-281.5 161.5,-281.5"/>
<text text-anchor="middle" x="222.5" y="-414.5" font-family="Helvetica,sans-Serif" font-size="10.00">GP_Memory</text>
<polyline fill="none" stroke="#666666" points="161.5,-407.5 283.5,-407.5 "/>
<text text-anchor="start" x="169.5" y="-395.5" font-family="Helvetica,sans-Serif" font-size="10.00">&#45; memory_</text>
<polyline fill="none" stroke="#666666" points="161.5,-388.5 283.5,-388.5 "/>
<text text-anchor="start" x="169.5" y="-376.5" font-family="Helvetica,sans-Serif" font-size="10.00">+ GP_Memory()</text>
<text text-anchor="start" x="169.5" y="-365.5" font-family="Helvetica,sans-Serif" font-size="10.00">+ size()</text>
<text text-anchor="start" x="169.5" y="-354.5" font-family="Helvetica,sans-Serif" font-size="10.00">+ read()</text>
<text text-anchor="start" x="169.5" y="-343.5" font-family="Helvetica,sans-Serif" font-size="10.00">+ read()</text>
<text text-anchor="start" x="169.5" y="-332.5" font-family="Helvetica,sans-Serif" font-size="10.00">+ write()</text>
<text text-anchor="start" x="169.5" y="-321.5" font-family="Helvetica,sans-Serif" font-size="10.00">+ import()</text>
<text text-anchor="start" x="169.5" y="-310.5" font-family="Helvetica,sans-Serif" font-size="10.00">+ import()</text>
<text text-anchor="start" x="169.5" y="-299.5" font-family="Helvetica,sans-Serif" font-size="10.00">+ set_print_device()</text>
<text text-anchor="start" x="169.5" y="-288.5" font-family="Helvetica,sans-Serif" font-size="10.00">+ print_device_addr()</text>
</a>
</g>
</g>
<!-- Node3&#45;&gt;Node4 -->
<g id="edge4" class="edge">
<title>Node3&#45;&gt;Node4</title>
<path fill="none" stroke="#404040" d="M173.5,-474.26C178.42,-462.28 183.48,-449.96 188.4,-437.98"/>
<polygon fill="none" stroke="#404040" points="188.51,-437.73 187.09,-430.66 193.07,-426.63 194.49,-433.7 188.51,-437.73"/>
<text text-anchor="middle" x="233.5" y="-448" font-family="Helvetica,sans-Serif" font-size="10.00"> &#45;print_device_addr_</text>
</g>
<!-- Node4&#45;&gt;Node1 -->
<g id="edge3" class="edge">
<title>Node4&#45;&gt;Node1</title>
<path fill="none" stroke="#404040" d="M192.26,-281.22C185.79,-265.86 178.8,-249.27 171.85,-232.76"/>
<polygon fill="none" stroke="#404040" points="171.7,-232.41 165.68,-228.43 167.04,-221.35 173.06,-225.33 171.7,-232.41"/>
<text text-anchor="middle" x="209.5" y="-255" font-family="Helvetica,sans-Serif" font-size="10.00"> &#45;memory_</text>
</g>
</g>
</svg>
        <g id="navigator" transform="translate(0 0)" fill="#404254">
                <rect fill="#f2f5e9" fill-opacity="0.5" stroke="#606060" stroke-width=".5" x="0" y="0" width="60" height="60"/>
                <use id="zoomplus" xlink:href="#zoomPlus" x="17" y="9" onmousedown="handleZoom(evt,'in')"/>
                <use id="zoomminus" xlink:href="#zoomMin" x="42" y="9" onmousedown="handleZoom(evt,'out')"/>
                <use id="reset" xlink:href="#resetDef" x="30" y="36" onmousedown="handleReset()"/>
                <g id="arrowUp" xlink:href="#dirArrow" transform="translate(30 24)" onmousedown="handlePan(0,-1)">
                  <use xlink:href="#rim" fill="#404040">
                        <set attributeName="fill" to="#808080" begin="arrowUp.mouseover" end="arrowUp.mouseout"/>
                  </use>
                  <path fill="none" stroke="white" stroke-width="1.5" d="M0,-3.0v7 M-2.5,-0.5L0,-3.0L2.5,-0.5"/>
                </g>
                <g id="arrowRight" xlink:href="#dirArrow" transform="rotate(90) translate(36 -43)" onmousedown="handlePan(1,0)">
                  <use xlink:href="#rim" fill="#404040">
                        <set attributeName="fill" to="#808080" begin="arrowRight.mouseover" end="arrowRight.mouseout"/>
                  </use>
                  <path fill="none" stroke="white" stroke-width="1.5" d="M0,-3.0v7 M-2.5,-0.5L0,-3.0L2.5,-0.5"/>
                </g>
                <g id="arrowDown" xlink:href="#dirArrow" transform="rotate(180) translate(-30 -48)" onmousedown="handlePan(0,1)">
                  <use xlink:href="#rim" fill="#404040">
                        <set attributeName="fill" to="#808080" begin="arrowDown.mouseover" end="arrowDown.mouseout"/>
                  </use>
                  <path fill="none" stroke="white" stroke-width="1.5" d="M0,-3.0v7 M-2.5,-0.5L0,-3.0L2.5,-0.5"/>
                </g>
                <g id="arrowLeft" xlink:href="#dirArrow" transform="rotate(270) translate(-36 17)" onmousedown="handlePan(-1,0)">
                  <use xlink:href="#rim" fill="#404040">
                        <set attributeName="fill" to="#808080" begin="arrowLeft.mouseover" end="arrowLeft.mouseout"/>
                  </use>
                  <path fill="none" stroke="white" stroke-width="1.5" d="M0,-3.0v7 M-2.5,-0.5L0,-3.0L2.5,-0.5"/>
                </g>
        </g>
        <svg viewBox="0 0 15 15" width="100%" height="30px" preserveAspectRatio="xMaxYMin meet">
         <g id="arrow_out" transform="scale(0.3 0.3)">
          <a xlink:href="classCPU6502__coll__graph_org.svg" target="_base">
           <rect id="button" ry="5" rx="5" y="6" x="6" height="38" width="38"
                fill="#f2f5e9" fill-opacity="0.5" stroke="#606060" stroke-width="1.0"/>
           <path id="arrow"
             d="M 11.500037,31.436501 C 11.940474,20.09759 22.043105,11.32322 32.158766,21.979434 L 37.068811,17.246167 C 37.068811,17.246167 37.088388,32 37.088388,32 L 22.160133,31.978069 C 22.160133,31.978069 26.997745,27.140456 26.997745,27.140456 C 18.528582,18.264221 13.291696,25.230495 11.500037,31.436501 z"
             style="fill:#404040;"/>
          </a>
         </g>
        </svg>
</svg>
