<?xml version="1.0" encoding="UTF-8" standalone="no"?>
<!DOCTYPE svg PUBLIC "-//W3C//DTD SVG 1.1//EN"
 "http://www.w3.org/Graphics/SVG/1.1/DTD/svg11.dtd">
<!-- Generated by graphviz version 2.43.0 (0)
 -->
<!-- Title: PSR::set_bit Pages: 1 -->
<svg width="247pt" height="64pt"
 viewBox="0.00 0.00 247.00 64.00" xmlns="http://www.w3.org/2000/svg" xmlns:xlink="http://www.w3.org/1999/xlink">
<g id="graph0" class="graph" transform="scale(1 1) rotate(0) translate(4 60)">
<title>PSR::set_bit</title>
<!-- Node1 -->
<g id="node1" class="node">
<title>Node1</title>
<g id="a_node1"><a xlink:title=" ">
<polygon fill="#999999" stroke="#666666" points="239,-37 165,-37 165,-18 239,-18 239,-37"/>
<text text-anchor="middle" x="202" y="-25" font-family="Helvetica,sans-Serif" font-size="10.00">PSR::set_bit</text>
</a>
</g>
</g>
<!-- Node2 -->
<g id="node2" class="node">
<title>Node2</title>
<g id="a_node2"><a xlink:href="classPSR.html#ab274086e31101129c819f829dcc0729a" target="_top" xlink:title=" ">
<polygon fill="white" stroke="#666666" points="111,-56 18,-56 18,-37 111,-37 111,-56"/>
<text text-anchor="middle" x="64.5" y="-44" font-family="Helvetica,sans-Serif" font-size="10.00">PSR::update_bit</text>
</a>
</g>
</g>
<!-- Node1&#45;&gt;Node2 -->
<g id="edge1" class="edge">
<title>Node1&#45;&gt;Node2</title>
<path fill="none" stroke="#63b8ff" d="M154.72,-33.99C140.64,-35.96 125.17,-38.13 111.14,-40.1"/>
<polygon fill="#63b8ff" stroke="#63b8ff" points="155.27,-37.45 164.69,-32.59 154.3,-30.51 155.27,-37.45"/>
</g>
<!-- Node3 -->
<g id="node3" class="node">
<title>Node3</title>
<g id="a_node3"><a xlink:href="classCPU6502.html#a715b8e9f656286a52751f42e4dbba28b" target="_top" xlink:title=" ">
<polygon fill="white" stroke="#666666" points="129,-19 0,-19 0,0 129,0 129,-19"/>
<text text-anchor="middle" x="64.5" y="-7" font-family="Helvetica,sans-Serif" font-size="10.00">CPU6502::update_flags</text>
</a>
</g>
</g>
<!-- Node1&#45;&gt;Node3 -->
<g id="edge2" class="edge">
<title>Node1&#45;&gt;Node3</title>
<path fill="none" stroke="#63b8ff" d="M154.58,-21.33C146.37,-20.24 137.7,-19.09 129.12,-17.95"/>
<polygon fill="#63b8ff" stroke="#63b8ff" points="154.31,-24.83 164.69,-22.68 155.24,-17.89 154.31,-24.83"/>
</g>
</g>
</svg>
