<?xml version="1.0" encoding="UTF-8" standalone="no"?>
<!DOCTYPE svg PUBLIC "-//W3C//DTD SVG 1.1//EN"
 "http://www.w3.org/Graphics/SVG/1.1/DTD/svg11.dtd">
<!-- Generated by graphviz version 2.43.0 (0)
 -->
<!-- Title: CPU6502::CPU6502 Pages: 1 -->
<svg width="258pt" height="82pt"
 viewBox="0.00 0.00 258.00 82.00" xmlns="http://www.w3.org/2000/svg" xmlns:xlink="http://www.w3.org/1999/xlink">
<g id="graph0" class="graph" transform="scale(1 1) rotate(0) translate(4 78)">
<title>CPU6502::CPU6502</title>
<!-- Node1 -->
<g id="node1" class="node">
<title>Node1</title>
<g id="a_node1"><a xlink:title=" ">
<polygon fill="#999999" stroke="#666666" points="111,-37 0,-37 0,-18 111,-18 111,-37"/>
<text text-anchor="middle" x="55.5" y="-25" font-family="Helvetica,sans-Serif" font-size="10.00">CPU6502::CPU6502</text>
</a>
</g>
</g>
<!-- Node2 -->
<g id="node2" class="node">
<title>Node2</title>
<g id="a_node2"><a xlink:href="classGP__Memory.html#a137b4c481288e6f2eb5de177f7a7fcb0" target="_top" xlink:title=" ">
<polygon fill="white" stroke="#666666" points="250,-56 147,-56 147,-37 250,-37 250,-56"/>
<text text-anchor="middle" x="198.5" y="-44" font-family="Helvetica,sans-Serif" font-size="10.00">GP_Memory::read</text>
</a>
</g>
</g>
<!-- Node1&#45;&gt;Node2 -->
<g id="edge1" class="edge">
<title>Node1&#45;&gt;Node2</title>
<path fill="none" stroke="#63b8ff" d="M111.01,-34.85C119.48,-35.99 128.27,-37.17 136.86,-38.33"/>
<polygon fill="#63b8ff" stroke="#63b8ff" points="136.45,-41.8 146.83,-39.67 137.38,-34.87 136.45,-41.8"/>
</g>
<!-- Node3 -->
<g id="node3" class="node">
<title>Node3</title>
<g id="a_node3"><a xlink:href="classGP__Memory.html#a03b719e4f636ba1520ca31df1af651ce" target="_top" xlink:title=" ">
<polygon fill="white" stroke="#666666" points="249,-19 148,-19 148,0 249,0 249,-19"/>
<text text-anchor="middle" x="198.5" y="-7" font-family="Helvetica,sans-Serif" font-size="10.00">GP_Memory::size</text>
</a>
</g>
</g>
<!-- Node1&#45;&gt;Node3 -->
<g id="edge3" class="edge">
<title>Node1&#45;&gt;Node3</title>
<path fill="none" stroke="#63b8ff" d="M111.01,-20.54C119.7,-19.43 128.73,-18.28 137.54,-17.15"/>
<polygon fill="#63b8ff" stroke="#63b8ff" points="138.27,-20.59 147.74,-15.85 137.38,-13.65 138.27,-20.59"/>
</g>
<!-- Node2&#45;&gt;Node2 -->
<g id="edge2" class="edge">
<title>Node2&#45;&gt;Node2</title>
<path fill="none" stroke="#63b8ff" d="M176.61,-56.08C165.97,-64.73 173.26,-74 198.5,-74 214.67,-74 223.47,-70.2 224.91,-65.19"/>
<polygon fill="#63b8ff" stroke="#63b8ff" points="227.97,-63.48 220.39,-56.08 221.7,-66.6 227.97,-63.48"/>
</g>
</g>
</svg>
