<?xml version="1.0" encoding="UTF-8" standalone="no"?>
<!DOCTYPE svg PUBLIC "-//W3C//DTD SVG 1.1//EN"
 "http://www.w3.org/Graphics/SVG/1.1/DTD/svg11.dtd">
<!-- Generated by graphviz version 2.43.0 (0)
 -->
<!-- Title: Debugger Pages: 1 -->
<svg width="314pt" height="810pt"
 viewBox="0.00 0.00 313.50 810.00" xmlns="http://www.w3.org/2000/svg" xmlns:xlink="http://www.w3.org/1999/xlink">
<g id="graph0" class="graph" transform="scale(1 1) rotate(0) translate(4 806)">
<title>Debugger</title>
<!-- Node1 -->
<g id="node1" class="node">
<title>Node1</title>
<g id="a_node1"><a xlink:title=" ">
<polygon fill="#999999" stroke="#666666" points="124,-0.5 124,-112.5 245,-112.5 245,-0.5 124,-0.5"/>
<text text-anchor="middle" x="184.5" y="-100.5" font-family="Helvetica,sans-Serif" font-size="10.00">Debugger</text>
<polyline fill="none" stroke="#666666" points="124,-93.5 245,-93.5 "/>
<text text-anchor="middle" x="184.5" y="-81.5" font-family="Helvetica,sans-Serif" font-size="10.00"> </text>
<polyline fill="none" stroke="#666666" points="124,-74.5 245,-74.5 "/>
<text text-anchor="start" x="132" y="-62.5" font-family="Helvetica,sans-Serif" font-size="10.00">+ Debugger()</text>
<text text-anchor="start" x="132" y="-51.5" font-family="Helvetica,sans-Serif" font-size="10.00">+ Debugger()</text>
<text text-anchor="start" x="132" y="-40.5" font-family="Helvetica,sans-Serif" font-size="10.00">+ print_memory()</text>
<text text-anchor="start" x="132" y="-29.5" font-family="Helvetica,sans-Serif" font-size="10.00">+ go_to_debugger()</text>
<text text-anchor="start" x="132" y="-18.5" font-family="Helvetica,sans-Serif" font-size="10.00">+ run()</text>
<text text-anchor="start" x="132" y="-7.5" font-family="Helvetica,sans-Serif" font-size="10.00">&#45; twos_complement()</text>
</a>
</g>
</g>
<!-- Node2 -->
<g id="node2" class="node">
<title>Node2</title>
<g id="a_node2"><a xlink:href="classCPU6502.html" target="_top" xlink:title="Class representing a W65C02S CPU.">
<polygon fill="white" stroke="#666666" points="80,-160.5 80,-393.5 167,-393.5 167,-160.5 80,-160.5"/>
<text text-anchor="middle" x="123.5" y="-381.5" font-family="Helvetica,sans-Serif" font-size="10.00">CPU6502</text>
<polyline fill="none" stroke="#666666" points="80,-374.5 167,-374.5 "/>
<text text-anchor="start" x="88" y="-362.5" font-family="Helvetica,sans-Serif" font-size="10.00">&#45; A</text>
<text text-anchor="start" x="88" y="-351.5" font-family="Helvetica,sans-Serif" font-size="10.00">&#45; X</text>
<text text-anchor="start" x="88" y="-340.5" font-family="Helvetica,sans-Serif" font-size="10.00">&#45; Y</text>
<text text-anchor="start" x="88" y="-329.5" font-family="Helvetica,sans-Serif" font-size="10.00">&#45; S</text>
<text text-anchor="start" x="88" y="-318.5" font-family="Helvetica,sans-Serif" font-size="10.00">&#45; isa_</text>
<text text-anchor="start" x="88" y="-307.5" font-family="Helvetica,sans-Serif" font-size="10.00">&#45; debug_</text>
<text text-anchor="start" x="88" y="-296.5" font-family="Helvetica,sans-Serif" font-size="10.00">&#45; verbose_</text>
<polyline fill="none" stroke="#666666" points="80,-289.5 167,-289.5 "/>
<text text-anchor="start" x="88" y="-277.5" font-family="Helvetica,sans-Serif" font-size="10.00">+ CPU6502()</text>
<text text-anchor="start" x="88" y="-266.5" font-family="Helvetica,sans-Serif" font-size="10.00">+ get_A()</text>
<text text-anchor="start" x="88" y="-255.5" font-family="Helvetica,sans-Serif" font-size="10.00">+ set_A()</text>
<text text-anchor="start" x="88" y="-244.5" font-family="Helvetica,sans-Serif" font-size="10.00">+ get_X()</text>
<text text-anchor="start" x="88" y="-233.5" font-family="Helvetica,sans-Serif" font-size="10.00">+ set_X()</text>
<text text-anchor="start" x="88" y="-222.5" font-family="Helvetica,sans-Serif" font-size="10.00">+ get_Y()</text>
<text text-anchor="start" x="88" y="-211.5" font-family="Helvetica,sans-Serif" font-size="10.00">+ set_Y()</text>
<text text-anchor="start" x="88" y="-200.5" font-family="Helvetica,sans-Serif" font-size="10.00">+ get_S()</text>
<text text-anchor="start" x="88" y="-189.5" font-family="Helvetica,sans-Serif" font-size="10.00">+ set_S()</text>
<text text-anchor="start" x="88" y="-178.5" font-family="Helvetica,sans-Serif" font-size="10.00">+ get_PC()</text>
<text text-anchor="start" x="88" y="-167.5" font-family="Helvetica,sans-Serif" font-size="10.00">and 16 more...</text>
</a>
</g>
</g>
<!-- Node2&#45;&gt;Node1 -->
<g id="edge1" class="edge">
<title>Node2&#45;&gt;Node1</title>
<path fill="none" stroke="#404040" d="M155.79,-160.35C159.22,-148.04 162.63,-135.84 165.83,-124.38"/>
<polygon fill="none" stroke="#404040" points="165.85,-124.29 163.62,-117.43 169.08,-112.73 171.32,-119.58 165.85,-124.29"/>
<text text-anchor="middle" x="178.5" y="-134" font-family="Helvetica,sans-Serif" font-size="10.00"> &#45;cpu_</text>
</g>
<!-- Node3 -->
<g id="node3" class="node">
<title>Node3</title>
<g id="a_node3"><a xlink:href="classPSR.html" target="_top" xlink:title=" ">
<polygon fill="white" stroke="#666666" points="0,-452.5 0,-575.5 87,-575.5 87,-452.5 0,-452.5"/>
<text text-anchor="middle" x="43.5" y="-563.5" font-family="Helvetica,sans-Serif" font-size="10.00">PSR</text>
<polyline fill="none" stroke="#666666" points="0,-556.5 87,-556.5 "/>
<text text-anchor="start" x="8" y="-544.5" font-family="Helvetica,sans-Serif" font-size="10.00">&#45; psr_</text>
<polyline fill="none" stroke="#666666" points="0,-537.5 87,-537.5 "/>
<text text-anchor="start" x="8" y="-525.5" font-family="Helvetica,sans-Serif" font-size="10.00">+ PSR()</text>
<text text-anchor="start" x="8" y="-514.5" font-family="Helvetica,sans-Serif" font-size="10.00">+ PSR()</text>
<text text-anchor="start" x="8" y="-503.5" font-family="Helvetica,sans-Serif" font-size="10.00">+ get_bit()</text>
<text text-anchor="start" x="8" y="-492.5" font-family="Helvetica,sans-Serif" font-size="10.00">+ set_bit()</text>
<text text-anchor="start" x="8" y="-481.5" font-family="Helvetica,sans-Serif" font-size="10.00">+ update_bit()</text>
<text text-anchor="start" x="8" y="-470.5" font-family="Helvetica,sans-Serif" font-size="10.00">+ get()</text>
<text text-anchor="start" x="8" y="-459.5" font-family="Helvetica,sans-Serif" font-size="10.00">+ set()</text>
</a>
</g>
</g>
<!-- Node3&#45;&gt;Node2 -->
<g id="edge2" class="edge">
<title>Node3&#45;&gt;Node2</title>
<path fill="none" stroke="#404040" d="M64.1,-452.48C69.1,-437.79 74.64,-421.52 80.26,-405"/>
<polygon fill="none" stroke="#404040" points="80.3,-404.9 78.45,-397.94 84.17,-393.54 86.02,-400.51 80.3,-404.9"/>
<text text-anchor="middle" x="83" y="-415" font-family="Helvetica,sans-Serif" font-size="10.00"> &#45;P</text>
</g>
<!-- Node4 -->
<g id="node4" class="node">
<title>Node4</title>
<g id="a_node4"><a xlink:href="classaddress.html" target="_top" xlink:title=" ">
<polygon fill="white" stroke="#666666" points="75,-634.5 75,-801.5 204,-801.5 204,-634.5 75,-634.5"/>
<text text-anchor="middle" x="139.5" y="-789.5" font-family="Helvetica,sans-Serif" font-size="10.00">address</text>
<polyline fill="none" stroke="#666666" points="75,-782.5 204,-782.5 "/>
<text text-anchor="start" x="83" y="-770.5" font-family="Helvetica,sans-Serif" font-size="10.00">&#45; value_</text>
<polyline fill="none" stroke="#666666" points="75,-763.5 204,-763.5 "/>
<text text-anchor="start" x="83" y="-751.5" font-family="Helvetica,sans-Serif" font-size="10.00">+ address()</text>
<text text-anchor="start" x="83" y="-740.5" font-family="Helvetica,sans-Serif" font-size="10.00">+ address()</text>
<text text-anchor="start" x="83" y="-729.5" font-family="Helvetica,sans-Serif" font-size="10.00">+ address()</text>
<text text-anchor="start" x="83" y="-718.5" font-family="Helvetica,sans-Serif" font-size="10.00">+ address()</text>
<text text-anchor="start" x="83" y="-707.5" font-family="Helvetica,sans-Serif" font-size="10.00">+ address()</text>
<text text-anchor="start" x="83" y="-696.5" font-family="Helvetica,sans-Serif" font-size="10.00">+ operator std::size_t()</text>
<text text-anchor="start" x="83" y="-685.5" font-family="Helvetica,sans-Serif" font-size="10.00">+ operator std::byte()</text>
<text text-anchor="start" x="83" y="-674.5" font-family="Helvetica,sans-Serif" font-size="10.00">+ inner()</text>
<text text-anchor="start" x="83" y="-663.5" font-family="Helvetica,sans-Serif" font-size="10.00">+ low()</text>
<text text-anchor="start" x="83" y="-652.5" font-family="Helvetica,sans-Serif" font-size="10.00">+ high()</text>
<text text-anchor="start" x="83" y="-641.5" font-family="Helvetica,sans-Serif" font-size="10.00">+ is_carry()</text>
</a>
</g>
</g>
<!-- Node4&#45;&gt;Node2 -->
<g id="edge3" class="edge">
<title>Node4&#45;&gt;Node2</title>
<path fill="none" stroke="#404040" d="M134.75,-634.49C133.93,-618.73 133.14,-602.36 132.5,-587 130.03,-527.43 128.01,-461.36 126.51,-405.66"/>
<polygon fill="none" stroke="#404040" points="126.51,-405.57 122.35,-399.68 126.19,-393.58 130.35,-399.47 126.51,-405.57"/>
<text text-anchor="middle" x="142.5" y="-511.5" font-family="Helvetica,sans-Serif" font-size="10.00"> &#45;PC</text>
</g>
<!-- Node5 -->
<g id="node5" class="node">
<title>Node5</title>
<g id="a_node5"><a xlink:href="classGP__Memory.html" target="_top" xlink:title=" ">
<polygon fill="white" stroke="#666666" points="161.5,-441.5 161.5,-586.5 283.5,-586.5 283.5,-441.5 161.5,-441.5"/>
<text text-anchor="middle" x="222.5" y="-574.5" font-family="Helvetica,sans-Serif" font-size="10.00">GP_Memory</text>
<polyline fill="none" stroke="#666666" points="161.5,-567.5 283.5,-567.5 "/>
<text text-anchor="start" x="169.5" y="-555.5" font-family="Helvetica,sans-Serif" font-size="10.00">&#45; memory_</text>
<polyline fill="none" stroke="#666666" points="161.5,-548.5 283.5,-548.5 "/>
<text text-anchor="start" x="169.5" y="-536.5" font-family="Helvetica,sans-Serif" font-size="10.00">+ GP_Memory()</text>
<text text-anchor="start" x="169.5" y="-525.5" font-family="Helvetica,sans-Serif" font-size="10.00">+ size()</text>
<text text-anchor="start" x="169.5" y="-514.5" font-family="Helvetica,sans-Serif" font-size="10.00">+ read()</text>
<text text-anchor="start" x="169.5" y="-503.5" font-family="Helvetica,sans-Serif" font-size="10.00">+ read()</text>
<text text-anchor="start" x="169.5" y="-492.5" font-family="Helvetica,sans-Serif" font-size="10.00">+ write()</text>
<text text-anchor="start" x="169.5" y="-481.5" font-family="Helvetica,sans-Serif" font-size="10.00">+ import()</text>
<text text-anchor="start" x="169.5" y="-470.5" font-family="Helvetica,sans-Serif" font-size="10.00">+ import()</text>
<text text-anchor="start" x="169.5" y="-459.5" font-family="Helvetica,sans-Serif" font-size="10.00">+ set_print_device()</text>
<text text-anchor="start" x="169.5" y="-448.5" font-family="Helvetica,sans-Serif" font-size="10.00">+ print_device_addr()</text>
</a>
</g>
</g>
<!-- Node4&#45;&gt;Node5 -->
<g id="edge5" class="edge">
<title>Node4&#45;&gt;Node5</title>
<path fill="none" stroke="#404040" d="M173.5,-634.26C178.42,-622.28 183.48,-609.96 188.4,-597.98"/>
<polygon fill="none" stroke="#404040" points="188.51,-597.73 187.09,-590.66 193.07,-586.63 194.49,-593.7 188.51,-597.73"/>
<text text-anchor="middle" x="233.5" y="-608" font-family="Helvetica,sans-Serif" font-size="10.00"> &#45;print_device_addr_</text>
</g>
<!-- Node5&#45;&gt;Node2 -->
<g id="edge4" class="edge">
<title>Node5&#45;&gt;Node2</title>
<path fill="none" stroke="#404040" d="M192.26,-441.22C185.79,-425.86 178.8,-409.27 171.85,-392.76"/>
<polygon fill="none" stroke="#404040" points="171.7,-392.41 165.68,-388.43 167.04,-381.35 173.06,-385.33 171.7,-392.41"/>
<text text-anchor="middle" x="209.5" y="-415" font-family="Helvetica,sans-Serif" font-size="10.00"> &#45;memory_</text>
</g>
<!-- Node6 -->
<g id="node6" class="node">
<title>Node6</title>
<g id="a_node6"><a xlink:href="structDebuggerOptions.html" target="_top" xlink:title=" ">
<polygon fill="white" stroke="#666666" points="185.5,-243 185.5,-311 305.5,-311 305.5,-243 185.5,-243"/>
<text text-anchor="middle" x="245.5" y="-299" font-family="Helvetica,sans-Serif" font-size="10.00">DebuggerOptions</text>
<polyline fill="none" stroke="#666666" points="185.5,-292 305.5,-292 "/>
<text text-anchor="start" x="193.5" y="-280" font-family="Helvetica,sans-Serif" font-size="10.00">+ enabled</text>
<polyline fill="none" stroke="#666666" points="185.5,-273 305.5,-273 "/>
<text text-anchor="start" x="193.5" y="-261" font-family="Helvetica,sans-Serif" font-size="10.00">+ DebuggerOptions()</text>
<text text-anchor="start" x="193.5" y="-250" font-family="Helvetica,sans-Serif" font-size="10.00">+ DebuggerOptions()</text>
</a>
</g>
</g>
<!-- Node6&#45;&gt;Node1 -->
<g id="edge6" class="edge">
<title>Node6&#45;&gt;Node1</title>
<path fill="none" stroke="#404040" d="M236.24,-242.81C227.49,-211.48 214.11,-163.57 203.15,-124.32"/>
<polygon fill="none" stroke="#404040" points="203.14,-124.26 197.67,-119.56 199.91,-112.71 205.38,-117.41 203.14,-124.26"/>
<text text-anchor="middle" x="232" y="-134" font-family="Helvetica,sans-Serif" font-size="10.00"> &#45;options_</text>
</g>
</g>
</svg>
