<?xml version="1.0" encoding="UTF-8" standalone="no"?>
<!DOCTYPE svg PUBLIC "-//W3C//DTD SVG 1.1//EN"
 "http://www.w3.org/Graphics/SVG/1.1/DTD/svg11.dtd">
<!-- Generated by graphviz version 2.43.0 (0)
 -->
<!-- Title: CPU6502::execute Pages: 1 -->
<svg width="389pt" height="92pt"
 viewBox="0.00 0.00 389.00 92.00" xmlns="http://www.w3.org/2000/svg" xmlns:xlink="http://www.w3.org/1999/xlink">
<g id="graph0" class="graph" transform="scale(1 1) rotate(0) translate(4 88)">
<title>CPU6502::execute</title>
<!-- Node1 -->
<g id="node1" class="node">
<title>Node1</title>
<g id="a_node1"><a xlink:title="Executes the provided code in memory.">
<polygon fill="#999999" stroke="#666666" points="105,-56 0,-56 0,-37 105,-37 105,-56"/>
<text text-anchor="middle" x="52.5" y="-44" font-family="Helvetica,sans-Serif" font-size="10.00">CPU6502::execute</text>
</a>
</g>
</g>
<!-- Node2 -->
<g id="node2" class="node">
<title>Node2</title>
<g id="a_node2"><a xlink:href="classaddress.html#add0092eb4577fdc3ec396a0fdf276b30" target="_top" xlink:title=" ">
<polygon fill="white" stroke="#666666" points="372.5,-84 286.5,-84 286.5,-65 372.5,-65 372.5,-84"/>
<text text-anchor="middle" x="329.5" y="-72" font-family="Helvetica,sans-Serif" font-size="10.00">address::inner</text>
</a>
</g>
</g>
<!-- Node1&#45;&gt;Node2 -->
<g id="edge1" class="edge">
<title>Node1&#45;&gt;Node2</title>
<path fill="none" stroke="#63b8ff" d="M90.73,-56.01C106.18,-59.58 124.36,-63.31 141,-65.5 186.33,-71.47 238.3,-73.6 276.01,-74.3"/>
<polygon fill="#63b8ff" stroke="#63b8ff" points="276.19,-77.81 286.25,-74.47 276.3,-70.81 276.19,-77.81"/>
</g>
<!-- Node3 -->
<g id="node3" class="node">
<title>Node3</title>
<g id="a_node3"><a xlink:href="classGP__Memory.html#a03b719e4f636ba1520ca31df1af651ce" target="_top" xlink:title=" ">
<polygon fill="white" stroke="#666666" points="242,-56 141,-56 141,-37 242,-37 242,-56"/>
<text text-anchor="middle" x="191.5" y="-44" font-family="Helvetica,sans-Serif" font-size="10.00">GP_Memory::size</text>
</a>
</g>
</g>
<!-- Node1&#45;&gt;Node3 -->
<g id="edge2" class="edge">
<title>Node1&#45;&gt;Node3</title>
<path fill="none" stroke="#63b8ff" d="M105.29,-46.5C113.59,-46.5 122.23,-46.5 130.7,-46.5"/>
<polygon fill="#63b8ff" stroke="#63b8ff" points="130.9,-50 140.9,-46.5 130.9,-43 130.9,-50"/>
</g>
<!-- Node4 -->
<g id="node4" class="node">
<title>Node4</title>
<g id="a_node4"><a xlink:href="classCPU6502.html#a47cca859097af3da244b68c3034b9443" target="_top" xlink:title=" ">
<polygon fill="white" stroke="#666666" points="235.5,-19 147.5,-19 147.5,0 235.5,0 235.5,-19"/>
<text text-anchor="middle" x="191.5" y="-7" font-family="Helvetica,sans-Serif" font-size="10.00">CPU6502::step</text>
</a>
</g>
</g>
<!-- Node1&#45;&gt;Node4 -->
<g id="edge3" class="edge">
<title>Node1&#45;&gt;Node4</title>
<path fill="none" stroke="#63b8ff" d="M88.78,-36.97C105.91,-32.35 126.69,-26.73 144.99,-21.79"/>
<polygon fill="#63b8ff" stroke="#63b8ff" points="146.12,-25.11 154.86,-19.12 144.3,-18.35 146.12,-25.11"/>
</g>
<!-- Node4&#45;&gt;Node2 -->
<g id="edge4" class="edge">
<title>Node4&#45;&gt;Node2</title>
<path fill="none" stroke="#63b8ff" d="M221.06,-19.06C227.99,-21.61 235.33,-24.5 242,-27.5 253.74,-32.79 281.63,-48.14 302.59,-59.87"/>
<polygon fill="#63b8ff" stroke="#63b8ff" points="300.94,-62.95 311.37,-64.8 304.36,-56.85 300.94,-62.95"/>
</g>
<!-- Node5 -->
<g id="node5" class="node">
<title>Node5</title>
<g id="a_node5"><a xlink:href="classGP__Memory.html#a137b4c481288e6f2eb5de177f7a7fcb0" target="_top" xlink:title=" ">
<polygon fill="white" stroke="#666666" points="381,-19 278,-19 278,0 381,0 381,-19"/>
<text text-anchor="middle" x="329.5" y="-7" font-family="Helvetica,sans-Serif" font-size="10.00">GP_Memory::read</text>
</a>
</g>
</g>
<!-- Node4&#45;&gt;Node5 -->
<g id="edge5" class="edge">
<title>Node4&#45;&gt;Node5</title>
<path fill="none" stroke="#63b8ff" d="M235.53,-9.5C245.67,-9.5 256.68,-9.5 267.45,-9.5"/>
<polygon fill="#63b8ff" stroke="#63b8ff" points="267.67,-13 277.67,-9.5 267.67,-6 267.67,-13"/>
</g>
<!-- Node5&#45;&gt;Node5 -->
<g id="edge6" class="edge">
<title>Node5&#45;&gt;Node5</title>
<path fill="none" stroke="#63b8ff" d="M308.23,-19.08C297.88,-27.73 304.97,-37 329.5,-37 345.21,-37 353.77,-33.2 355.17,-28.19"/>
<polygon fill="#63b8ff" stroke="#63b8ff" points="358.27,-26.56 350.77,-19.08 351.97,-29.61 358.27,-26.56"/>
</g>
</g>
</svg>
