<?xml version="1.0" encoding="UTF-8" standalone="no"?>
<!DOCTYPE svg PUBLIC "-//W3C//DTD SVG 1.1//EN"
 "http://www.w3.org/Graphics/SVG/1.1/DTD/svg11.dtd">
<!-- Generated by graphviz version 2.43.0 (0)
 -->
<!-- Title: Debugger::run Pages: 1 -->
<!--zoomable 547 -->
<svg id="main" version="1.1" xmlns="http://www.w3.org/2000/svg" xmlns:xlink="http://www.w3.org/1999/xlink" xml:space="preserve" onload="init(evt)">
<style type="text/css"><![CDATA[
.edge:hover path { stroke: red; }
.edge:hover polygon { stroke: red; fill: red; }
]]></style>
<script type="text/javascript"><![CDATA[
var edges = document.getElementsByTagName('g');
if (edges && edges.length) {
  for (var i=0;i<edges.length;i++) {
    if (edges[i].id.substr(0,4)=='edge') {
      edges[i].setAttribute('class','edge');
    }
  }
}
]]></script>
        <defs>
                <circle id="rim" cx="0" cy="0" r="7"/>
                <circle id="rim2" cx="0" cy="0" r="3.5"/>
                <g id="zoomPlus">
                        <use xlink:href="#rim" fill="#404040">
                                <set attributeName="fill" to="#808080" begin="zoomplus.mouseover" end="zoomplus.mouseout"/>
                        </use>
                        <path d="M-4,0h8M0,-4v8" fill="none" stroke="white" stroke-width="1.5" pointer-events="none"/>
                </g>
                <g id="zoomMin">
                        <use xlink:href="#rim" fill="#404040">
                                <set attributeName="fill" to="#808080" begin="zoomminus.mouseover" end="zoomminus.mouseout"/>
                        </use>
                        <path d="M-4,0h8" fill="none" stroke="white" stroke-width="1.5" pointer-events="none"/>
                </g>
                <g id="dirArrow">
                        <path fill="none" stroke="white" stroke-width="1.5" d="M0,-3.0v7 M-2.5,-0.5L0,-3.0L2.5,-0.5"/>
                </g>
               <g id="resetDef">
                       <use xlink:href="#rim2" fill="#404040">
                               <set attributeName="fill" to="#808080" begin="reset.mouseover" end="reset.mouseout"/>
                       </use>
               </g>
        </defs>

<script type="text/javascript">
var viewWidth = 643;
var viewHeight = 547;
var sectionId = 'dynsection-5';
</script>
<script xlink:href="svgpan.js"/>
<svg id="graph" class="graph">
<g id="viewport">
<title>Debugger::run</title>
<!-- Node1 -->
<g id="node1" class="node">
<title>Node1</title>
<g id="a_node1"><a xlink:title=" ">
<polygon fill="#999999" stroke="#666666" points="86,-206 0,-206 0,-187 86,-187 86,-206"/>
<text text-anchor="middle" x="43" y="-194" font-family="Helvetica,sans-Serif" font-size="10.00">Debugger::run</text>
</a>
</g>
</g>
<!-- Node2 -->
<g id="node2" class="node">
<title>Node2</title>
<g id="a_node2"><a xlink:href="classCPU6502.html#a06a35e0aad53b393936204b3cc548cf5" target="_top" xlink:title=" ">
<polygon fill="white" stroke="#666666" points="450.5,-539 321.5,-539 321.5,-520 450.5,-520 450.5,-539"/>
<text text-anchor="middle" x="386" y="-527" font-family="Helvetica,sans-Serif" font-size="10.00">CPU6502::get_memory</text>
</a>
</g>
</g>
<!-- Node1&#45;&gt;Node2 -->
<g id="edge1" class="edge">
<title>Node1&#45;&gt;Node2</title>
<path fill="none" stroke="#63b8ff" d="M45.65,-206.19C51.27,-236.8 72.2,-333.01 122,-393.5 183.75,-468.5 216.41,-473.93 306,-511.5 311.03,-513.61 316.34,-515.49 321.74,-517.17"/>
<polygon fill="#63b8ff" stroke="#63b8ff" points="320.94,-520.58 331.51,-519.97 322.86,-513.85 320.94,-520.58"/>
</g>
<!-- Node3 -->
<g id="node3" class="node">
<title>Node3</title>
<g id="a_node3"><a xlink:href="classCPU6502.html#a9f7496296291584bafb4a1fd518f4d94" target="_top" xlink:title=" ">
<polygon fill="white" stroke="#666666" points="436.5,-502 335.5,-502 335.5,-483 436.5,-483 436.5,-502"/>
<text text-anchor="middle" x="386" y="-490" font-family="Helvetica,sans-Serif" font-size="10.00">CPU6502::get_PC</text>
</a>
</g>
</g>
<!-- Node1&#45;&gt;Node3 -->
<g id="edge2" class="edge">
<title>Node1&#45;&gt;Node3</title>
<path fill="none" stroke="#63b8ff" d="M49.56,-206.03C73.84,-246.65 175.15,-406.29 306,-474.5 312.03,-477.65 318.61,-480.24 325.3,-482.39"/>
<polygon fill="#63b8ff" stroke="#63b8ff" points="324.57,-485.82 335.15,-485.23 326.51,-479.1 324.57,-485.82"/>
</g>
<!-- Node4 -->
<g id="node4" class="node">
<title>Node4</title>
<g id="a_node4"><a xlink:href="classDebugger.html#a1b1c8e66cc7d4ea8c55f0adf02cd5494" target="_top" xlink:title=" ">
<polygon fill="white" stroke="#666666" points="270,-298 122,-298 122,-279 270,-279 270,-298"/>
<text text-anchor="middle" x="196" y="-286" font-family="Helvetica,sans-Serif" font-size="10.00">Debugger::go_to_debugger</text>
</a>
</g>
</g>
<!-- Node1&#45;&gt;Node4 -->
<g id="edge3" class="edge">
<title>Node1&#45;&gt;Node4</title>
<path fill="none" stroke="#63b8ff" d="M59.87,-206.17C86.22,-222.23 139.18,-254.49 170.4,-273.51"/>
<polygon fill="#63b8ff" stroke="#63b8ff" points="168.98,-276.74 179.34,-278.96 172.62,-270.77 168.98,-276.74"/>
</g>
<!-- Node16 -->
<g id="node16" class="node">
<title>Node16</title>
<g id="a_node16"><a xlink:href="classCPU6502.html#a47cca859097af3da244b68c3034b9443" target="_top" xlink:title=" ">
<polygon fill="white" stroke="#666666" points="430,-95 342,-95 342,-76 430,-76 430,-95"/>
<text text-anchor="middle" x="386" y="-83" font-family="Helvetica,sans-Serif" font-size="10.00">CPU6502::step</text>
</a>
</g>
</g>
<!-- Node1&#45;&gt;Node16 -->
<g id="edge24" class="edge">
<title>Node1&#45;&gt;Node16</title>
<path fill="none" stroke="#63b8ff" d="M68.65,-186.9C114.77,-169.14 217.45,-130.62 306,-104.5 314.36,-102.04 323.28,-99.65 332.01,-97.46"/>
<polygon fill="#63b8ff" stroke="#63b8ff" points="332.86,-100.85 341.74,-95.07 331.19,-94.06 332.86,-100.85"/>
</g>
<!-- Node17 -->
<g id="node17" class="node">
<title>Node17</title>
<g id="a_node17"><a xlink:href="classaddress.html#add0092eb4577fdc3ec396a0fdf276b30" target="_top" xlink:title=" ">
<polygon fill="white" stroke="#666666" points="611.5,-76 525.5,-76 525.5,-57 611.5,-57 611.5,-76"/>
<text text-anchor="middle" x="568.5" y="-64" font-family="Helvetica,sans-Serif" font-size="10.00">address::inner</text>
</a>
</g>
</g>
<!-- Node1&#45;&gt;Node17 -->
<g id="edge22" class="edge">
<title>Node1&#45;&gt;Node17</title>
<path fill="none" stroke="#63b8ff" d="M49.97,-186.87C61.55,-169.06 88.85,-130.99 122,-111.5 247.38,-37.78 427.44,-47.78 515.29,-58.5"/>
<polygon fill="#63b8ff" stroke="#63b8ff" points="514.93,-61.98 525.29,-59.78 515.81,-55.04 514.93,-61.98"/>
</g>
<!-- Node19 -->
<g id="node19" class="node">
<title>Node19</title>
<g id="a_node19"><a xlink:href="classGP__Memory.html#a03b719e4f636ba1520ca31df1af651ce" target="_top" xlink:title=" ">
<polygon fill="white" stroke="#666666" points="246.5,-19 145.5,-19 145.5,0 246.5,0 246.5,-19"/>
<text text-anchor="middle" x="196" y="-7" font-family="Helvetica,sans-Serif" font-size="10.00">GP_Memory::size</text>
</a>
</g>
</g>
<!-- Node1&#45;&gt;Node19 -->
<g id="edge23" class="edge">
<title>Node1&#45;&gt;Node19</title>
<path fill="none" stroke="#63b8ff" d="M45.86,-186.82C51.73,-158.82 72.52,-76.99 122,-33.5 126.73,-29.34 132.21,-25.9 137.99,-23.05"/>
<polygon fill="#63b8ff" stroke="#63b8ff" points="139.46,-26.22 147.26,-19.04 136.69,-19.8 139.46,-26.22"/>
</g>
<!-- Node4&#45;&gt;Node2 -->
<g id="edge6" class="edge">
<title>Node4&#45;&gt;Node2</title>
<path fill="none" stroke="#63b8ff" d="M198.72,-298.41C205.35,-333.57 232.71,-453.42 306,-511.5 308.03,-513.11 310.17,-514.57 312.4,-515.91"/>
<polygon fill="#63b8ff" stroke="#63b8ff" points="310.89,-519.07 321.39,-520.49 314.06,-512.83 310.89,-519.07"/>
</g>
<!-- Node4&#45;&gt;Node3 -->
<g id="edge7" class="edge">
<title>Node4&#45;&gt;Node3</title>
<path fill="none" stroke="#63b8ff" d="M203.57,-298.15C216.77,-317.68 247.19,-363.42 270,-403.5 287.5,-434.25 278.11,-452.73 306,-474.5 311.79,-479.02 318.51,-482.45 325.54,-485.04"/>
<polygon fill="#63b8ff" stroke="#63b8ff" points="324.66,-488.43 335.25,-488.07 326.75,-481.75 324.66,-488.43"/>
</g>
<!-- Node5 -->
<g id="node5" class="node">
<title>Node5</title>
<g id="a_node5"><a xlink:href="classPSR.html#ac31ff918bfcc4de90260a3c87b70d115" target="_top" xlink:title=" ">
<polygon fill="white" stroke="#666666" points="414.5,-391 357.5,-391 357.5,-372 414.5,-372 414.5,-391"/>
<text text-anchor="middle" x="386" y="-379" font-family="Helvetica,sans-Serif" font-size="10.00">PSR::get</text>
</a>
</g>
</g>
<!-- Node4&#45;&gt;Node5 -->
<g id="edge4" class="edge">
<title>Node4&#45;&gt;Node5</title>
<path fill="none" stroke="#63b8ff" d="M207.91,-298.15C226.63,-314.18 266.66,-346.25 306,-363.5 319.04,-369.22 334.11,-373.23 347.58,-375.99"/>
<polygon fill="#63b8ff" stroke="#63b8ff" points="347.02,-379.44 357.5,-377.86 348.32,-372.57 347.02,-379.44"/>
</g>
<!-- Node6 -->
<g id="node6" class="node">
<title>Node6</title>
<g id="a_node6"><a xlink:href="classCPU6502.html#a33f53aef61e99e83a5903f227aada495" target="_top" xlink:title=" ">
<polygon fill="white" stroke="#666666" points="433.5,-354 338.5,-354 338.5,-335 433.5,-335 433.5,-354"/>
<text text-anchor="middle" x="386" y="-342" font-family="Helvetica,sans-Serif" font-size="10.00">CPU6502::get_A</text>
</a>
</g>
</g>
<!-- Node4&#45;&gt;Node6 -->
<g id="edge5" class="edge">
<title>Node4&#45;&gt;Node6</title>
<path fill="none" stroke="#63b8ff" d="M221.86,-298.05C243.79,-306.27 276.72,-318.09 306,-326.5 313.51,-328.66 321.48,-330.73 329.36,-332.64"/>
<polygon fill="#63b8ff" stroke="#63b8ff" points="328.71,-336.09 339.24,-334.98 330.32,-329.27 328.71,-336.09"/>
</g>
<!-- Node7 -->
<g id="node7" class="node">
<title>Node7</title>
<g id="a_node7"><a xlink:href="classCPU6502.html#ad6bef8d017f575de5646eca2b1daf430" target="_top" xlink:title=" ">
<polygon fill="white" stroke="#666666" points="439.5,-317 332.5,-317 332.5,-298 439.5,-298 439.5,-317"/>
<text text-anchor="middle" x="386" y="-305" font-family="Helvetica,sans-Serif" font-size="10.00">CPU6502::get_PSR</text>
</a>
</g>
</g>
<!-- Node4&#45;&gt;Node7 -->
<g id="edge8" class="edge">
<title>Node4&#45;&gt;Node7</title>
<path fill="none" stroke="#63b8ff" d="M270.22,-295.9C287.39,-297.63 305.52,-299.47 322.18,-301.15"/>
<polygon fill="#63b8ff" stroke="#63b8ff" points="322.04,-304.65 332.34,-302.18 322.74,-297.69 322.04,-304.65"/>
</g>
<!-- Node8 -->
<g id="node8" class="node">
<title>Node8</title>
<g id="a_node8"><a xlink:href="classCPU6502.html#abe3331454039cc8a4c5376674bab3f64" target="_top" xlink:title=" ">
<polygon fill="white" stroke="#666666" points="433,-280 339,-280 339,-261 433,-261 433,-280"/>
<text text-anchor="middle" x="386" y="-268" font-family="Helvetica,sans-Serif" font-size="10.00">CPU6502::get_S</text>
</a>
</g>
</g>
<!-- Node4&#45;&gt;Node8 -->
<g id="edge9" class="edge">
<title>Node4&#45;&gt;Node8</title>
<path fill="none" stroke="#63b8ff" d="M270.22,-281.49C289.71,-279.62 310.45,-277.64 328.86,-275.87"/>
<polygon fill="#63b8ff" stroke="#63b8ff" points="329.21,-279.36 338.83,-274.92 328.54,-272.39 329.21,-279.36"/>
</g>
<!-- Node9 -->
<g id="node9" class="node">
<title>Node9</title>
<g id="a_node9"><a xlink:href="classCPU6502.html#ad64d87428d0c197f794953cb07d2470b" target="_top" xlink:title=" ">
<polygon fill="white" stroke="#666666" points="433.5,-243 338.5,-243 338.5,-224 433.5,-224 433.5,-243"/>
<text text-anchor="middle" x="386" y="-231" font-family="Helvetica,sans-Serif" font-size="10.00">CPU6502::get_X</text>
</a>
</g>
</g>
<!-- Node4&#45;&gt;Node9 -->
<g id="edge10" class="edge">
<title>Node4&#45;&gt;Node9</title>
<path fill="none" stroke="#63b8ff" d="M223.68,-279C245.63,-271.35 277.63,-260.58 306,-252.5 314.58,-250.06 323.73,-247.66 332.66,-245.44"/>
<polygon fill="#63b8ff" stroke="#63b8ff" points="333.72,-248.79 342.6,-243.01 332.06,-241.99 333.72,-248.79"/>
</g>
<!-- Node10 -->
<g id="node10" class="node">
<title>Node10</title>
<g id="a_node10"><a xlink:href="classCPU6502.html#a395b5450473ade61188f50ca69b0fd6a" target="_top" xlink:title=" ">
<polygon fill="white" stroke="#666666" points="433,-206 339,-206 339,-187 433,-187 433,-206"/>
<text text-anchor="middle" x="386" y="-194" font-family="Helvetica,sans-Serif" font-size="10.00">CPU6502::get_Y</text>
</a>
</g>
</g>
<!-- Node4&#45;&gt;Node10 -->
<g id="edge11" class="edge">
<title>Node4&#45;&gt;Node10</title>
<path fill="none" stroke="#63b8ff" d="M208.29,-278.93C227.24,-263.34 267.2,-232.51 306,-215.5 313.35,-212.28 321.33,-209.55 329.3,-207.26"/>
<polygon fill="#63b8ff" stroke="#63b8ff" points="330.22,-210.63 338.98,-204.67 328.41,-203.87 330.22,-210.63"/>
</g>
<!-- Node11 -->
<g id="node11" class="node">
<title>Node11</title>
<g id="a_node11"><a xlink:href="byte__utils_8h.html#ac7b93d9d05e25d6f96c994fa248af29f" target="_top" xlink:title=" ">
<polygon fill="white" stroke="#666666" points="432,-169 340,-169 340,-150 432,-150 432,-169"/>
<text text-anchor="middle" x="386" y="-157" font-family="Helvetica,sans-Serif" font-size="10.00">hex_to_number</text>
</a>
</g>
</g>
<!-- Node4&#45;&gt;Node11 -->
<g id="edge12" class="edge">
<title>Node4&#45;&gt;Node11</title>
<path fill="none" stroke="#63b8ff" d="M203.64,-278.8C218.98,-257.18 259.15,-204.89 306,-178.5 313.42,-174.32 321.73,-171.05 330.11,-168.51"/>
<polygon fill="#63b8ff" stroke="#63b8ff" points="331.19,-171.84 339.92,-165.83 329.35,-165.09 331.19,-171.84"/>
</g>
<!-- Node12 -->
<g id="node12" class="node">
<title>Node12</title>
<g id="a_node12"><a xlink:href="classCommand_1_1Command.html#a3dbf21522f602b248cbc7eea421dfb9c" target="_top" xlink:title=" ">
<polygon fill="white" stroke="#666666" points="464,-465 308,-465 308,-446 464,-446 464,-465"/>
<text text-anchor="middle" x="386" y="-453" font-family="Helvetica,sans-Serif" font-size="10.00">Command::Command::parse</text>
</a>
</g>
</g>
<!-- Node4&#45;&gt;Node12 -->
<g id="edge13" class="edge">
<title>Node4&#45;&gt;Node12</title>
<path fill="none" stroke="#63b8ff" d="M202.78,-298.11C220.96,-328.05 277.48,-418.75 306,-437.5 308.42,-439.09 310.97,-440.55 313.6,-441.87"/>
<polygon fill="#63b8ff" stroke="#63b8ff" points="312.27,-445.11 322.84,-445.91 315.08,-438.7 312.27,-445.11"/>
</g>
<!-- Node14 -->
<g id="node14" class="node">
<title>Node14</title>
<g id="a_node14"><a xlink:href="classDebugger.html#a0c1505f74dc7245b84e817fefab349f0" target="_top" xlink:title=" ">
<polygon fill="white" stroke="#666666" points="455.5,-132 316.5,-132 316.5,-113 455.5,-113 455.5,-132"/>
<text text-anchor="middle" x="386" y="-120" font-family="Helvetica,sans-Serif" font-size="10.00">Debugger::print_memory</text>
</a>
</g>
</g>
<!-- Node4&#45;&gt;Node14 -->
<g id="edge15" class="edge">
<title>Node4&#45;&gt;Node14</title>
<path fill="none" stroke="#63b8ff" d="M204.32,-278.91C217.55,-261.56 246.26,-223.75 270,-191.5 286.23,-169.45 283.27,-156.77 306,-141.5 308.96,-139.51 312.1,-137.73 315.37,-136.14"/>
<polygon fill="#63b8ff" stroke="#63b8ff" points="316.99,-139.25 324.83,-132.12 314.26,-132.81 316.99,-139.25"/>
</g>
<!-- Node4&#45;&gt;Node16 -->
<g id="edge18" class="edge">
<title>Node4&#45;&gt;Node16</title>
<path fill="none" stroke="#63b8ff" d="M205.56,-278.89C220.19,-262.09 250.35,-225.91 270,-191.5 290.75,-155.16 274.19,-131.69 306,-104.5 313.4,-98.17 322.55,-93.88 331.98,-90.98"/>
<polygon fill="#63b8ff" stroke="#63b8ff" points="333.02,-94.32 341.83,-88.43 331.27,-87.54 333.02,-94.32"/>
</g>
<!-- Node18 -->
<g id="node18" class="node">
<title>Node18</title>
<g id="a_node18"><a xlink:href="classDebugger.html#af5db2b7d529378ea1aa269785964c266" target="_top" xlink:title=" ">
<polygon fill="white" stroke="#666666" points="466,-428 306,-428 306,-409 466,-409 466,-428"/>
<text text-anchor="middle" x="386" y="-416" font-family="Helvetica,sans-Serif" font-size="10.00">Debugger::twos_complement</text>
</a>
</g>
</g>
<!-- Node4&#45;&gt;Node18 -->
<g id="edge21" class="edge">
<title>Node4&#45;&gt;Node18</title>
<path fill="none" stroke="#63b8ff" d="M203.35,-298.09C218.37,-319.98 258.44,-373.81 306,-400.5 309.26,-402.33 312.69,-403.97 316.23,-405.45"/>
<polygon fill="#63b8ff" stroke="#63b8ff" points="315.18,-408.79 325.78,-408.98 317.61,-402.23 315.18,-408.79"/>
</g>
<!-- Node13 -->
<g id="node13" class="node">
<title>Node13</title>
<g id="a_node13"><a xlink:href="namespaceCommand.html#a2411f60c5760436bf7e30a2d44acc56c" target="_top" xlink:title=" ">
<polygon fill="white" stroke="#666666" points="635,-465 502,-465 502,-446 635,-446 635,-465"/>
<text text-anchor="middle" x="568.5" y="-453" font-family="Helvetica,sans-Serif" font-size="10.00">Command::parse_name</text>
</a>
</g>
</g>
<!-- Node12&#45;&gt;Node13 -->
<g id="edge14" class="edge">
<title>Node12&#45;&gt;Node13</title>
<path fill="none" stroke="#63b8ff" d="M464.07,-455.5C473.19,-455.5 482.5,-455.5 491.6,-455.5"/>
<polygon fill="#63b8ff" stroke="#63b8ff" points="491.77,-459 501.77,-455.5 491.77,-452 491.77,-459"/>
</g>
<!-- Node15 -->
<g id="node15" class="node">
<title>Node15</title>
<g id="a_node15"><a xlink:href="classGP__Memory.html#a137b4c481288e6f2eb5de177f7a7fcb0" target="_top" xlink:title=" ">
<polygon fill="white" stroke="#666666" points="620,-113 517,-113 517,-94 620,-94 620,-113"/>
<text text-anchor="middle" x="568.5" y="-101" font-family="Helvetica,sans-Serif" font-size="10.00">GP_Memory::read</text>
</a>
</g>
</g>
<!-- Node14&#45;&gt;Node15 -->
<g id="edge16" class="edge">
<title>Node14&#45;&gt;Node15</title>
<path fill="none" stroke="#63b8ff" d="M455.75,-115.26C472.59,-113.49 490.47,-111.61 506.89,-109.88"/>
<polygon fill="#63b8ff" stroke="#63b8ff" points="507.32,-113.35 516.9,-108.83 506.59,-106.39 507.32,-113.35"/>
</g>
<!-- Node15&#45;&gt;Node15 -->
<g id="edge17" class="edge">
<title>Node15&#45;&gt;Node15</title>
<path fill="none" stroke="#63b8ff" d="M540.45,-113.08C526.8,-121.73 536.15,-131 568.5,-131 590.74,-131 602.11,-126.62 602.61,-121.07"/>
<polygon fill="#63b8ff" stroke="#63b8ff" points="605.38,-118.94 596.55,-113.08 599.8,-123.17 605.38,-118.94"/>
</g>
<!-- Node16&#45;&gt;Node15 -->
<g id="edge20" class="edge">
<title>Node16&#45;&gt;Node15</title>
<path fill="none" stroke="#63b8ff" d="M430.23,-89.81C453.15,-92.1 481.68,-94.94 506.78,-97.44"/>
<polygon fill="#63b8ff" stroke="#63b8ff" points="506.64,-100.95 516.94,-98.46 507.33,-93.98 506.64,-100.95"/>
</g>
<!-- Node16&#45;&gt;Node17 -->
<g id="edge19" class="edge">
<title>Node16&#45;&gt;Node17</title>
<path fill="none" stroke="#63b8ff" d="M430.23,-80.95C455.76,-78.26 488.24,-74.84 515.21,-72"/>
<polygon fill="#63b8ff" stroke="#63b8ff" points="515.66,-75.48 525.24,-70.95 514.93,-68.51 515.66,-75.48"/>
</g>
</g>
</svg>
        <g id="navigator" transform="translate(0 0)" fill="#404254">
                <rect fill="#f2f5e9" fill-opacity="0.5" stroke="#606060" stroke-width=".5" x="0" y="0" width="60" height="60"/>
                <use id="zoomplus" xlink:href="#zoomPlus" x="17" y="9" onmousedown="handleZoom(evt,'in')"/>
                <use id="zoomminus" xlink:href="#zoomMin" x="42" y="9" onmousedown="handleZoom(evt,'out')"/>
                <use id="reset" xlink:href="#resetDef" x="30" y="36" onmousedown="handleReset()"/>
                <g id="arrowUp" xlink:href="#dirArrow" transform="translate(30 24)" onmousedown="handlePan(0,-1)">
                  <use xlink:href="#rim" fill="#404040">
                        <set attributeName="fill" to="#808080" begin="arrowUp.mouseover" end="arrowUp.mouseout"/>
                  </use>
                  <path fill="none" stroke="white" stroke-width="1.5" d="M0,-3.0v7 M-2.5,-0.5L0,-3.0L2.5,-0.5"/>
                </g>
                <g id="arrowRight" xlink:href="#dirArrow" transform="rotate(90) translate(36 -43)" onmousedown="handlePan(1,0)">
                  <use xlink:href="#rim" fill="#404040">
                        <set attributeName="fill" to="#808080" begin="arrowRight.mouseover" end="arrowRight.mouseout"/>
                  </use>
                  <path fill="none" stroke="white" stroke-width="1.5" d="M0,-3.0v7 M-2.5,-0.5L0,-3.0L2.5,-0.5"/>
                </g>
                <g id="arrowDown" xlink:href="#dirArrow" transform="rotate(180) translate(-30 -48)" onmousedown="handlePan(0,1)">
                  <use xlink:href="#rim" fill="#404040">
                        <set attributeName="fill" to="#808080" begin="arrowDown.mouseover" end="arrowDown.mouseout"/>
                  </use>
                  <path fill="none" stroke="white" stroke-width="1.5" d="M0,-3.0v7 M-2.5,-0.5L0,-3.0L2.5,-0.5"/>
                </g>
                <g id="arrowLeft" xlink:href="#dirArrow" transform="rotate(270) translate(-36 17)" onmousedown="handlePan(-1,0)">
                  <use xlink:href="#rim" fill="#404040">
                        <set attributeName="fill" to="#808080" begin="arrowLeft.mouseover" end="arrowLeft.mouseout"/>
                  </use>
                  <path fill="none" stroke="white" stroke-width="1.5" d="M0,-3.0v7 M-2.5,-0.5L0,-3.0L2.5,-0.5"/>
                </g>
        </g>
        <svg viewBox="0 0 15 15" width="100%" height="30px" preserveAspectRatio="xMaxYMin meet">
         <g id="arrow_out" transform="scale(0.3 0.3)">
          <a xlink:href="classDebugger_a1df28a43e7686d9aa06714fc8b534072_cgraph_org.svg" target="_base">
           <rect id="button" ry="5" rx="5" y="6" x="6" height="38" width="38"
                fill="#f2f5e9" fill-opacity="0.5" stroke="#606060" stroke-width="1.0"/>
           <path id="arrow"
             d="M 11.500037,31.436501 C 11.940474,20.09759 22.043105,11.32322 32.158766,21.979434 L 37.068811,17.246167 C 37.068811,17.246167 37.088388,32 37.088388,32 L 22.160133,31.978069 C 22.160133,31.978069 26.997745,27.140456 26.997745,27.140456 C 18.528582,18.264221 13.291696,25.230495 11.500037,31.436501 z"
             style="fill:#404040;"/>
          </a>
         </g>
        </svg>
</svg>
