<?xml version="1.0" encoding="UTF-8" standalone="no"?>
<!DOCTYPE svg PUBLIC "-//W3C//DTD SVG 1.1//EN"
 "http://www.w3.org/Graphics/SVG/1.1/DTD/svg11.dtd">
<!-- Generated by graphviz version 2.43.0 (0)
 -->
<!-- Title: PSR::update_bit Pages: 1 -->
<svg width="212pt" height="64pt"
 viewBox="0.00 0.00 212.00 64.00" xmlns="http://www.w3.org/2000/svg" xmlns:xlink="http://www.w3.org/1999/xlink">
<g id="graph0" class="graph" transform="scale(1 1) rotate(0) translate(4 60)">
<title>PSR::update_bit</title>
<!-- Node1 -->
<g id="node1" class="node">
<title>Node1</title>
<g id="a_node1"><a xlink:title=" ">
<polygon fill="#999999" stroke="#666666" points="93,-37 0,-37 0,-18 93,-18 93,-37"/>
<text text-anchor="middle" x="46.5" y="-25" font-family="Helvetica,sans-Serif" font-size="10.00">PSR::update_bit</text>
</a>
</g>
</g>
<!-- Node2 -->
<g id="node2" class="node">
<title>Node2</title>
<g id="a_node2"><a xlink:href="classPSR.html#ab208a31083c7b2f2af3d87fe86ca46ff" target="_top" xlink:title=" ">
<polygon fill="white" stroke="#666666" points="204,-56 129,-56 129,-37 204,-37 204,-56"/>
<text text-anchor="middle" x="166.5" y="-44" font-family="Helvetica,sans-Serif" font-size="10.00">PSR::get_bit</text>
</a>
</g>
</g>
<!-- Node1&#45;&gt;Node2 -->
<g id="edge1" class="edge">
<title>Node1&#45;&gt;Node2</title>
<path fill="none" stroke="#63b8ff" d="M93.12,-34.85C101.51,-36.2 110.29,-37.61 118.71,-38.97"/>
<polygon fill="#63b8ff" stroke="#63b8ff" points="118.34,-42.45 128.77,-40.59 119.45,-35.54 118.34,-42.45"/>
</g>
<!-- Node3 -->
<g id="node3" class="node">
<title>Node3</title>
<g id="a_node3"><a xlink:href="classPSR.html#af4852938862acac03abafeceb68ee0c9" target="_top" xlink:title=" ">
<polygon fill="white" stroke="#666666" points="203.5,-19 129.5,-19 129.5,0 203.5,0 203.5,-19"/>
<text text-anchor="middle" x="166.5" y="-7" font-family="Helvetica,sans-Serif" font-size="10.00">PSR::set_bit</text>
</a>
</g>
</g>
<!-- Node1&#45;&gt;Node3 -->
<g id="edge2" class="edge">
<title>Node1&#45;&gt;Node3</title>
<path fill="none" stroke="#63b8ff" d="M93.12,-20.54C101.61,-19.25 110.48,-17.89 118.99,-16.59"/>
<polygon fill="#63b8ff" stroke="#63b8ff" points="119.78,-20.01 129.14,-15.05 118.72,-13.09 119.78,-20.01"/>
</g>
</g>
</svg>
