<?xml version="1.0" encoding="UTF-8" standalone="no"?>
<!DOCTYPE svg PUBLIC "-//W3C//DTD SVG 1.1//EN"
 "http://www.w3.org/Graphics/SVG/1.1/DTD/svg11.dtd">
<!-- Generated by graphviz version 2.43.0 (0)
 -->
<!-- Title: GP_Memory::size Pages: 1 -->
<svg width="333pt" height="101pt"
 viewBox="0.00 0.00 333.00 101.00" xmlns="http://www.w3.org/2000/svg" xmlns:xlink="http://www.w3.org/1999/xlink">
<g id="graph0" class="graph" transform="scale(1 1) rotate(0) translate(4 97)">
<title>GP_Memory::size</title>
<!-- Node1 -->
<g id="node1" class="node">
<title>Node1</title>
<g id="a_node1"><a xlink:title=" ">
<polygon fill="#999999" stroke="#666666" points="325,-56 224,-56 224,-37 325,-37 325,-56"/>
<text text-anchor="middle" x="274.5" y="-44" font-family="Helvetica,sans-Serif" font-size="10.00">GP_Memory::size</text>
</a>
</g>
</g>
<!-- Node2 -->
<g id="node2" class="node">
<title>Node2</title>
<g id="a_node2"><a xlink:href="classCPU6502.html#a088452e1727f362add3b5d803cb0bf9b" target="_top" xlink:title=" ">
<polygon fill="white" stroke="#666666" points="188,-93 77,-93 77,-74 188,-74 188,-93"/>
<text text-anchor="middle" x="132.5" y="-81" font-family="Helvetica,sans-Serif" font-size="10.00">CPU6502::CPU6502</text>
</a>
</g>
</g>
<!-- Node1&#45;&gt;Node2 -->
<g id="edge1" class="edge">
<title>Node1&#45;&gt;Node2</title>
<path fill="none" stroke="#63b8ff" d="M227.64,-58.62C208.91,-63.57 187.55,-69.22 169.92,-73.88"/>
<polygon fill="#63b8ff" stroke="#63b8ff" points="228.67,-61.97 237.45,-56.03 226.88,-55.2 228.67,-61.97"/>
</g>
<!-- Node3 -->
<g id="node3" class="node">
<title>Node3</title>
<g id="a_node3"><a xlink:href="classCPU6502.html#aca06dd908841b9880a5b027c36e180c3" target="_top" xlink:title="Executes the provided code in memory.">
<polygon fill="white" stroke="#666666" points="185,-56 80,-56 80,-37 185,-37 185,-56"/>
<text text-anchor="middle" x="132.5" y="-44" font-family="Helvetica,sans-Serif" font-size="10.00">CPU6502::execute</text>
</a>
</g>
</g>
<!-- Node1&#45;&gt;Node3 -->
<g id="edge2" class="edge">
<title>Node1&#45;&gt;Node3</title>
<path fill="none" stroke="#63b8ff" d="M213.69,-46.5C204.3,-46.5 194.66,-46.5 185.46,-46.5"/>
<polygon fill="#63b8ff" stroke="#63b8ff" points="213.75,-50 223.75,-46.5 213.75,-43 213.75,-50"/>
</g>
<!-- Node4 -->
<g id="node4" class="node">
<title>Node4</title>
<g id="a_node4"><a xlink:href="classDebugger.html#a1df28a43e7686d9aa06714fc8b534072" target="_top" xlink:title=" ">
<polygon fill="white" stroke="#666666" points="175.5,-19 89.5,-19 89.5,0 175.5,0 175.5,-19"/>
<text text-anchor="middle" x="132.5" y="-7" font-family="Helvetica,sans-Serif" font-size="10.00">Debugger::run</text>
</a>
</g>
</g>
<!-- Node1&#45;&gt;Node4 -->
<g id="edge3" class="edge">
<title>Node1&#45;&gt;Node4</title>
<path fill="none" stroke="#63b8ff" d="M227.64,-34.38C208.91,-29.43 187.55,-23.78 169.92,-19.12"/>
<polygon fill="#63b8ff" stroke="#63b8ff" points="226.88,-37.8 237.45,-36.97 228.67,-31.03 226.88,-37.8"/>
</g>
<!-- Node5 -->
<g id="node5" class="node">
<title>Node5</title>
<g id="a_node5"><a xlink:href="main_8cpp.html#a3c04138a5bfe5d72780bb7e82a18e627" target="_top" xlink:title=" ">
<polygon fill="white" stroke="#666666" points="41,-19 0,-19 0,0 41,0 41,-19"/>
<text text-anchor="middle" x="20.5" y="-7" font-family="Helvetica,sans-Serif" font-size="10.00">main</text>
</a>
</g>
</g>
<!-- Node4&#45;&gt;Node5 -->
<g id="edge4" class="edge">
<title>Node4&#45;&gt;Node5</title>
<path fill="none" stroke="#63b8ff" d="M79.02,-9.5C65.47,-9.5 51.72,-9.5 41.06,-9.5"/>
<polygon fill="#63b8ff" stroke="#63b8ff" points="79.29,-13 89.29,-9.5 79.29,-6 79.29,-13"/>
</g>
</g>
</svg>
