<?xml version="1.0" encoding="UTF-8" standalone="no"?>
<!DOCTYPE svg PUBLIC "-//W3C//DTD SVG 1.1//EN"
 "http://www.w3.org/Graphics/SVG/1.1/DTD/svg11.dtd">
<!-- Generated by graphviz version 2.43.0 (0)
 -->
<!-- Title: CPU6502::get_PC Pages: 1 -->
<svg width="492pt" height="46pt"
 viewBox="0.00 0.00 492.00 46.00" xmlns="http://www.w3.org/2000/svg" xmlns:xlink="http://www.w3.org/1999/xlink">
<g id="graph0" class="graph" transform="scale(1 1) rotate(0) translate(4 42)">
<title>CPU6502::get_PC</title>
<!-- Node1 -->
<g id="node1" class="node">
<title>Node1</title>
<g id="a_node1"><a xlink:title=" ">
<polygon fill="#999999" stroke="#666666" points="484,-19 383,-19 383,0 484,0 484,-19"/>
<text text-anchor="middle" x="433.5" y="-7" font-family="Helvetica,sans-Serif" font-size="10.00">CPU6502::get_PC</text>
</a>
</g>
</g>
<!-- Node2 -->
<g id="node2" class="node">
<title>Node2</title>
<g id="a_node2"><a xlink:href="classDebugger.html#a1b1c8e66cc7d4ea8c55f0adf02cd5494" target="_top" xlink:title=" ">
<polygon fill="white" stroke="#666666" points="347,-38 199,-38 199,-19 347,-19 347,-38"/>
<text text-anchor="middle" x="273" y="-26" font-family="Helvetica,sans-Serif" font-size="10.00">Debugger::go_to_debugger</text>
</a>
</g>
</g>
<!-- Node1&#45;&gt;Node2 -->
<g id="edge1" class="edge">
<title>Node1&#45;&gt;Node2</title>
<path fill="none" stroke="#63b8ff" d="M372.73,-16.66C364.35,-17.67 355.65,-18.71 347.05,-19.74"/>
<polygon fill="#63b8ff" stroke="#63b8ff" points="373.27,-20.13 382.78,-15.46 372.44,-13.17 373.27,-20.13"/>
</g>
<!-- Node3 -->
<g id="node3" class="node">
<title>Node3</title>
<g id="a_node3"><a xlink:href="classDebugger.html#a1df28a43e7686d9aa06714fc8b534072" target="_top" xlink:title=" ">
<polygon fill="white" stroke="#666666" points="163,-19 77,-19 77,0 163,0 163,-19"/>
<text text-anchor="middle" x="120" y="-7" font-family="Helvetica,sans-Serif" font-size="10.00">Debugger::run</text>
</a>
</g>
</g>
<!-- Node1&#45;&gt;Node3 -->
<g id="edge4" class="edge">
<title>Node1&#45;&gt;Node3</title>
<path fill="none" stroke="#63b8ff" d="M372.47,-9.5C310.98,-9.5 217,-9.5 163.03,-9.5"/>
<polygon fill="#63b8ff" stroke="#63b8ff" points="372.8,-13 382.8,-9.5 372.8,-6 372.8,-13"/>
</g>
<!-- Node2&#45;&gt;Node3 -->
<g id="edge2" class="edge">
<title>Node2&#45;&gt;Node3</title>
<path fill="none" stroke="#63b8ff" d="M188.73,-18.02C179.93,-16.91 171.26,-15.82 163.23,-14.81"/>
<polygon fill="#63b8ff" stroke="#63b8ff" points="188.35,-21.5 198.71,-19.28 189.23,-14.56 188.35,-21.5"/>
</g>
<!-- Node4 -->
<g id="node4" class="node">
<title>Node4</title>
<g id="a_node4"><a xlink:href="main_8cpp.html#a3c04138a5bfe5d72780bb7e82a18e627" target="_top" xlink:title=" ">
<polygon fill="white" stroke="#666666" points="41,-19 0,-19 0,0 41,0 41,-19"/>
<text text-anchor="middle" x="20.5" y="-7" font-family="Helvetica,sans-Serif" font-size="10.00">main</text>
</a>
</g>
</g>
<!-- Node3&#45;&gt;Node4 -->
<g id="edge3" class="edge">
<title>Node3&#45;&gt;Node4</title>
<path fill="none" stroke="#63b8ff" d="M66.52,-9.5C57.42,-9.5 48.5,-9.5 41.03,-9.5"/>
<polygon fill="#63b8ff" stroke="#63b8ff" points="66.8,-13 76.8,-9.5 66.8,-6 66.8,-13"/>
</g>
</g>
</svg>
