<?xml version="1.0" encoding="UTF-8" standalone="no"?>
<!DOCTYPE svg PUBLIC "-//W3C//DTD SVG 1.1//EN"
 "http://www.w3.org/Graphics/SVG/1.1/DTD/svg11.dtd">
<!-- Generated by graphviz version 2.43.0 (0)
 -->
<!-- Title: Debugger::go_to_debugger Pages: 1 -->
<!--zoomable 471 -->
<svg id="main" version="1.1" xmlns="http://www.w3.org/2000/svg" xmlns:xlink="http://www.w3.org/1999/xlink" xml:space="preserve" onload="init(evt)">
<style type="text/css"><![CDATA[
.edge:hover path { stroke: red; }
.edge:hover polygon { stroke: red; fill: red; }
]]></style>
<script type="text/javascript"><![CDATA[
var edges = document.getElementsByTagName('g');
if (edges && edges.length) {
  for (var i=0;i<edges.length;i++) {
    if (edges[i].id.substr(0,4)=='edge') {
      edges[i].setAttribute('class','edge');
    }
  }
}
]]></script>
        <defs>
                <circle id="rim" cx="0" cy="0" r="7"/>
                <circle id="rim2" cx="0" cy="0" r="3.5"/>
                <g id="zoomPlus">
                        <use xlink:href="#rim" fill="#404040">
                                <set attributeName="fill" to="#808080" begin="zoomplus.mouseover" end="zoomplus.mouseout"/>
                        </use>
                        <path d="M-4,0h8M0,-4v8" fill="none" stroke="white" stroke-width="1.5" pointer-events="none"/>
                </g>
                <g id="zoomMin">
                        <use xlink:href="#rim" fill="#404040">
                                <set attributeName="fill" to="#808080" begin="zoomminus.mouseover" end="zoomminus.mouseout"/>
                        </use>
                        <path d="M-4,0h8" fill="none" stroke="white" stroke-width="1.5" pointer-events="none"/>
                </g>
                <g id="dirArrow">
                        <path fill="none" stroke="white" stroke-width="1.5" d="M0,-3.0v7 M-2.5,-0.5L0,-3.0L2.5,-0.5"/>
                </g>
               <g id="resetDef">
                       <use xlink:href="#rim2" fill="#404040">
                               <set attributeName="fill" to="#808080" begin="reset.mouseover" end="reset.mouseout"/>
                       </use>
               </g>
        </defs>

<script type="text/javascript">
var viewWidth = 521;
var viewHeight = 471;
var sectionId = 'dynsection-1';
</script>
<script xlink:href="svgpan.js"/>
<svg id="graph" class="graph">
<g id="viewport">
<title>Debugger::go_to_debugger</title>
<!-- Node1 -->
<g id="node1" class="node">
<title>Node1</title>
<g id="a_node1"><a xlink:title=" ">
<polygon fill="#999999" stroke="#666666" points="148,-241 0,-241 0,-222 148,-222 148,-241"/>
<text text-anchor="middle" x="74" y="-229" font-family="Helvetica,sans-Serif" font-size="10.00">Debugger::go_to_debugger</text>
</a>
</g>
</g>
<!-- Node2 -->
<g id="node2" class="node">
<title>Node2</title>
<g id="a_node2"><a xlink:href="classPSR.html#ac31ff918bfcc4de90260a3c87b70d115" target="_top" xlink:title=" ">
<polygon fill="white" stroke="#666666" points="292.5,-463 235.5,-463 235.5,-444 292.5,-444 292.5,-463"/>
<text text-anchor="middle" x="264" y="-451" font-family="Helvetica,sans-Serif" font-size="10.00">PSR::get</text>
</a>
</g>
</g>
<!-- Node1&#45;&gt;Node2 -->
<g id="edge1" class="edge">
<title>Node1&#45;&gt;Node2</title>
<path fill="none" stroke="#63b8ff" d="M77.1,-241.03C84.86,-273.82 115.06,-382.87 184,-435.5 195.79,-444.5 211.26,-449.14 225.39,-451.48"/>
<polygon fill="#63b8ff" stroke="#63b8ff" points="224.99,-454.96 235.36,-452.81 225.92,-448.02 224.99,-454.96"/>
</g>
<!-- Node3 -->
<g id="node3" class="node">
<title>Node3</title>
<g id="a_node3"><a xlink:href="classCPU6502.html#a33f53aef61e99e83a5903f227aada495" target="_top" xlink:title=" ">
<polygon fill="white" stroke="#666666" points="311.5,-426 216.5,-426 216.5,-407 311.5,-407 311.5,-426"/>
<text text-anchor="middle" x="264" y="-414" font-family="Helvetica,sans-Serif" font-size="10.00">CPU6502::get_A</text>
</a>
</g>
</g>
<!-- Node1&#45;&gt;Node3 -->
<g id="edge2" class="edge">
<title>Node1&#45;&gt;Node3</title>
<path fill="none" stroke="#63b8ff" d="M78.36,-241.3C88.88,-270.37 124.05,-356.75 184,-398.5 190.73,-403.19 198.49,-406.67 206.47,-409.26"/>
<polygon fill="#63b8ff" stroke="#63b8ff" points="205.67,-412.67 216.24,-411.99 207.55,-405.93 205.67,-412.67"/>
</g>
<!-- Node4 -->
<g id="node4" class="node">
<title>Node4</title>
<g id="a_node4"><a xlink:href="classCPU6502.html#a06a35e0aad53b393936204b3cc548cf5" target="_top" xlink:title=" ">
<polygon fill="white" stroke="#666666" points="328.5,-389 199.5,-389 199.5,-370 328.5,-370 328.5,-389"/>
<text text-anchor="middle" x="264" y="-377" font-family="Helvetica,sans-Serif" font-size="10.00">CPU6502::get_memory</text>
</a>
</g>
</g>
<!-- Node1&#45;&gt;Node4 -->
<g id="edge3" class="edge">
<title>Node1&#45;&gt;Node4</title>
<path fill="none" stroke="#63b8ff" d="M80.12,-241.17C93.58,-265.59 132.48,-330.02 184,-361.5 186.82,-363.22 189.79,-364.78 192.85,-366.19"/>
<polygon fill="#63b8ff" stroke="#63b8ff" points="191.71,-369.5 202.29,-369.99 194.32,-363.01 191.71,-369.5"/>
</g>
<!-- Node5 -->
<g id="node5" class="node">
<title>Node5</title>
<g id="a_node5"><a xlink:href="classCPU6502.html#a9f7496296291584bafb4a1fd518f4d94" target="_top" xlink:title=" ">
<polygon fill="white" stroke="#666666" points="314.5,-352 213.5,-352 213.5,-333 314.5,-333 314.5,-352"/>
<text text-anchor="middle" x="264" y="-340" font-family="Helvetica,sans-Serif" font-size="10.00">CPU6502::get_PC</text>
</a>
</g>
</g>
<!-- Node1&#45;&gt;Node5 -->
<g id="edge4" class="edge">
<title>Node1&#45;&gt;Node5</title>
<path fill="none" stroke="#63b8ff" d="M83.23,-241.12C100.1,-260.17 140.65,-302.74 184,-324.5 190.08,-327.55 196.69,-330.09 203.4,-332.21"/>
<polygon fill="#63b8ff" stroke="#63b8ff" points="202.68,-335.64 213.26,-335.01 204.6,-328.91 202.68,-335.64"/>
</g>
<!-- Node6 -->
<g id="node6" class="node">
<title>Node6</title>
<g id="a_node6"><a xlink:href="classCPU6502.html#ad6bef8d017f575de5646eca2b1daf430" target="_top" xlink:title=" ">
<polygon fill="white" stroke="#666666" points="317.5,-315 210.5,-315 210.5,-296 317.5,-296 317.5,-315"/>
<text text-anchor="middle" x="264" y="-303" font-family="Helvetica,sans-Serif" font-size="10.00">CPU6502::get_PSR</text>
</a>
</g>
</g>
<!-- Node1&#45;&gt;Node6 -->
<g id="edge5" class="edge">
<title>Node1&#45;&gt;Node6</title>
<path fill="none" stroke="#63b8ff" d="M90.68,-241.16C111.36,-253.51 149.22,-274.83 184,-287.5 189.9,-289.65 196.14,-291.59 202.43,-293.34"/>
<polygon fill="#63b8ff" stroke="#63b8ff" points="201.74,-296.78 212.3,-295.93 203.52,-290.01 201.74,-296.78"/>
</g>
<!-- Node7 -->
<g id="node7" class="node">
<title>Node7</title>
<g id="a_node7"><a xlink:href="classCPU6502.html#abe3331454039cc8a4c5376674bab3f64" target="_top" xlink:title=" ">
<polygon fill="white" stroke="#666666" points="311,-278 217,-278 217,-259 311,-259 311,-278"/>
<text text-anchor="middle" x="264" y="-266" font-family="Helvetica,sans-Serif" font-size="10.00">CPU6502::get_S</text>
</a>
</g>
</g>
<!-- Node1&#45;&gt;Node7 -->
<g id="edge6" class="edge">
<title>Node1&#45;&gt;Node7</title>
<path fill="none" stroke="#63b8ff" d="M123.41,-241.03C148.88,-246.04 180.24,-252.21 206.78,-257.44"/>
<polygon fill="#63b8ff" stroke="#63b8ff" points="206.21,-260.89 216.69,-259.39 207.56,-254.02 206.21,-260.89"/>
</g>
<!-- Node8 -->
<g id="node8" class="node">
<title>Node8</title>
<g id="a_node8"><a xlink:href="classCPU6502.html#ad64d87428d0c197f794953cb07d2470b" target="_top" xlink:title=" ">
<polygon fill="white" stroke="#666666" points="311.5,-241 216.5,-241 216.5,-222 311.5,-222 311.5,-241"/>
<text text-anchor="middle" x="264" y="-229" font-family="Helvetica,sans-Serif" font-size="10.00">CPU6502::get_X</text>
</a>
</g>
</g>
<!-- Node1&#45;&gt;Node8 -->
<g id="edge7" class="edge">
<title>Node1&#45;&gt;Node8</title>
<path fill="none" stroke="#63b8ff" d="M148.22,-231.5C167.45,-231.5 187.89,-231.5 206.11,-231.5"/>
<polygon fill="#63b8ff" stroke="#63b8ff" points="206.28,-235 216.28,-231.5 206.28,-228 206.28,-235"/>
</g>
<!-- Node9 -->
<g id="node9" class="node">
<title>Node9</title>
<g id="a_node9"><a xlink:href="classCPU6502.html#a395b5450473ade61188f50ca69b0fd6a" target="_top" xlink:title=" ">
<polygon fill="white" stroke="#666666" points="311,-204 217,-204 217,-185 311,-185 311,-204"/>
<text text-anchor="middle" x="264" y="-192" font-family="Helvetica,sans-Serif" font-size="10.00">CPU6502::get_Y</text>
</a>
</g>
</g>
<!-- Node1&#45;&gt;Node9 -->
<g id="edge8" class="edge">
<title>Node1&#45;&gt;Node9</title>
<path fill="none" stroke="#63b8ff" d="M123.41,-221.97C148.88,-216.96 180.24,-210.79 206.78,-205.56"/>
<polygon fill="#63b8ff" stroke="#63b8ff" points="207.56,-208.98 216.69,-203.61 206.21,-202.11 207.56,-208.98"/>
</g>
<!-- Node10 -->
<g id="node10" class="node">
<title>Node10</title>
<g id="a_node10"><a xlink:href="byte__utils_8h.html#ac7b93d9d05e25d6f96c994fa248af29f" target="_top" xlink:title=" ">
<polygon fill="white" stroke="#666666" points="310,-167 218,-167 218,-148 310,-148 310,-167"/>
<text text-anchor="middle" x="264" y="-155" font-family="Helvetica,sans-Serif" font-size="10.00">hex_to_number</text>
</a>
</g>
</g>
<!-- Node1&#45;&gt;Node10 -->
<g id="edge9" class="edge">
<title>Node1&#45;&gt;Node10</title>
<path fill="none" stroke="#63b8ff" d="M91.09,-221.89C111.9,-209.81 149.57,-189.13 184,-176.5 191.63,-173.7 199.82,-171.2 207.94,-169.01"/>
<polygon fill="#63b8ff" stroke="#63b8ff" points="208.95,-172.36 217.76,-166.48 207.2,-165.58 208.95,-172.36"/>
</g>
<!-- Node11 -->
<g id="node11" class="node">
<title>Node11</title>
<g id="a_node11"><a xlink:href="classCommand_1_1Command.html#a3dbf21522f602b248cbc7eea421dfb9c" target="_top" xlink:title=" ">
<polygon fill="white" stroke="#666666" points="342,-130 186,-130 186,-111 342,-111 342,-130"/>
<text text-anchor="middle" x="264" y="-118" font-family="Helvetica,sans-Serif" font-size="10.00">Command::Command::parse</text>
</a>
</g>
</g>
<!-- Node1&#45;&gt;Node11 -->
<g id="edge10" class="edge">
<title>Node1&#45;&gt;Node11</title>
<path fill="none" stroke="#63b8ff" d="M83.54,-221.74C100.64,-202.84 141.14,-161.19 184,-139.5 188.8,-137.07 193.92,-134.94 199.16,-133.08"/>
<polygon fill="#63b8ff" stroke="#63b8ff" points="200.24,-136.41 208.68,-130.01 198.09,-129.75 200.24,-136.41"/>
</g>
<!-- Node13 -->
<g id="node13" class="node">
<title>Node13</title>
<g id="a_node13"><a xlink:href="classDebugger.html#a0c1505f74dc7245b84e817fefab349f0" target="_top" xlink:title=" ">
<polygon fill="white" stroke="#666666" points="333.5,-93 194.5,-93 194.5,-74 333.5,-74 333.5,-93"/>
<text text-anchor="middle" x="264" y="-81" font-family="Helvetica,sans-Serif" font-size="10.00">Debugger::print_memory</text>
</a>
</g>
</g>
<!-- Node1&#45;&gt;Node13 -->
<g id="edge12" class="edge">
<title>Node1&#45;&gt;Node13</title>
<path fill="none" stroke="#63b8ff" d="M80.16,-221.94C93.72,-197.79 132.84,-134.05 184,-102.5 187.41,-100.39 191.05,-98.52 194.8,-96.86"/>
<polygon fill="#63b8ff" stroke="#63b8ff" points="196.31,-100.03 204.35,-93.13 193.76,-93.51 196.31,-100.03"/>
</g>
<!-- Node15 -->
<g id="node15" class="node">
<title>Node15</title>
<g id="a_node15"><a xlink:href="classCPU6502.html#a47cca859097af3da244b68c3034b9443" target="_top" xlink:title=" ">
<polygon fill="white" stroke="#666666" points="308,-56 220,-56 220,-37 308,-37 308,-56"/>
<text text-anchor="middle" x="264" y="-44" font-family="Helvetica,sans-Serif" font-size="10.00">CPU6502::step</text>
</a>
</g>
</g>
<!-- Node1&#45;&gt;Node15 -->
<g id="edge15" class="edge">
<title>Node1&#45;&gt;Node15</title>
<path fill="none" stroke="#63b8ff" d="M78.4,-221.79C89.03,-192.98 124.49,-107.35 184,-65.5 191.71,-60.08 200.78,-56.19 209.97,-53.41"/>
<polygon fill="#63b8ff" stroke="#63b8ff" points="211.15,-56.72 219.94,-50.8 209.38,-49.95 211.15,-56.72"/>
</g>
<!-- Node17 -->
<g id="node17" class="node">
<title>Node17</title>
<g id="a_node17"><a xlink:href="classDebugger.html#af5db2b7d529378ea1aa269785964c266" target="_top" xlink:title=" ">
<polygon fill="white" stroke="#666666" points="344,-19 184,-19 184,0 344,0 344,-19"/>
<text text-anchor="middle" x="264" y="-7" font-family="Helvetica,sans-Serif" font-size="10.00">Debugger::twos_complement</text>
</a>
</g>
</g>
<!-- Node1&#45;&gt;Node17 -->
<g id="edge18" class="edge">
<title>Node1&#45;&gt;Node17</title>
<path fill="none" stroke="#63b8ff" d="M77.1,-221.97C84.86,-189.18 115.06,-80.13 184,-27.5 185.82,-26.11 187.72,-24.83 189.7,-23.64"/>
<polygon fill="#63b8ff" stroke="#63b8ff" points="191.42,-26.69 198.74,-19.03 188.24,-20.46 191.42,-26.69"/>
</g>
<!-- Node12 -->
<g id="node12" class="node">
<title>Node12</title>
<g id="a_node12"><a xlink:href="namespaceCommand.html#a2411f60c5760436bf7e30a2d44acc56c" target="_top" xlink:title=" ">
<polygon fill="white" stroke="#666666" points="513,-139 380,-139 380,-120 513,-120 513,-139"/>
<text text-anchor="middle" x="446.5" y="-127" font-family="Helvetica,sans-Serif" font-size="10.00">Command::parse_name</text>
</a>
</g>
</g>
<!-- Node11&#45;&gt;Node12 -->
<g id="edge11" class="edge">
<title>Node11&#45;&gt;Node12</title>
<path fill="none" stroke="#63b8ff" d="M342.07,-124.34C351.19,-124.8 360.5,-125.26 369.6,-125.72"/>
<polygon fill="#63b8ff" stroke="#63b8ff" points="369.61,-129.22 379.77,-126.22 369.96,-122.23 369.61,-129.22"/>
</g>
<!-- Node14 -->
<g id="node14" class="node">
<title>Node14</title>
<g id="a_node14"><a xlink:href="classGP__Memory.html#a137b4c481288e6f2eb5de177f7a7fcb0" target="_top" xlink:title=" ">
<polygon fill="white" stroke="#666666" points="498,-84 395,-84 395,-65 498,-65 498,-84"/>
<text text-anchor="middle" x="446.5" y="-72" font-family="Helvetica,sans-Serif" font-size="10.00">GP_Memory::read</text>
</a>
</g>
</g>
<!-- Node13&#45;&gt;Node14 -->
<g id="edge13" class="edge">
<title>Node13&#45;&gt;Node14</title>
<path fill="none" stroke="#63b8ff" d="M333.75,-80.07C350.59,-79.23 368.47,-78.34 384.89,-77.52"/>
<polygon fill="#63b8ff" stroke="#63b8ff" points="385.09,-81.02 394.9,-77.02 384.74,-74.03 385.09,-81.02"/>
</g>
<!-- Node14&#45;&gt;Node14 -->
<g id="edge14" class="edge">
<title>Node14&#45;&gt;Node14</title>
<path fill="none" stroke="#63b8ff" d="M418.45,-84.08C404.8,-92.73 414.15,-102 446.5,-102 468.74,-102 480.11,-97.62 480.61,-92.07"/>
<polygon fill="#63b8ff" stroke="#63b8ff" points="483.38,-89.94 474.55,-84.08 477.8,-94.17 483.38,-89.94"/>
</g>
<!-- Node15&#45;&gt;Node14 -->
<g id="edge17" class="edge">
<title>Node15&#45;&gt;Node14</title>
<path fill="none" stroke="#63b8ff" d="M308.23,-53.21C331.15,-56.76 359.68,-61.19 384.78,-65.08"/>
<polygon fill="#63b8ff" stroke="#63b8ff" points="384.52,-68.58 394.94,-66.66 385.59,-61.66 384.52,-68.58"/>
</g>
<!-- Node16 -->
<g id="node16" class="node">
<title>Node16</title>
<g id="a_node16"><a xlink:href="classaddress.html#add0092eb4577fdc3ec396a0fdf276b30" target="_top" xlink:title=" ">
<polygon fill="white" stroke="#666666" points="489.5,-47 403.5,-47 403.5,-28 489.5,-28 489.5,-47"/>
<text text-anchor="middle" x="446.5" y="-35" font-family="Helvetica,sans-Serif" font-size="10.00">address::inner</text>
</a>
</g>
</g>
<!-- Node15&#45;&gt;Node16 -->
<g id="edge16" class="edge">
<title>Node15&#45;&gt;Node16</title>
<path fill="none" stroke="#63b8ff" d="M308.23,-44.34C333.76,-43.07 366.24,-41.45 393.21,-40.11"/>
<polygon fill="#63b8ff" stroke="#63b8ff" points="393.43,-43.6 403.24,-39.61 393.08,-36.61 393.43,-43.6"/>
</g>
</g>
</svg>
        <g id="navigator" transform="translate(0 0)" fill="#404254">
                <rect fill="#f2f5e9" fill-opacity="0.5" stroke="#606060" stroke-width=".5" x="0" y="0" width="60" height="60"/>
                <use id="zoomplus" xlink:href="#zoomPlus" x="17" y="9" onmousedown="handleZoom(evt,'in')"/>
                <use id="zoomminus" xlink:href="#zoomMin" x="42" y="9" onmousedown="handleZoom(evt,'out')"/>
                <use id="reset" xlink:href="#resetDef" x="30" y="36" onmousedown="handleReset()"/>
                <g id="arrowUp" xlink:href="#dirArrow" transform="translate(30 24)" onmousedown="handlePan(0,-1)">
                  <use xlink:href="#rim" fill="#404040">
                        <set attributeName="fill" to="#808080" begin="arrowUp.mouseover" end="arrowUp.mouseout"/>
                  </use>
                  <path fill="none" stroke="white" stroke-width="1.5" d="M0,-3.0v7 M-2.5,-0.5L0,-3.0L2.5,-0.5"/>
                </g>
                <g id="arrowRight" xlink:href="#dirArrow" transform="rotate(90) translate(36 -43)" onmousedown="handlePan(1,0)">
                  <use xlink:href="#rim" fill="#404040">
                        <set attributeName="fill" to="#808080" begin="arrowRight.mouseover" end="arrowRight.mouseout"/>
                  </use>
                  <path fill="none" stroke="white" stroke-width="1.5" d="M0,-3.0v7 M-2.5,-0.5L0,-3.0L2.5,-0.5"/>
                </g>
                <g id="arrowDown" xlink:href="#dirArrow" transform="rotate(180) translate(-30 -48)" onmousedown="handlePan(0,1)">
                  <use xlink:href="#rim" fill="#404040">
                        <set attributeName="fill" to="#808080" begin="arrowDown.mouseover" end="arrowDown.mouseout"/>
                  </use>
                  <path fill="none" stroke="white" stroke-width="1.5" d="M0,-3.0v7 M-2.5,-0.5L0,-3.0L2.5,-0.5"/>
                </g>
                <g id="arrowLeft" xlink:href="#dirArrow" transform="rotate(270) translate(-36 17)" onmousedown="handlePan(-1,0)">
                  <use xlink:href="#rim" fill="#404040">
                        <set attributeName="fill" to="#808080" begin="arrowLeft.mouseover" end="arrowLeft.mouseout"/>
                  </use>
                  <path fill="none" stroke="white" stroke-width="1.5" d="M0,-3.0v7 M-2.5,-0.5L0,-3.0L2.5,-0.5"/>
                </g>
        </g>
        <svg viewBox="0 0 15 15" width="100%" height="30px" preserveAspectRatio="xMaxYMin meet">
         <g id="arrow_out" transform="scale(0.3 0.3)">
          <a xlink:href="classDebugger_a1b1c8e66cc7d4ea8c55f0adf02cd5494_cgraph_org.svg" target="_base">
           <rect id="button" ry="5" rx="5" y="6" x="6" height="38" width="38"
                fill="#f2f5e9" fill-opacity="0.5" stroke="#606060" stroke-width="1.0"/>
           <path id="arrow"
             d="M 11.500037,31.436501 C 11.940474,20.09759 22.043105,11.32322 32.158766,21.979434 L 37.068811,17.246167 C 37.068811,17.246167 37.088388,32 37.088388,32 L 22.160133,31.978069 C 22.160133,31.978069 26.997745,27.140456 26.997745,27.140456 C 18.528582,18.264221 13.291696,25.230495 11.500037,31.436501 z"
             style="fill:#404040;"/>
          </a>
         </g>
        </svg>
</svg>
