<?xml version="1.0" encoding="UTF-8" standalone="no"?>
<!DOCTYPE svg PUBLIC "-//W3C//DTD SVG 1.1//EN"
 "http://www.w3.org/Graphics/SVG/1.1/DTD/svg11.dtd">
<!-- Generated by graphviz version 2.43.0 (0)
 -->
<!-- Title: address::inner Pages: 1 -->
<svg width="601pt" height="102pt"
 viewBox="0.00 0.00 601.00 102.00" xmlns="http://www.w3.org/2000/svg" xmlns:xlink="http://www.w3.org/1999/xlink">
<g id="graph0" class="graph" transform="scale(1 1) rotate(0) translate(4 98)">
<title>address::inner</title>
<!-- Node1 -->
<g id="node1" class="node">
<title>Node1</title>
<g id="a_node1"><a xlink:title=" ">
<polygon fill="#999999" stroke="#666666" points="593,-56 507,-56 507,-37 593,-37 593,-56"/>
<text text-anchor="middle" x="550" y="-44" font-family="Helvetica,sans-Serif" font-size="10.00">address::inner</text>
</a>
</g>
</g>
<!-- Node2 -->
<g id="node2" class="node">
<title>Node2</title>
<g id="a_node2"><a xlink:href="classCPU6502.html#aca06dd908841b9880a5b027c36e180c3" target="_top" xlink:title="Executes the provided code in memory.">
<polygon fill="white" stroke="#666666" points="325.5,-94 220.5,-94 220.5,-75 325.5,-75 325.5,-94"/>
<text text-anchor="middle" x="273" y="-82" font-family="Helvetica,sans-Serif" font-size="10.00">CPU6502::execute</text>
</a>
</g>
</g>
<!-- Node1&#45;&gt;Node2 -->
<g id="edge1" class="edge">
<title>Node1&#45;&gt;Node2</title>
<path fill="none" stroke="#63b8ff" d="M504.53,-58.49C493.62,-61.11 481.94,-63.65 471,-65.5 422.04,-73.78 365.59,-78.77 325.7,-81.54"/>
<polygon fill="#63b8ff" stroke="#63b8ff" points="505.41,-61.88 514.28,-56.08 503.73,-55.09 505.41,-61.88"/>
</g>
<!-- Node3 -->
<g id="node3" class="node">
<title>Node3</title>
<g id="a_node3"><a xlink:href="classDebugger.html#a1df28a43e7686d9aa06714fc8b534072" target="_top" xlink:title=" ">
<polygon fill="white" stroke="#666666" points="163,-19 77,-19 77,0 163,0 163,-19"/>
<text text-anchor="middle" x="120" y="-7" font-family="Helvetica,sans-Serif" font-size="10.00">Debugger::run</text>
</a>
</g>
</g>
<!-- Node1&#45;&gt;Node3 -->
<g id="edge2" class="edge">
<title>Node1&#45;&gt;Node3</title>
<path fill="none" stroke="#63b8ff" d="M503.2,-34.51C492.67,-31.99 481.48,-29.49 471,-27.5 416.35,-17.13 402.49,-14.41 347,-10.5 283.01,-5.99 208.57,-6.83 163.13,-8.03"/>
<polygon fill="#63b8ff" stroke="#63b8ff" points="502.51,-37.95 513.05,-36.93 504.17,-31.15 502.51,-37.95"/>
</g>
<!-- Node5 -->
<g id="node5" class="node">
<title>Node5</title>
<g id="a_node5"><a xlink:href="classCPU6502.html#a47cca859097af3da244b68c3034b9443" target="_top" xlink:title=" ">
<polygon fill="white" stroke="#666666" points="471,-56 383,-56 383,-37 471,-37 471,-56"/>
<text text-anchor="middle" x="427" y="-44" font-family="Helvetica,sans-Serif" font-size="10.00">CPU6502::step</text>
</a>
</g>
</g>
<!-- Node1&#45;&gt;Node5 -->
<g id="edge4" class="edge">
<title>Node1&#45;&gt;Node5</title>
<path fill="none" stroke="#63b8ff" d="M496.56,-46.5C488.13,-46.5 479.5,-46.5 471.32,-46.5"/>
<polygon fill="#63b8ff" stroke="#63b8ff" points="496.68,-50 506.68,-46.5 496.68,-43 496.68,-50"/>
</g>
<!-- Node4 -->
<g id="node4" class="node">
<title>Node4</title>
<g id="a_node4"><a xlink:href="main_8cpp.html#a3c04138a5bfe5d72780bb7e82a18e627" target="_top" xlink:title=" ">
<polygon fill="white" stroke="#666666" points="41,-19 0,-19 0,0 41,0 41,-19"/>
<text text-anchor="middle" x="20.5" y="-7" font-family="Helvetica,sans-Serif" font-size="10.00">main</text>
</a>
</g>
</g>
<!-- Node3&#45;&gt;Node4 -->
<g id="edge3" class="edge">
<title>Node3&#45;&gt;Node4</title>
<path fill="none" stroke="#63b8ff" d="M66.52,-9.5C57.42,-9.5 48.5,-9.5 41.03,-9.5"/>
<polygon fill="#63b8ff" stroke="#63b8ff" points="66.8,-13 76.8,-9.5 66.8,-6 66.8,-13"/>
</g>
<!-- Node5&#45;&gt;Node2 -->
<g id="edge5" class="edge">
<title>Node5&#45;&gt;Node2</title>
<path fill="none" stroke="#63b8ff" d="M378.82,-58.5C368.34,-61.14 357.3,-63.93 347,-66.5 335.98,-69.25 324.02,-72.21 313.03,-74.92"/>
<polygon fill="#63b8ff" stroke="#63b8ff" points="379.8,-61.86 388.64,-56.01 378.09,-55.07 379.8,-61.86"/>
</g>
<!-- Node5&#45;&gt;Node3 -->
<g id="edge8" class="edge">
<title>Node5&#45;&gt;Node3</title>
<path fill="none" stroke="#63b8ff" d="M379.33,-34.73C368.75,-32.38 357.53,-30.13 347,-28.5 283.38,-18.63 208.84,-13.62 163.28,-11.28"/>
<polygon fill="#63b8ff" stroke="#63b8ff" points="378.7,-38.17 389.23,-37 380.27,-31.35 378.7,-38.17"/>
</g>
<!-- Node6 -->
<g id="node6" class="node">
<title>Node6</title>
<g id="a_node6"><a xlink:href="classDebugger.html#a1b1c8e66cc7d4ea8c55f0adf02cd5494" target="_top" xlink:title=" ">
<polygon fill="white" stroke="#666666" points="347,-57 199,-57 199,-38 347,-38 347,-57"/>
<text text-anchor="middle" x="273" y="-45" font-family="Helvetica,sans-Serif" font-size="10.00">Debugger::go_to_debugger</text>
</a>
</g>
</g>
<!-- Node5&#45;&gt;Node6 -->
<g id="edge6" class="edge">
<title>Node5&#45;&gt;Node6</title>
<path fill="none" stroke="#63b8ff" d="M372.65,-46.85C364.4,-46.91 355.76,-46.96 347.17,-47.02"/>
<polygon fill="#63b8ff" stroke="#63b8ff" points="372.87,-50.35 382.85,-46.78 372.83,-43.35 372.87,-50.35"/>
</g>
<!-- Node6&#45;&gt;Node3 -->
<g id="edge7" class="edge">
<title>Node6&#45;&gt;Node3</title>
<path fill="none" stroke="#63b8ff" d="M224.16,-35.46C203.06,-30.15 178.62,-24 158.83,-19.02"/>
<polygon fill="#63b8ff" stroke="#63b8ff" points="223.34,-38.86 233.9,-37.91 225.05,-32.08 223.34,-38.86"/>
</g>
</g>
</svg>
