<?xml version="1.0" encoding="UTF-8" standalone="no"?>
<!DOCTYPE svg PUBLIC "-//W3C//DTD SVG 1.1//EN"
 "http://www.w3.org/Graphics/SVG/1.1/DTD/svg11.dtd">
<!-- Generated by graphviz version 2.43.0 (0)
 -->
<!-- Title: CPU6502::step Pages: 1 -->
<svg width="235pt" height="82pt"
 viewBox="0.00 0.00 235.00 82.00" xmlns="http://www.w3.org/2000/svg" xmlns:xlink="http://www.w3.org/1999/xlink">
<g id="graph0" class="graph" transform="scale(1 1) rotate(0) translate(4 78)">
<title>CPU6502::step</title>
<!-- Node1 -->
<g id="node1" class="node">
<title>Node1</title>
<g id="a_node1"><a xlink:title=" ">
<polygon fill="#999999" stroke="#666666" points="88,-46 0,-46 0,-27 88,-27 88,-46"/>
<text text-anchor="middle" x="44" y="-34" font-family="Helvetica,sans-Serif" font-size="10.00">CPU6502::step</text>
</a>
</g>
</g>
<!-- Node2 -->
<g id="node2" class="node">
<title>Node2</title>
<g id="a_node2"><a xlink:href="classaddress.html#add0092eb4577fdc3ec396a0fdf276b30" target="_top" xlink:title=" ">
<polygon fill="white" stroke="#666666" points="218.5,-74 132.5,-74 132.5,-55 218.5,-55 218.5,-74"/>
<text text-anchor="middle" x="175.5" y="-62" font-family="Helvetica,sans-Serif" font-size="10.00">address::inner</text>
</a>
</g>
</g>
<!-- Node1&#45;&gt;Node2 -->
<g id="edge1" class="edge">
<title>Node1&#45;&gt;Node2</title>
<path fill="none" stroke="#63b8ff" d="M88.12,-45.82C99.16,-48.21 111.15,-50.8 122.58,-53.27"/>
<polygon fill="#63b8ff" stroke="#63b8ff" points="121.93,-56.71 132.45,-55.41 123.41,-49.87 121.93,-56.71"/>
</g>
<!-- Node3 -->
<g id="node3" class="node">
<title>Node3</title>
<g id="a_node3"><a xlink:href="classGP__Memory.html#a137b4c481288e6f2eb5de177f7a7fcb0" target="_top" xlink:title=" ">
<polygon fill="white" stroke="#666666" points="227,-19 124,-19 124,0 227,0 227,-19"/>
<text text-anchor="middle" x="175.5" y="-7" font-family="Helvetica,sans-Serif" font-size="10.00">GP_Memory::read</text>
</a>
</g>
</g>
<!-- Node1&#45;&gt;Node3 -->
<g id="edge2" class="edge">
<title>Node1&#45;&gt;Node3</title>
<path fill="none" stroke="#63b8ff" d="M88.12,-27.51C98.05,-25.44 108.74,-23.21 119.1,-21.05"/>
<polygon fill="#63b8ff" stroke="#63b8ff" points="119.83,-24.47 128.9,-19.01 118.4,-17.62 119.83,-24.47"/>
</g>
<!-- Node3&#45;&gt;Node3 -->
<g id="edge3" class="edge">
<title>Node3&#45;&gt;Node3</title>
<path fill="none" stroke="#63b8ff" d="M155.46,-19.08C145.72,-27.73 152.39,-37 175.5,-37 190.3,-37 198.36,-33.2 199.68,-28.19"/>
<polygon fill="#63b8ff" stroke="#63b8ff" points="202.86,-26.73 195.54,-19.08 196.49,-29.63 202.86,-26.73"/>
</g>
</g>
</svg>
