<?xml version="1.0" encoding="UTF-8" standalone="no"?>
<!DOCTYPE svg PUBLIC "-//W3C//DTD SVG 1.1//EN"
 "http://www.w3.org/Graphics/SVG/1.1/DTD/svg11.dtd">
<!-- Generated by graphviz version 2.43.0 (0)
 -->
<!-- Title: Debugger::print_memory Pages: 1 -->
<svg width="286pt" height="45pt"
 viewBox="0.00 0.00 286.00 45.00" xmlns="http://www.w3.org/2000/svg" xmlns:xlink="http://www.w3.org/1999/xlink">
<g id="graph0" class="graph" transform="scale(1 1) rotate(0) translate(4 41)">
<title>Debugger::print_memory</title>
<!-- Node1 -->
<g id="node1" class="node">
<title>Node1</title>
<g id="a_node1"><a xlink:title=" ">
<polygon fill="#999999" stroke="#666666" points="139,-19 0,-19 0,0 139,0 139,-19"/>
<text text-anchor="middle" x="69.5" y="-7" font-family="Helvetica,sans-Serif" font-size="10.00">Debugger::print_memory</text>
</a>
</g>
</g>
<!-- Node2 -->
<g id="node2" class="node">
<title>Node2</title>
<g id="a_node2"><a xlink:href="classGP__Memory.html#a137b4c481288e6f2eb5de177f7a7fcb0" target="_top" xlink:title=" ">
<polygon fill="white" stroke="#666666" points="278,-19 175,-19 175,0 278,0 278,-19"/>
<text text-anchor="middle" x="226.5" y="-7" font-family="Helvetica,sans-Serif" font-size="10.00">GP_Memory::read</text>
</a>
</g>
</g>
<!-- Node1&#45;&gt;Node2 -->
<g id="edge1" class="edge">
<title>Node1&#45;&gt;Node2</title>
<path fill="none" stroke="#63b8ff" d="M139.39,-9.5C147.9,-9.5 156.54,-9.5 164.91,-9.5"/>
<polygon fill="#63b8ff" stroke="#63b8ff" points="164.96,-13 174.96,-9.5 164.96,-6 164.96,-13"/>
</g>
<!-- Node2&#45;&gt;Node2 -->
<g id="edge2" class="edge">
<title>Node2&#45;&gt;Node2</title>
<path fill="none" stroke="#63b8ff" d="M202.46,-19.08C190.76,-27.73 198.77,-37 226.5,-37 244.7,-37 254.4,-33.01 255.62,-27.82"/>
<polygon fill="#63b8ff" stroke="#63b8ff" points="258.59,-25.97 250.54,-19.08 252.54,-29.49 258.59,-25.97"/>
</g>
</g>
</svg>
