<?xml version="1.0" encoding="UTF-8" standalone="no"?>
<!DOCTYPE svg PUBLIC "-//W3C//DTD SVG 1.1//EN"
 "http://www.w3.org/Graphics/SVG/1.1/DTD/svg11.dtd">
<!-- Generated by graphviz version 2.43.0 (0)
 -->
<!-- Title: GP_Memory::read Pages: 1 -->
<!--zoomable 176 -->
<svg id="main" version="1.1" xmlns="http://www.w3.org/2000/svg" xmlns:xlink="http://www.w3.org/1999/xlink" xml:space="preserve" onload="init(evt)">
<style type="text/css"><![CDATA[
.edge:hover path { stroke: red; }
.edge:hover polygon { stroke: red; fill: red; }
]]></style>
<script type="text/javascript"><![CDATA[
var edges = document.getElementsByTagName('g');
if (edges && edges.length) {
  for (var i=0;i<edges.length;i++) {
    if (edges[i].id.substr(0,4)=='edge') {
      edges[i].setAttribute('class','edge');
    }
  }
}
]]></script>
        <defs>
                <circle id="rim" cx="0" cy="0" r="7"/>
                <circle id="rim2" cx="0" cy="0" r="3.5"/>
                <g id="zoomPlus">
                        <use xlink:href="#rim" fill="#404040">
                                <set attributeName="fill" to="#808080" begin="zoomplus.mouseover" end="zoomplus.mouseout"/>
                        </use>
                        <path d="M-4,0h8M0,-4v8" fill="none" stroke="white" stroke-width="1.5" pointer-events="none"/>
                </g>
                <g id="zoomMin">
                        <use xlink:href="#rim" fill="#404040">
                                <set attributeName="fill" to="#808080" begin="zoomminus.mouseover" end="zoomminus.mouseout"/>
                        </use>
                        <path d="M-4,0h8" fill="none" stroke="white" stroke-width="1.5" pointer-events="none"/>
                </g>
                <g id="dirArrow">
                        <path fill="none" stroke="white" stroke-width="1.5" d="M0,-3.0v7 M-2.5,-0.5L0,-3.0L2.5,-0.5"/>
                </g>
               <g id="resetDef">
                       <use xlink:href="#rim2" fill="#404040">
                               <set attributeName="fill" to="#808080" begin="reset.mouseover" end="reset.mouseout"/>
                       </use>
               </g>
        </defs>

<script type="text/javascript">
var viewWidth = 669;
var viewHeight = 176;
var sectionId = 'dynsection-3';
</script>
<script xlink:href="svgpan.js"/>
<svg id="graph" class="graph">
<g id="viewport">
<title>GP_Memory::read</title>
<!-- Node1 -->
<g id="node1" class="node">
<title>Node1</title>
<g id="a_node1"><a xlink:title=" ">
<polygon fill="#999999" stroke="#666666" points="661,-112 558,-112 558,-93 661,-93 661,-112"/>
<text text-anchor="middle" x="609.5" y="-100" font-family="Helvetica,sans-Serif" font-size="10.00">GP_Memory::read</text>
</a>
</g>
</g>
<!-- Node1&#45;&gt;Node1 -->
<g id="edge7" class="edge">
<title>Node1&#45;&gt;Node1</title>
<path fill="none" stroke="#63b8ff" d="M638.62,-120.82C637.4,-126.01 627.7,-130 609.5,-130 581.77,-130 573.76,-120.73 585.46,-112.08"/>
<polygon fill="#63b8ff" stroke="#63b8ff" points="641.59,-118.97 633.54,-112.08 635.54,-122.49 641.59,-118.97"/>
</g>
<!-- Node2 -->
<g id="node2" class="node">
<title>Node2</title>
<g id="a_node2"><a xlink:href="classCPU6502.html#a088452e1727f362add3b5d803cb0bf9b" target="_top" xlink:title=" ">
<polygon fill="white" stroke="#666666" points="508,-168 397,-168 397,-149 508,-149 508,-168"/>
<text text-anchor="middle" x="452.5" y="-156" font-family="Helvetica,sans-Serif" font-size="10.00">CPU6502::CPU6502</text>
</a>
</g>
</g>
<!-- Node1&#45;&gt;Node2 -->
<g id="edge1" class="edge">
<title>Node1&#45;&gt;Node2</title>
<path fill="none" stroke="#63b8ff" d="M579.75,-116.49C563.13,-124.23 541.68,-133.64 522,-140.5 513.06,-143.62 503.3,-146.49 494.02,-148.98"/>
<polygon fill="#63b8ff" stroke="#63b8ff" points="581.38,-119.59 588.93,-112.16 578.39,-113.26 581.38,-119.59"/>
</g>
<!-- Node3 -->
<g id="node3" class="node">
<title>Node3</title>
<g id="a_node3"><a xlink:href="classCPU6502.html#a6c4da15a308954811145aef4b29ef990" target="_top" xlink:title=" ">
<polygon fill="white" stroke="#666666" points="510.5,-131 394.5,-131 394.5,-112 510.5,-112 510.5,-131"/>
<text text-anchor="middle" x="452.5" y="-119" font-family="Helvetica,sans-Serif" font-size="10.00">CPU6502::pop_stack</text>
</a>
</g>
</g>
<!-- Node1&#45;&gt;Node3 -->
<g id="edge2" class="edge">
<title>Node1&#45;&gt;Node3</title>
<path fill="none" stroke="#63b8ff" d="M547.65,-109.96C535.43,-111.46 522.62,-113.03 510.54,-114.51"/>
<polygon fill="#63b8ff" stroke="#63b8ff" points="548.25,-113.41 557.75,-108.72 547.4,-106.46 548.25,-113.41"/>
</g>
<!-- Node4 -->
<g id="node4" class="node">
<title>Node4</title>
<g id="a_node4"><a xlink:href="classDebugger.html#a0c1505f74dc7245b84e817fefab349f0" target="_top" xlink:title=" ">
<polygon fill="white" stroke="#666666" points="522,-94 383,-94 383,-75 522,-75 522,-94"/>
<text text-anchor="middle" x="452.5" y="-82" font-family="Helvetica,sans-Serif" font-size="10.00">Debugger::print_memory</text>
</a>
</g>
</g>
<!-- Node1&#45;&gt;Node4 -->
<g id="edge3" class="edge">
<title>Node1&#45;&gt;Node4</title>
<path fill="none" stroke="#63b8ff" d="M547.68,-95.44C539.29,-94.46 530.63,-93.46 522.11,-92.47"/>
<polygon fill="#63b8ff" stroke="#63b8ff" points="547.41,-98.93 557.75,-96.61 548.22,-91.98 547.41,-98.93"/>
</g>
<!-- Node8 -->
<g id="node8" class="node">
<title>Node8</title>
<g id="a_node8"><a xlink:href="classCPU6502.html#a47cca859097af3da244b68c3034b9443" target="_top" xlink:title=" ">
<polygon fill="white" stroke="#666666" points="496.5,-57 408.5,-57 408.5,-38 496.5,-38 496.5,-57"/>
<text text-anchor="middle" x="452.5" y="-45" font-family="Helvetica,sans-Serif" font-size="10.00">CPU6502::step</text>
</a>
</g>
</g>
<!-- Node1&#45;&gt;Node8 -->
<g id="edge8" class="edge">
<title>Node1&#45;&gt;Node8</title>
<path fill="none" stroke="#63b8ff" d="M577.86,-88.66C561.47,-81.53 540.84,-73.01 522,-66.5 512.08,-63.08 501.2,-59.83 491.09,-57.02"/>
<polygon fill="#63b8ff" stroke="#63b8ff" points="576.89,-92.06 587.45,-92.88 579.71,-85.65 576.89,-92.06"/>
</g>
<!-- Node5 -->
<g id="node5" class="node">
<title>Node5</title>
<g id="a_node5"><a xlink:href="classDebugger.html#a1b1c8e66cc7d4ea8c55f0adf02cd5494" target="_top" xlink:title=" ">
<polygon fill="white" stroke="#666666" points="347,-95 199,-95 199,-76 347,-76 347,-95"/>
<text text-anchor="middle" x="273" y="-83" font-family="Helvetica,sans-Serif" font-size="10.00">Debugger::go_to_debugger</text>
</a>
</g>
</g>
<!-- Node4&#45;&gt;Node5 -->
<g id="edge4" class="edge">
<title>Node4&#45;&gt;Node5</title>
<path fill="none" stroke="#63b8ff" d="M372.62,-84.94C364.15,-84.99 355.55,-85.04 347.15,-85.09"/>
<polygon fill="#63b8ff" stroke="#63b8ff" points="372.89,-88.44 382.87,-84.89 372.85,-81.44 372.89,-88.44"/>
</g>
<!-- Node6 -->
<g id="node6" class="node">
<title>Node6</title>
<g id="a_node6"><a xlink:href="classDebugger.html#a1df28a43e7686d9aa06714fc8b534072" target="_top" xlink:title=" ">
<polygon fill="white" stroke="#666666" points="163,-76 77,-76 77,-57 163,-57 163,-76"/>
<text text-anchor="middle" x="120" y="-64" font-family="Helvetica,sans-Serif" font-size="10.00">Debugger::run</text>
</a>
</g>
</g>
<!-- Node5&#45;&gt;Node6 -->
<g id="edge5" class="edge">
<title>Node5&#45;&gt;Node6</title>
<path fill="none" stroke="#63b8ff" d="M188.73,-75.02C179.93,-73.91 171.26,-72.82 163.23,-71.81"/>
<polygon fill="#63b8ff" stroke="#63b8ff" points="188.35,-78.5 198.71,-76.28 189.23,-71.56 188.35,-78.5"/>
</g>
<!-- Node7 -->
<g id="node7" class="node">
<title>Node7</title>
<g id="a_node7"><a xlink:href="main_8cpp.html#a3c04138a5bfe5d72780bb7e82a18e627" target="_top" xlink:title=" ">
<polygon fill="white" stroke="#666666" points="41,-76 0,-76 0,-57 41,-57 41,-76"/>
<text text-anchor="middle" x="20.5" y="-64" font-family="Helvetica,sans-Serif" font-size="10.00">main</text>
</a>
</g>
</g>
<!-- Node6&#45;&gt;Node7 -->
<g id="edge6" class="edge">
<title>Node6&#45;&gt;Node7</title>
<path fill="none" stroke="#63b8ff" d="M66.52,-66.5C57.42,-66.5 48.5,-66.5 41.03,-66.5"/>
<polygon fill="#63b8ff" stroke="#63b8ff" points="66.8,-70 76.8,-66.5 66.8,-63 66.8,-70"/>
</g>
<!-- Node8&#45;&gt;Node5 -->
<g id="edge10" class="edge">
<title>Node8&#45;&gt;Node5</title>
<path fill="none" stroke="#63b8ff" d="M398.22,-58.91C372.79,-64.35 342.71,-70.79 318.52,-75.97"/>
<polygon fill="#63b8ff" stroke="#63b8ff" points="399.03,-62.31 408.08,-56.8 397.57,-55.47 399.03,-62.31"/>
</g>
<!-- Node8&#45;&gt;Node6 -->
<g id="edge11" class="edge">
<title>Node8&#45;&gt;Node6</title>
<path fill="none" stroke="#63b8ff" d="M398.18,-50.57C332.73,-54.33 223.06,-60.63 163.17,-64.08"/>
<polygon fill="#63b8ff" stroke="#63b8ff" points="398.51,-54.05 408.29,-49.98 398.11,-47.06 398.51,-54.05"/>
</g>
<!-- Node9 -->
<g id="node9" class="node">
<title>Node9</title>
<g id="a_node9"><a xlink:href="classCPU6502.html#aca06dd908841b9880a5b027c36e180c3" target="_top" xlink:title="Executes the provided code in memory.">
<polygon fill="white" stroke="#666666" points="325.5,-19 220.5,-19 220.5,0 325.5,0 325.5,-19"/>
<text text-anchor="middle" x="273" y="-7" font-family="Helvetica,sans-Serif" font-size="10.00">CPU6502::execute</text>
</a>
</g>
</g>
<!-- Node8&#45;&gt;Node9 -->
<g id="edge9" class="edge">
<title>Node8&#45;&gt;Node9</title>
<path fill="none" stroke="#63b8ff" d="M398.22,-36.09C372.79,-30.65 342.71,-24.21 318.52,-19.03"/>
<polygon fill="#63b8ff" stroke="#63b8ff" points="397.57,-39.53 408.08,-38.2 399.03,-32.69 397.57,-39.53"/>
</g>
</g>
</svg>
        <g id="navigator" transform="translate(0 0)" fill="#404254">
                <rect fill="#f2f5e9" fill-opacity="0.5" stroke="#606060" stroke-width=".5" x="0" y="0" width="60" height="60"/>
                <use id="zoomplus" xlink:href="#zoomPlus" x="17" y="9" onmousedown="handleZoom(evt,'in')"/>
                <use id="zoomminus" xlink:href="#zoomMin" x="42" y="9" onmousedown="handleZoom(evt,'out')"/>
                <use id="reset" xlink:href="#resetDef" x="30" y="36" onmousedown="handleReset()"/>
                <g id="arrowUp" xlink:href="#dirArrow" transform="translate(30 24)" onmousedown="handlePan(0,-1)">
                  <use xlink:href="#rim" fill="#404040">
                        <set attributeName="fill" to="#808080" begin="arrowUp.mouseover" end="arrowUp.mouseout"/>
                  </use>
                  <path fill="none" stroke="white" stroke-width="1.5" d="M0,-3.0v7 M-2.5,-0.5L0,-3.0L2.5,-0.5"/>
                </g>
                <g id="arrowRight" xlink:href="#dirArrow" transform="rotate(90) translate(36 -43)" onmousedown="handlePan(1,0)">
                  <use xlink:href="#rim" fill="#404040">
                        <set attributeName="fill" to="#808080" begin="arrowRight.mouseover" end="arrowRight.mouseout"/>
                  </use>
                  <path fill="none" stroke="white" stroke-width="1.5" d="M0,-3.0v7 M-2.5,-0.5L0,-3.0L2.5,-0.5"/>
                </g>
                <g id="arrowDown" xlink:href="#dirArrow" transform="rotate(180) translate(-30 -48)" onmousedown="handlePan(0,1)">
                  <use xlink:href="#rim" fill="#404040">
                        <set attributeName="fill" to="#808080" begin="arrowDown.mouseover" end="arrowDown.mouseout"/>
                  </use>
                  <path fill="none" stroke="white" stroke-width="1.5" d="M0,-3.0v7 M-2.5,-0.5L0,-3.0L2.5,-0.5"/>
                </g>
                <g id="arrowLeft" xlink:href="#dirArrow" transform="rotate(270) translate(-36 17)" onmousedown="handlePan(-1,0)">
                  <use xlink:href="#rim" fill="#404040">
                        <set attributeName="fill" to="#808080" begin="arrowLeft.mouseover" end="arrowLeft.mouseout"/>
                  </use>
                  <path fill="none" stroke="white" stroke-width="1.5" d="M0,-3.0v7 M-2.5,-0.5L0,-3.0L2.5,-0.5"/>
                </g>
        </g>
        <svg viewBox="0 0 15 15" width="100%" height="30px" preserveAspectRatio="xMaxYMin meet">
         <g id="arrow_out" transform="scale(0.3 0.3)">
          <a xlink:href="classGP__Memory_a137b4c481288e6f2eb5de177f7a7fcb0_icgraph_org.svg" target="_base">
           <rect id="button" ry="5" rx="5" y="6" x="6" height="38" width="38"
                fill="#f2f5e9" fill-opacity="0.5" stroke="#606060" stroke-width="1.0"/>
           <path id="arrow"
             d="M 11.500037,31.436501 C 11.940474,20.09759 22.043105,11.32322 32.158766,21.979434 L 37.068811,17.246167 C 37.068811,17.246167 37.088388,32 37.088388,32 L 22.160133,31.978069 C 22.160133,31.978069 26.997745,27.140456 26.997745,27.140456 C 18.528582,18.264221 13.291696,25.230495 11.500037,31.436501 z"
             style="fill:#404040;"/>
          </a>
         </g>
        </svg>
</svg>
