<?xml version="1.0" encoding="UTF-8" standalone="no"?>
<!DOCTYPE svg PUBLIC "-//W3C//DTD SVG 1.1//EN"
 "http://www.w3.org/Graphics/SVG/1.1/DTD/svg11.dtd">
<!-- Generated by graphviz version 2.43.0 (0)
 -->
<!-- Title: debugger.cpp Pages: 1 -->
<svg width="1129pt" height="357pt"
 viewBox="0.00 0.00 1129.00 357.00" xmlns="http://www.w3.org/2000/svg" xmlns:xlink="http://www.w3.org/1999/xlink">
<g id="graph0" class="graph" transform="scale(1 1) rotate(0) translate(4 353)">
<title>debugger.cpp</title>
<!-- Node1 -->
<g id="node1" class="node">
<title>Node1</title>
<g id="a_node1"><a xlink:title=" ">
<polygon fill="#999999" stroke="#666666" points="361,-349 279,-349 279,-330 361,-330 361,-349"/>
<text text-anchor="middle" x="320" y="-337" font-family="Helvetica,sans-Serif" font-size="10.00">debugger.cpp</text>
</a>
</g>
</g>
<!-- Node2 -->
<g id="node2" class="node">
<title>Node2</title>
<g id="a_node2"><a xlink:href="debugger_8h.html" target="_top" xlink:title=" ">
<polygon fill="white" stroke="#666666" points="676.5,-294 605.5,-294 605.5,-275 676.5,-275 676.5,-294"/>
<text text-anchor="middle" x="641" y="-282" font-family="Helvetica,sans-Serif" font-size="10.00">debugger.h</text>
</a>
</g>
</g>
<!-- Node1&#45;&gt;Node2 -->
<g id="edge1" class="edge">
<title>Node1&#45;&gt;Node2</title>
<path fill="none" stroke="#63b8ff" d="M361.31,-331.68C421.46,-321.75 532.78,-303.37 595.31,-293.04"/>
<polygon fill="#63b8ff" stroke="#63b8ff" points="595.98,-296.48 605.28,-291.4 594.84,-289.57 595.98,-296.48"/>
</g>
<!-- Node9 -->
<g id="node9" class="node">
<title>Node9</title>
<g id="a_node9"><a xlink:title=" ">
<polygon fill="#e0e0e0" stroke="#999999" points="256,-19 206,-19 206,0 256,0 256,-19"/>
<text text-anchor="middle" x="231" y="-7" font-family="Helvetica,sans-Serif" font-size="10.00">cstdint</text>
</a>
</g>
</g>
<!-- Node1&#45;&gt;Node9 -->
<g id="edge42" class="edge">
<title>Node1&#45;&gt;Node9</title>
<path fill="none" stroke="#63b8ff" d="M278.82,-333.41C192.39,-321.57 0,-288.69 0,-230.5 0,-230.5 0,-230.5 0,-118.5 0,-33.16 130.98,-15.1 195.68,-11.39"/>
<polygon fill="#63b8ff" stroke="#63b8ff" points="196.02,-14.88 205.84,-10.9 195.68,-7.89 196.02,-14.88"/>
</g>
<!-- Node3 -->
<g id="node3" class="node">
<title>Node3</title>
<g id="a_node3"><a xlink:href="6502cpu_8h.html" target="_top" xlink:title=" ">
<polygon fill="white" stroke="#666666" points="479.5,-239 412.5,-239 412.5,-220 479.5,-220 479.5,-239"/>
<text text-anchor="middle" x="446" y="-227" font-family="Helvetica,sans-Serif" font-size="10.00">6502cpu.h</text>
</a>
</g>
</g>
<!-- Node2&#45;&gt;Node3 -->
<g id="edge2" class="edge">
<title>Node2&#45;&gt;Node3</title>
<path fill="none" stroke="#63b8ff" d="M609.67,-274.98C576.51,-265.97 524,-251.7 487.44,-241.76"/>
<polygon fill="#63b8ff" stroke="#63b8ff" points="488.14,-238.33 477.58,-239.08 486.31,-245.08 488.14,-238.33"/>
</g>
<!-- Node5 -->
<g id="node5" class="node">
<title>Node5</title>
<g id="a_node5"><a xlink:href="instruction__types_8h.html" target="_top" xlink:title=" ">
<polygon fill="white" stroke="#666666" points="214,-129 104,-129 104,-110 214,-110 214,-129"/>
<text text-anchor="middle" x="159" y="-117" font-family="Helvetica,sans-Serif" font-size="10.00">instruction_types.h</text>
</a>
</g>
</g>
<!-- Node2&#45;&gt;Node5 -->
<g id="edge30" class="edge">
<title>Node2&#45;&gt;Node5</title>
<path fill="none" stroke="#63b8ff" d="M605.27,-284.23C525.54,-284.13 330.14,-273.99 203,-184 186.79,-172.53 174.61,-153.08 167.23,-138.73"/>
<polygon fill="#63b8ff" stroke="#63b8ff" points="170.2,-136.84 162.7,-129.36 163.9,-139.89 170.2,-136.84"/>
</g>
<!-- Node6 -->
<g id="node6" class="node">
<title>Node6</title>
<g id="a_node6"><a xlink:href="address_8h.html" target="_top" xlink:title=" ">
<polygon fill="white" stroke="#666666" points="528,-74 464,-74 464,-55 528,-55 528,-74"/>
<text text-anchor="middle" x="496" y="-62" font-family="Helvetica,sans-Serif" font-size="10.00">address.h</text>
</a>
</g>
</g>
<!-- Node2&#45;&gt;Node6 -->
<g id="edge27" class="edge">
<title>Node2&#45;&gt;Node6</title>
<path fill="none" stroke="#63b8ff" d="M630.88,-274.67C617.37,-261.81 596.6,-237.55 610,-220 646.91,-171.67 692.59,-219.45 742,-184 771.88,-162.56 802.9,-137.95 779,-110 748.56,-74.4 609.75,-67.1 538.49,-65.72"/>
<polygon fill="#63b8ff" stroke="#63b8ff" points="538.12,-62.22 528.07,-65.55 538.01,-69.22 538.12,-62.22"/>
</g>
<!-- Node8 -->
<g id="node8" class="node">
<title>Node8</title>
<g id="a_node8"><a xlink:title=" ">
<polygon fill="#e0e0e0" stroke="#999999" points="872.5,-19 819.5,-19 819.5,0 872.5,0 872.5,-19"/>
<text text-anchor="middle" x="846" y="-7" font-family="Helvetica,sans-Serif" font-size="10.00">cstddef</text>
</a>
</g>
</g>
<!-- Node2&#45;&gt;Node8 -->
<g id="edge32" class="edge">
<title>Node2&#45;&gt;Node8</title>
<path fill="none" stroke="#63b8ff" d="M676.67,-282.87C765.39,-280.8 993.72,-272.3 1061,-239 1095.8,-221.77 1121,-214.33 1121,-175.5 1121,-175.5 1121,-175.5 1121,-118.5 1121,-67.86 957.39,-31.08 882.56,-16.91"/>
<polygon fill="#63b8ff" stroke="#63b8ff" points="883.09,-13.45 872.62,-15.07 881.81,-20.34 883.09,-13.45"/>
</g>
<!-- Node2&#45;&gt;Node9 -->
<g id="edge33" class="edge">
<title>Node2&#45;&gt;Node9</title>
<path fill="none" stroke="#63b8ff" d="M605.24,-282.96C530.24,-281.16 351.37,-273.29 206,-239 128.31,-220.67 38,-255.32 38,-175.5 38,-175.5 38,-175.5 38,-118.5 38,-47.08 139.9,-22.43 195.61,-14.29"/>
<polygon fill="#63b8ff" stroke="#63b8ff" points="196.33,-17.72 205.77,-12.91 195.39,-10.79 196.33,-17.72"/>
</g>
<!-- Node11 -->
<g id="node11" class="node">
<title>Node11</title>
<g id="a_node11"><a xlink:title=" ">
<polygon fill="#e0e0e0" stroke="#999999" points="145,-74 101,-74 101,-55 145,-55 145,-74"/>
<text text-anchor="middle" x="123" y="-62" font-family="Helvetica,sans-Serif" font-size="10.00">string</text>
</a>
</g>
</g>
<!-- Node2&#45;&gt;Node11 -->
<g id="edge40" class="edge">
<title>Node2&#45;&gt;Node11</title>
<path fill="none" stroke="#63b8ff" d="M605.45,-284.43C537.44,-285.11 385.1,-281.25 266,-239 180.83,-208.78 137.97,-208.5 95,-129 86.63,-113.52 96.92,-95.04 107.3,-82.02"/>
<polygon fill="#63b8ff" stroke="#63b8ff" points="110.05,-84.19 113.95,-74.34 104.76,-79.61 110.05,-84.19"/>
</g>
<!-- Node13 -->
<g id="node13" class="node">
<title>Node13</title>
<g id="a_node13"><a xlink:href="byte__utils_8h.html" target="_top" xlink:title=" ">
<polygon fill="white" stroke="#666666" points="552,-184 478,-184 478,-165 552,-165 552,-184"/>
<text text-anchor="middle" x="515" y="-172" font-family="Helvetica,sans-Serif" font-size="10.00">byte_utils.h</text>
</a>
</g>
</g>
<!-- Node2&#45;&gt;Node13 -->
<g id="edge28" class="edge">
<title>Node2&#45;&gt;Node13</title>
<path fill="none" stroke="#63b8ff" d="M605.25,-275.45C583.55,-268.9 556.71,-257.62 539,-239 527.21,-226.6 521.07,-207.84 517.97,-193.92"/>
<polygon fill="#63b8ff" stroke="#63b8ff" points="521.39,-193.18 516.08,-184.01 514.51,-194.49 521.39,-193.18"/>
</g>
<!-- Node14 -->
<g id="node14" class="node">
<title>Node14</title>
<g id="a_node14"><a xlink:title=" ">
<polygon fill="#e0e0e0" stroke="#999999" points="666,-129 606,-129 606,-110 666,-110 666,-129"/>
<text text-anchor="middle" x="636" y="-117" font-family="Helvetica,sans-Serif" font-size="10.00">iostream</text>
</a>
</g>
</g>
<!-- Node2&#45;&gt;Node14 -->
<g id="edge36" class="edge">
<title>Node2&#45;&gt;Node14</title>
<path fill="none" stroke="#63b8ff" d="M619.21,-274.87C604.36,-267.69 585.84,-255.91 577,-239 567.05,-219.97 603.07,-165.58 623.24,-137.59"/>
<polygon fill="#63b8ff" stroke="#63b8ff" points="626.3,-139.34 629.39,-129.2 620.65,-135.2 626.3,-139.34"/>
</g>
<!-- Node16 -->
<g id="node16" class="node">
<title>Node16</title>
<g id="a_node16"><a xlink:href="gp__memory_8h.html" target="_top" xlink:title=" ">
<polygon fill="white" stroke="#666666" points="732.5,-184 649.5,-184 649.5,-165 732.5,-165 732.5,-184"/>
<text text-anchor="middle" x="691" y="-172" font-family="Helvetica,sans-Serif" font-size="10.00">gp_memory.h</text>
</a>
</g>
</g>
<!-- Node2&#45;&gt;Node16 -->
<g id="edge29" class="edge">
<title>Node2&#45;&gt;Node16</title>
<path fill="none" stroke="#63b8ff" d="M676.68,-282.03C767.7,-277.92 1002.95,-264.87 1026,-239 1064.74,-195.52 846.07,-181.37 742.76,-177.14"/>
<polygon fill="#63b8ff" stroke="#63b8ff" points="742.67,-173.64 732.54,-176.74 742.4,-180.63 742.67,-173.64"/>
</g>
<!-- Node18 -->
<g id="node18" class="node">
<title>Node18</title>
<g id="a_node18"><a xlink:title=" ">
<polygon fill="#e0e0e0" stroke="#999999" points="769.5,-129 722.5,-129 722.5,-110 769.5,-110 769.5,-129"/>
<text text-anchor="middle" x="746" y="-117" font-family="Helvetica,sans-Serif" font-size="10.00">vector</text>
</a>
</g>
</g>
<!-- Node2&#45;&gt;Node18 -->
<g id="edge41" class="edge">
<title>Node2&#45;&gt;Node18</title>
<path fill="none" stroke="#63b8ff" d="M676.79,-282.2C770.56,-278.43 1017.82,-266.01 1042,-239 1119.32,-152.62 872.03,-128.27 779.5,-122.26"/>
<polygon fill="#63b8ff" stroke="#63b8ff" points="779.72,-118.77 769.52,-121.65 779.28,-125.76 779.72,-118.77"/>
</g>
<!-- Node20 -->
<g id="node20" class="node">
<title>Node20</title>
<g id="a_node20"><a xlink:title=" ">
<polygon fill="#e0e0e0" stroke="#999999" points="663,-239 619,-239 619,-220 663,-220 663,-239"/>
<text text-anchor="middle" x="641" y="-227" font-family="Helvetica,sans-Serif" font-size="10.00">bitset</text>
</a>
</g>
</g>
<!-- Node2&#45;&gt;Node20 -->
<g id="edge31" class="edge">
<title>Node2&#45;&gt;Node20</title>
<path fill="none" stroke="#63b8ff" d="M641,-274.75C641,-267.8 641,-257.85 641,-249.13"/>
<polygon fill="#63b8ff" stroke="#63b8ff" points="644.5,-249.09 641,-239.09 637.5,-249.09 644.5,-249.09"/>
</g>
<!-- Node21 -->
<g id="node21" class="node">
<title>Node21</title>
<g id="a_node21"><a xlink:title=" ">
<polygon fill="#e0e0e0" stroke="#999999" points="730.5,-239 681.5,-239 681.5,-220 730.5,-220 730.5,-239"/>
<text text-anchor="middle" x="706" y="-227" font-family="Helvetica,sans-Serif" font-size="10.00">cstdlib</text>
</a>
</g>
</g>
<!-- Node2&#45;&gt;Node21 -->
<g id="edge34" class="edge">
<title>Node2&#45;&gt;Node21</title>
<path fill="none" stroke="#63b8ff" d="M651.44,-274.98C661.15,-267.07 675.82,-255.11 687.5,-245.58"/>
<polygon fill="#63b8ff" stroke="#63b8ff" points="689.83,-248.2 695.37,-239.17 685.4,-242.78 689.83,-248.2"/>
</g>
<!-- Node22 -->
<g id="node22" class="node">
<title>Node22</title>
<g id="a_node22"><a xlink:title=" ">
<polygon fill="#e0e0e0" stroke="#999999" points="805,-239 749,-239 749,-220 805,-220 805,-239"/>
<text text-anchor="middle" x="777" y="-227" font-family="Helvetica,sans-Serif" font-size="10.00">iomanip</text>
</a>
</g>
</g>
<!-- Node2&#45;&gt;Node22 -->
<g id="edge35" class="edge">
<title>Node2&#45;&gt;Node22</title>
<path fill="none" stroke="#63b8ff" d="M662.85,-274.98C685.12,-266.3 719.9,-252.75 745.22,-242.88"/>
<polygon fill="#63b8ff" stroke="#63b8ff" points="746.71,-246.06 754.75,-239.17 744.16,-239.54 746.71,-246.06"/>
</g>
<!-- Node23 -->
<g id="node23" class="node">
<title>Node23</title>
<g id="a_node23"><a xlink:title=" ">
<polygon fill="#e0e0e0" stroke="#999999" points="879,-239 823,-239 823,-220 879,-220 879,-239"/>
<text text-anchor="middle" x="851" y="-227" font-family="Helvetica,sans-Serif" font-size="10.00">optional</text>
</a>
</g>
</g>
<!-- Node2&#45;&gt;Node23 -->
<g id="edge37" class="edge">
<title>Node2&#45;&gt;Node23</title>
<path fill="none" stroke="#63b8ff" d="M674.74,-274.98C712.5,-265.46 773.53,-250.05 812.95,-240.1"/>
<polygon fill="#63b8ff" stroke="#63b8ff" points="813.89,-243.48 822.73,-237.63 812.18,-236.69 813.89,-243.48"/>
</g>
<!-- Node24 -->
<g id="node24" class="node">
<title>Node24</title>
<g id="a_node24"><a xlink:title=" ">
<polygon fill="#e0e0e0" stroke="#999999" points="954.5,-239 897.5,-239 897.5,-220 954.5,-220 954.5,-239"/>
<text text-anchor="middle" x="926" y="-227" font-family="Helvetica,sans-Serif" font-size="10.00">ostream</text>
</a>
</g>
</g>
<!-- Node2&#45;&gt;Node24 -->
<g id="edge38" class="edge">
<title>Node2&#45;&gt;Node24</title>
<path fill="none" stroke="#63b8ff" d="M676.67,-277.55C722.9,-269.75 806.21,-255.31 887.49,-239.03"/>
<polygon fill="#63b8ff" stroke="#63b8ff" points="888.28,-242.44 897.39,-237.03 886.9,-235.58 888.28,-242.44"/>
</g>
<!-- Node25 -->
<g id="node25" class="node">
<title>Node25</title>
<g id="a_node25"><a xlink:title=" ">
<polygon fill="#e0e0e0" stroke="#999999" points="1017,-239 973,-239 973,-220 1017,-220 1017,-239"/>
<text text-anchor="middle" x="995" y="-227" font-family="Helvetica,sans-Serif" font-size="10.00">regex</text>
</a>
</g>
</g>
<!-- Node2&#45;&gt;Node25 -->
<g id="edge39" class="edge">
<title>Node2&#45;&gt;Node25</title>
<path fill="none" stroke="#63b8ff" d="M676.63,-280.13C734.67,-274.31 853.36,-261.02 962.85,-239"/>
<polygon fill="#63b8ff" stroke="#63b8ff" points="963.63,-242.41 972.73,-236.98 962.24,-235.55 963.63,-242.41"/>
</g>
<!-- Node4 -->
<g id="node4" class="node">
<title>Node4</title>
<g id="a_node4"><a xlink:href="6502isa_8h.html" target="_top" xlink:title=" ">
<polygon fill="white" stroke="#666666" points="311,-184 247,-184 247,-165 311,-165 311,-184"/>
<text text-anchor="middle" x="279" y="-172" font-family="Helvetica,sans-Serif" font-size="10.00">6502isa.h</text>
</a>
</g>
</g>
<!-- Node3&#45;&gt;Node4 -->
<g id="edge3" class="edge">
<title>Node3&#45;&gt;Node4</title>
<path fill="none" stroke="#63b8ff" d="M419.17,-219.98C391.13,-211.09 346.95,-197.07 315.7,-187.15"/>
<polygon fill="#63b8ff" stroke="#63b8ff" points="316.63,-183.77 306.04,-184.08 314.51,-190.44 316.63,-183.77"/>
</g>
<!-- Node3&#45;&gt;Node5 -->
<g id="edge22" class="edge">
<title>Node3&#45;&gt;Node5</title>
<path fill="none" stroke="#63b8ff" d="M412.41,-226.12C369.97,-222.05 295.53,-211.36 238,-184 213.33,-172.27 189.53,-151.41 174.61,-136.81"/>
<polygon fill="#63b8ff" stroke="#63b8ff" points="176.82,-134.07 167.29,-129.44 171.86,-139 176.82,-134.07"/>
</g>
<!-- Node3&#45;&gt;Node6 -->
<g id="edge12" class="edge">
<title>Node3&#45;&gt;Node6</title>
<path fill="none" stroke="#63b8ff" d="M436.12,-219.75C427.61,-211.5 415.95,-198.3 411,-184 408.24,-176.02 408.49,-173.06 411,-165 422.23,-129 454.62,-97.86 476.02,-80.41"/>
<polygon fill="#63b8ff" stroke="#63b8ff" points="478.2,-83.14 483.89,-74.2 473.87,-77.65 478.2,-83.14"/>
</g>
<!-- Node3&#45;&gt;Node13 -->
<g id="edge13" class="edge">
<title>Node3&#45;&gt;Node13</title>
<path fill="none" stroke="#63b8ff" d="M457.09,-219.98C467.49,-212 483.26,-199.88 495.72,-190.31"/>
<polygon fill="#63b8ff" stroke="#63b8ff" points="497.91,-193.04 503.71,-184.17 493.65,-187.49 497.91,-193.04"/>
</g>
<!-- Node3&#45;&gt;Node14 -->
<g id="edge26" class="edge">
<title>Node3&#45;&gt;Node14</title>
<path fill="none" stroke="#63b8ff" d="M476.08,-219.91C500.04,-212.36 533.94,-200.07 561,-184 583.53,-170.62 606.01,-150.45 620.4,-136.44"/>
<polygon fill="#63b8ff" stroke="#63b8ff" points="622.89,-138.91 627.52,-129.38 617.95,-133.94 622.89,-138.91"/>
</g>
<!-- Node3&#45;&gt;Node16 -->
<g id="edge17" class="edge">
<title>Node3&#45;&gt;Node16</title>
<path fill="none" stroke="#63b8ff" d="M479.55,-221.24C521.4,-212.19 593.28,-196.64 641.47,-186.22"/>
<polygon fill="#63b8ff" stroke="#63b8ff" points="642.34,-189.61 651.37,-184.07 640.86,-182.77 642.34,-189.61"/>
</g>
<!-- Node19 -->
<g id="node19" class="node">
<title>Node19</title>
<g id="a_node19"><a xlink:href="psr_8h.html" target="_top" xlink:title=" ">
<polygon fill="white" stroke="#666666" points="460,-184 420,-184 420,-165 460,-165 460,-184"/>
<text text-anchor="middle" x="440" y="-172" font-family="Helvetica,sans-Serif" font-size="10.00">psr.h</text>
</a>
</g>
</g>
<!-- Node3&#45;&gt;Node19 -->
<g id="edge23" class="edge">
<title>Node3&#45;&gt;Node19</title>
<path fill="none" stroke="#63b8ff" d="M445.01,-219.75C444.22,-212.8 443.1,-202.85 442.11,-194.13"/>
<polygon fill="#63b8ff" stroke="#63b8ff" points="445.58,-193.63 440.97,-184.09 438.62,-194.42 445.58,-193.63"/>
</g>
<!-- Node4&#45;&gt;Node5 -->
<g id="edge4" class="edge">
<title>Node4&#45;&gt;Node5</title>
<path fill="none" stroke="#63b8ff" d="M259.72,-164.98C240.33,-156.42 210.19,-143.11 187.93,-133.28"/>
<polygon fill="#63b8ff" stroke="#63b8ff" points="189.19,-130.01 178.63,-129.17 186.36,-136.41 189.19,-130.01"/>
</g>
<!-- Node12 -->
<g id="node12" class="node">
<title>Node12</title>
<g id="a_node12"><a xlink:title=" ">
<polygon fill="#e0e0e0" stroke="#999999" points="325.5,-129 232.5,-129 232.5,-110 325.5,-110 325.5,-129"/>
<text text-anchor="middle" x="279" y="-117" font-family="Helvetica,sans-Serif" font-size="10.00">unordered_map</text>
</a>
</g>
</g>
<!-- Node4&#45;&gt;Node12 -->
<g id="edge11" class="edge">
<title>Node4&#45;&gt;Node12</title>
<path fill="none" stroke="#63b8ff" d="M279,-164.75C279,-157.8 279,-147.85 279,-139.13"/>
<polygon fill="#63b8ff" stroke="#63b8ff" points="282.5,-139.09 279,-129.09 275.5,-139.09 282.5,-139.09"/>
</g>
<!-- Node5&#45;&gt;Node6 -->
<g id="edge5" class="edge">
<title>Node5&#45;&gt;Node6</title>
<path fill="none" stroke="#63b8ff" d="M213.14,-109.98C280.16,-99.45 392.86,-81.72 453.81,-72.14"/>
<polygon fill="#63b8ff" stroke="#63b8ff" points="454.51,-75.57 463.85,-70.56 453.42,-68.65 454.51,-75.57"/>
</g>
<!-- Node10 -->
<g id="node10" class="node">
<title>Node10</title>
<g id="a_node10"><a xlink:title=" ">
<polygon fill="#e0e0e0" stroke="#999999" points="307.5,-74 242.5,-74 242.5,-55 307.5,-55 307.5,-74"/>
<text text-anchor="middle" x="275" y="-62" font-family="Helvetica,sans-Serif" font-size="10.00">functional</text>
</a>
</g>
</g>
<!-- Node5&#45;&gt;Node10 -->
<g id="edge9" class="edge">
<title>Node5&#45;&gt;Node10</title>
<path fill="none" stroke="#63b8ff" d="M177.64,-109.98C196.3,-101.46 225.25,-88.23 246.74,-78.41"/>
<polygon fill="#63b8ff" stroke="#63b8ff" points="248.38,-81.51 256.02,-74.17 245.47,-75.14 248.38,-81.51"/>
</g>
<!-- Node5&#45;&gt;Node11 -->
<g id="edge10" class="edge">
<title>Node5&#45;&gt;Node11</title>
<path fill="none" stroke="#63b8ff" d="M153.06,-109.75C148.02,-102.34 140.66,-91.5 134.49,-82.41"/>
<polygon fill="#63b8ff" stroke="#63b8ff" points="137.35,-80.39 128.83,-74.09 131.56,-84.33 137.35,-80.39"/>
</g>
<!-- Node7 -->
<g id="node7" class="node">
<title>Node7</title>
<g id="a_node7"><a xlink:title=" ">
<polygon fill="#e0e0e0" stroke="#999999" points="526,-19 466,-19 466,0 526,0 526,-19"/>
<text text-anchor="middle" x="496" y="-7" font-family="Helvetica,sans-Serif" font-size="10.00">concepts</text>
</a>
</g>
</g>
<!-- Node6&#45;&gt;Node7 -->
<g id="edge6" class="edge">
<title>Node6&#45;&gt;Node7</title>
<path fill="none" stroke="#63b8ff" d="M496,-54.75C496,-47.8 496,-37.85 496,-29.13"/>
<polygon fill="#63b8ff" stroke="#63b8ff" points="499.5,-29.09 496,-19.09 492.5,-29.09 499.5,-29.09"/>
</g>
<!-- Node6&#45;&gt;Node8 -->
<g id="edge7" class="edge">
<title>Node6&#45;&gt;Node8</title>
<path fill="none" stroke="#63b8ff" d="M528.3,-58.61C593.49,-48.74 740.43,-26.49 809.2,-16.07"/>
<polygon fill="#63b8ff" stroke="#63b8ff" points="809.79,-19.52 819.15,-14.57 808.74,-12.6 809.79,-19.52"/>
</g>
<!-- Node6&#45;&gt;Node9 -->
<g id="edge8" class="edge">
<title>Node6&#45;&gt;Node9</title>
<path fill="none" stroke="#63b8ff" d="M463.77,-57.05C413.83,-47.07 318.12,-27.92 266.35,-17.57"/>
<polygon fill="#63b8ff" stroke="#63b8ff" points="266.8,-14.09 256.3,-15.56 265.42,-20.95 266.8,-14.09"/>
</g>
<!-- Node13&#45;&gt;Node9 -->
<g id="edge14" class="edge">
<title>Node13&#45;&gt;Node9</title>
<path fill="none" stroke="#63b8ff" d="M501.25,-164.87C469.28,-144.89 387.34,-94.2 317,-55 297.36,-44.05 274.77,-32.4 257.67,-23.76"/>
<polygon fill="#63b8ff" stroke="#63b8ff" points="258.81,-20.42 248.3,-19.06 255.66,-26.67 258.81,-20.42"/>
</g>
<!-- Node13&#45;&gt;Node14 -->
<g id="edge15" class="edge">
<title>Node13&#45;&gt;Node14</title>
<path fill="none" stroke="#63b8ff" d="M534.44,-164.98C553.99,-156.42 584.38,-143.11 606.82,-133.28"/>
<polygon fill="#63b8ff" stroke="#63b8ff" points="608.45,-136.39 616.21,-129.17 605.64,-129.98 608.45,-136.39"/>
</g>
<!-- Node15 -->
<g id="node15" class="node">
<title>Node15</title>
<g id="a_node15"><a xlink:title=" ">
<polygon fill="#e0e0e0" stroke="#999999" points="514,-129 458,-129 458,-110 514,-110 514,-129"/>
<text text-anchor="middle" x="486" y="-117" font-family="Helvetica,sans-Serif" font-size="10.00">sstream</text>
</a>
</g>
</g>
<!-- Node13&#45;&gt;Node15 -->
<g id="edge16" class="edge">
<title>Node13&#45;&gt;Node15</title>
<path fill="none" stroke="#63b8ff" d="M510.21,-164.75C506.24,-157.49 500.47,-146.95 495.57,-137.98"/>
<polygon fill="#63b8ff" stroke="#63b8ff" points="498.57,-136.18 490.7,-129.09 492.43,-139.54 498.57,-136.18"/>
</g>
<!-- Node16&#45;&gt;Node6 -->
<g id="edge18" class="edge">
<title>Node16&#45;&gt;Node6</title>
<path fill="none" stroke="#63b8ff" d="M691.43,-164.76C691.6,-151.11 689.82,-124.77 675,-110 655.97,-91.03 584.98,-77.81 538.32,-70.95"/>
<polygon fill="#63b8ff" stroke="#63b8ff" points="538.58,-67.45 528.18,-69.5 537.59,-74.38 538.58,-67.45"/>
</g>
<!-- Node16&#45;&gt;Node14 -->
<g id="edge19" class="edge">
<title>Node16&#45;&gt;Node14</title>
<path fill="none" stroke="#63b8ff" d="M681.92,-164.75C673.91,-157.03 662.04,-145.6 652.38,-136.28"/>
<polygon fill="#63b8ff" stroke="#63b8ff" points="654.54,-133.51 644.91,-129.09 649.69,-138.55 654.54,-133.51"/>
</g>
<!-- Node17 -->
<g id="node17" class="node">
<title>Node17</title>
<g id="a_node17"><a xlink:title=" ">
<polygon fill="#e0e0e0" stroke="#999999" points="588,-129 532,-129 532,-110 588,-110 588,-129"/>
<text text-anchor="middle" x="560" y="-117" font-family="Helvetica,sans-Serif" font-size="10.00">stddef.h</text>
</a>
</g>
</g>
<!-- Node16&#45;&gt;Node17 -->
<g id="edge20" class="edge">
<title>Node16&#45;&gt;Node17</title>
<path fill="none" stroke="#63b8ff" d="M669.95,-164.98C648.59,-156.34 615.3,-142.87 590.94,-133.02"/>
<polygon fill="#63b8ff" stroke="#63b8ff" points="592.01,-129.68 581.43,-129.17 589.39,-136.17 592.01,-129.68"/>
</g>
<!-- Node16&#45;&gt;Node18 -->
<g id="edge21" class="edge">
<title>Node16&#45;&gt;Node18</title>
<path fill="none" stroke="#63b8ff" d="M700.08,-164.75C708.09,-157.03 719.96,-145.6 729.62,-136.28"/>
<polygon fill="#63b8ff" stroke="#63b8ff" points="732.31,-138.55 737.09,-129.09 727.46,-133.51 732.31,-138.55"/>
</g>
<!-- Node19&#45;&gt;Node10 -->
<g id="edge24" class="edge">
<title>Node19&#45;&gt;Node10</title>
<path fill="none" stroke="#63b8ff" d="M426.78,-164.84C398.42,-146.28 331.51,-102.49 296.78,-79.75"/>
<polygon fill="#63b8ff" stroke="#63b8ff" points="298.57,-76.74 288.29,-74.2 294.74,-82.6 298.57,-76.74"/>
</g>
<!-- Node19&#45;&gt;Node17 -->
<g id="edge25" class="edge">
<title>Node19&#45;&gt;Node17</title>
<path fill="none" stroke="#63b8ff" d="M459.28,-164.98C478.67,-156.42 508.81,-143.11 531.07,-133.28"/>
<polygon fill="#63b8ff" stroke="#63b8ff" points="532.64,-136.41 540.37,-129.17 529.81,-130.01 532.64,-136.41"/>
</g>
</g>
</svg>
