<?xml version="1.0" encoding="UTF-8" standalone="no"?>
<!DOCTYPE svg PUBLIC "-//W3C//DTD SVG 1.1//EN"
 "http://www.w3.org/Graphics/SVG/1.1/DTD/svg11.dtd">
<!-- Generated by graphviz version 2.43.0 (0)
 -->
<!-- Title: debugger.h Pages: 1 -->
<svg width="1158pt" height="302pt"
 viewBox="0.00 0.00 1158.00 302.00" xmlns="http://www.w3.org/2000/svg" xmlns:xlink="http://www.w3.org/1999/xlink">
<g id="graph0" class="graph" transform="scale(1 1) rotate(0) translate(4 298)">
<title>debugger.h</title>
<!-- Node1 -->
<g id="node1" class="node">
<title>Node1</title>
<g id="a_node1"><a xlink:title=" ">
<polygon fill="#999999" stroke="#666666" points="702.5,-294 631.5,-294 631.5,-275 702.5,-275 702.5,-294"/>
<text text-anchor="middle" x="667" y="-282" font-family="Helvetica,sans-Serif" font-size="10.00">debugger.h</text>
</a>
</g>
</g>
<!-- Node2 -->
<g id="node2" class="node">
<title>Node2</title>
<g id="a_node2"><a xlink:href="6502cpu_8h.html" target="_top" xlink:title=" ">
<polygon fill="white" stroke="#666666" points="403.5,-239 336.5,-239 336.5,-220 403.5,-220 403.5,-239"/>
<text text-anchor="middle" x="370" y="-227" font-family="Helvetica,sans-Serif" font-size="10.00">6502cpu.h</text>
</a>
</g>
</g>
<!-- Node1&#45;&gt;Node2 -->
<g id="edge1" class="edge">
<title>Node1&#45;&gt;Node2</title>
<path fill="none" stroke="#63b8ff" d="M631.47,-277.16C577,-267.44 472.98,-248.88 413.88,-238.33"/>
<polygon fill="#63b8ff" stroke="#63b8ff" points="414.2,-234.83 403.74,-236.52 412.97,-241.72 414.2,-234.83"/>
</g>
<!-- Node4 -->
<g id="node4" class="node">
<title>Node4</title>
<g id="a_node4"><a xlink:href="instruction__types_8h.html" target="_top" xlink:title=" ">
<polygon fill="white" stroke="#666666" points="176,-129 66,-129 66,-110 176,-110 176,-129"/>
<text text-anchor="middle" x="121" y="-117" font-family="Helvetica,sans-Serif" font-size="10.00">instruction_types.h</text>
</a>
</g>
</g>
<!-- Node1&#45;&gt;Node4 -->
<g id="edge29" class="edge">
<title>Node1&#45;&gt;Node4</title>
<path fill="none" stroke="#63b8ff" d="M631.45,-281.17C569.25,-276.57 436.95,-264.49 328,-239 254.37,-221.77 227.81,-228.95 167,-184 150.79,-172.02 137.94,-152.66 129.99,-138.46"/>
<polygon fill="#63b8ff" stroke="#63b8ff" points="132.87,-136.41 125.09,-129.21 126.68,-139.68 132.87,-136.41"/>
</g>
<!-- Node5 -->
<g id="node5" class="node">
<title>Node5</title>
<g id="a_node5"><a xlink:href="address_8h.html" target="_top" xlink:title=" ">
<polygon fill="white" stroke="#666666" points="512,-74 448,-74 448,-55 512,-55 512,-74"/>
<text text-anchor="middle" x="480" y="-62" font-family="Helvetica,sans-Serif" font-size="10.00">address.h</text>
</a>
</g>
</g>
<!-- Node1&#45;&gt;Node5 -->
<g id="edge26" class="edge">
<title>Node1&#45;&gt;Node5</title>
<path fill="none" stroke="#63b8ff" d="M667.89,-274.93C670.28,-247.11 673.89,-158.37 629,-110 601.71,-80.59 555.88,-70.33 522.24,-66.9"/>
<polygon fill="#63b8ff" stroke="#63b8ff" points="522.49,-63.41 512.23,-66.04 521.89,-70.38 522.49,-63.41"/>
</g>
<!-- Node7 -->
<g id="node7" class="node">
<title>Node7</title>
<g id="a_node7"><a xlink:title=" ">
<polygon fill="#e0e0e0" stroke="#999999" points="255.5,-19 202.5,-19 202.5,0 255.5,0 255.5,-19"/>
<text text-anchor="middle" x="229" y="-7" font-family="Helvetica,sans-Serif" font-size="10.00">cstddef</text>
</a>
</g>
</g>
<!-- Node1&#45;&gt;Node7 -->
<g id="edge31" class="edge">
<title>Node1&#45;&gt;Node7</title>
<path fill="none" stroke="#63b8ff" d="M631.47,-283.59C549.09,-283.11 339.1,-277.8 169,-239 90.77,-221.16 0,-255.74 0,-175.5 0,-175.5 0,-175.5 0,-118.5 0,-34.6 127.31,-15.77 192.08,-11.62"/>
<polygon fill="#63b8ff" stroke="#63b8ff" points="192.49,-15.11 202.28,-11.06 192.1,-8.12 192.49,-15.11"/>
</g>
<!-- Node8 -->
<g id="node8" class="node">
<title>Node8</title>
<g id="a_node8"><a xlink:title=" ">
<polygon fill="#e0e0e0" stroke="#999999" points="785,-19 735,-19 735,0 785,0 785,-19"/>
<text text-anchor="middle" x="760" y="-7" font-family="Helvetica,sans-Serif" font-size="10.00">cstdint</text>
</a>
</g>
</g>
<!-- Node1&#45;&gt;Node8 -->
<g id="edge32" class="edge">
<title>Node1&#45;&gt;Node8</title>
<path fill="none" stroke="#63b8ff" d="M678.89,-274.97C699.4,-259.5 740.93,-224.63 759,-184 782.1,-132.05 771.68,-62.39 764.61,-29.38"/>
<polygon fill="#63b8ff" stroke="#63b8ff" points="767.95,-28.28 762.31,-19.31 761.13,-29.84 767.95,-28.28"/>
</g>
<!-- Node10 -->
<g id="node10" class="node">
<title>Node10</title>
<g id="a_node10"><a xlink:title=" ">
<polygon fill="#e0e0e0" stroke="#999999" points="108,-74 64,-74 64,-55 108,-55 108,-74"/>
<text text-anchor="middle" x="86" y="-62" font-family="Helvetica,sans-Serif" font-size="10.00">string</text>
</a>
</g>
</g>
<!-- Node1&#45;&gt;Node10 -->
<g id="edge39" class="edge">
<title>Node1&#45;&gt;Node10</title>
<path fill="none" stroke="#63b8ff" d="M631.18,-281.93C540.84,-277.62 305.7,-264.27 232,-239 145.1,-209.21 101.33,-209.46 57,-129 48.46,-113.5 59.1,-95.02 69.81,-82.01"/>
<polygon fill="#63b8ff" stroke="#63b8ff" points="72.62,-84.12 76.66,-74.33 67.4,-79.46 72.62,-84.12"/>
</g>
<!-- Node12 -->
<g id="node12" class="node">
<title>Node12</title>
<g id="a_node12"><a xlink:href="byte__utils_8h.html" target="_top" xlink:title=" ">
<polygon fill="white" stroke="#666666" points="750,-184 676,-184 676,-165 750,-165 750,-184"/>
<text text-anchor="middle" x="713" y="-172" font-family="Helvetica,sans-Serif" font-size="10.00">byte_utils.h</text>
</a>
</g>
</g>
<!-- Node1&#45;&gt;Node12 -->
<g id="edge27" class="edge">
<title>Node1&#45;&gt;Node12</title>
<path fill="none" stroke="#63b8ff" d="M670.76,-274.66C678.28,-257.01 695.29,-217.09 705.28,-193.64"/>
<polygon fill="#63b8ff" stroke="#63b8ff" points="708.61,-194.73 709.31,-184.16 702.17,-191.99 708.61,-194.73"/>
</g>
<!-- Node13 -->
<g id="node13" class="node">
<title>Node13</title>
<g id="a_node13"><a xlink:title=" ">
<polygon fill="#e0e0e0" stroke="#999999" points="620,-129 560,-129 560,-110 620,-110 620,-129"/>
<text text-anchor="middle" x="590" y="-117" font-family="Helvetica,sans-Serif" font-size="10.00">iostream</text>
</a>
</g>
</g>
<!-- Node1&#45;&gt;Node13 -->
<g id="edge35" class="edge">
<title>Node1&#45;&gt;Node13</title>
<path fill="none" stroke="#63b8ff" d="M659.38,-274.8C652.12,-266.18 641.24,-252.36 634,-239 615.85,-205.52 602.09,-162.99 595.11,-139.05"/>
<polygon fill="#63b8ff" stroke="#63b8ff" points="598.41,-137.85 592.31,-129.19 591.67,-139.76 598.41,-137.85"/>
</g>
<!-- Node15 -->
<g id="node15" class="node">
<title>Node15</title>
<g id="a_node15"><a xlink:href="gp__memory_8h.html" target="_top" xlink:title=" ">
<polygon fill="white" stroke="#666666" points="543.5,-184 460.5,-184 460.5,-165 543.5,-165 543.5,-184"/>
<text text-anchor="middle" x="502" y="-172" font-family="Helvetica,sans-Serif" font-size="10.00">gp_memory.h</text>
</a>
</g>
</g>
<!-- Node1&#45;&gt;Node15 -->
<g id="edge28" class="edge">
<title>Node1&#45;&gt;Node15</title>
<path fill="none" stroke="#63b8ff" d="M653.03,-274.94C638.65,-266.08 615.63,-251.78 596,-239 570.61,-222.47 541.79,-202.88 522.83,-189.87"/>
<polygon fill="#63b8ff" stroke="#63b8ff" points="524.6,-186.84 514.38,-184.06 520.64,-192.61 524.6,-186.84"/>
</g>
<!-- Node17 -->
<g id="node17" class="node">
<title>Node17</title>
<g id="a_node17"><a xlink:title=" ">
<polygon fill="#e0e0e0" stroke="#999999" points="503.5,-129 456.5,-129 456.5,-110 503.5,-110 503.5,-129"/>
<text text-anchor="middle" x="480" y="-117" font-family="Helvetica,sans-Serif" font-size="10.00">vector</text>
</a>
</g>
</g>
<!-- Node1&#45;&gt;Node17 -->
<g id="edge40" class="edge">
<title>Node1&#45;&gt;Node17</title>
<path fill="none" stroke="#63b8ff" d="M631.31,-278.96C580.97,-270.41 490.93,-246.73 452,-184 442.62,-168.88 453.38,-150.08 464.16,-136.87"/>
<polygon fill="#63b8ff" stroke="#63b8ff" points="467.03,-138.9 471.04,-129.09 461.79,-134.27 467.03,-138.9"/>
</g>
<!-- Node19 -->
<g id="node19" class="node">
<title>Node19</title>
<g id="a_node19"><a xlink:title=" ">
<polygon fill="#e0e0e0" stroke="#999999" points="796,-239 752,-239 752,-220 796,-220 796,-239"/>
<text text-anchor="middle" x="774" y="-227" font-family="Helvetica,sans-Serif" font-size="10.00">bitset</text>
</a>
</g>
</g>
<!-- Node1&#45;&gt;Node19 -->
<g id="edge30" class="edge">
<title>Node1&#45;&gt;Node19</title>
<path fill="none" stroke="#63b8ff" d="M684.19,-274.98C701.25,-266.54 727.63,-253.47 747.4,-243.68"/>
<polygon fill="#63b8ff" stroke="#63b8ff" points="749.09,-246.75 756.5,-239.17 745.98,-240.47 749.09,-246.75"/>
</g>
<!-- Node20 -->
<g id="node20" class="node">
<title>Node20</title>
<g id="a_node20"><a xlink:title=" ">
<polygon fill="#e0e0e0" stroke="#999999" points="863.5,-239 814.5,-239 814.5,-220 863.5,-220 863.5,-239"/>
<text text-anchor="middle" x="839" y="-227" font-family="Helvetica,sans-Serif" font-size="10.00">cstdlib</text>
</a>
</g>
</g>
<!-- Node1&#45;&gt;Node20 -->
<g id="edge33" class="edge">
<title>Node1&#45;&gt;Node20</title>
<path fill="none" stroke="#63b8ff" d="M694.63,-274.98C724.54,-265.77 772.27,-251.06 804.59,-241.1"/>
<polygon fill="#63b8ff" stroke="#63b8ff" points="805.97,-244.34 814.5,-238.05 803.91,-237.65 805.97,-244.34"/>
</g>
<!-- Node21 -->
<g id="node21" class="node">
<title>Node21</title>
<g id="a_node21"><a xlink:title=" ">
<polygon fill="#e0e0e0" stroke="#999999" points="938,-239 882,-239 882,-220 938,-220 938,-239"/>
<text text-anchor="middle" x="910" y="-227" font-family="Helvetica,sans-Serif" font-size="10.00">iomanip</text>
</a>
</g>
</g>
<!-- Node1&#45;&gt;Node21 -->
<g id="edge34" class="edge">
<title>Node1&#45;&gt;Node21</title>
<path fill="none" stroke="#63b8ff" d="M702.76,-275.92C741.86,-267.61 806.64,-253.73 871.71,-239.27"/>
<polygon fill="#63b8ff" stroke="#63b8ff" points="872.73,-242.63 881.73,-237.04 871.21,-235.79 872.73,-242.63"/>
</g>
<!-- Node22 -->
<g id="node22" class="node">
<title>Node22</title>
<g id="a_node22"><a xlink:title=" ">
<polygon fill="#e0e0e0" stroke="#999999" points="1012,-239 956,-239 956,-220 1012,-220 1012,-239"/>
<text text-anchor="middle" x="984" y="-227" font-family="Helvetica,sans-Serif" font-size="10.00">optional</text>
</a>
</g>
</g>
<!-- Node1&#45;&gt;Node22 -->
<g id="edge36" class="edge">
<title>Node1&#45;&gt;Node22</title>
<path fill="none" stroke="#63b8ff" d="M702.94,-278.59C754.53,-271.36 852.77,-256.96 945.9,-239.1"/>
<polygon fill="#63b8ff" stroke="#63b8ff" points="946.61,-242.53 955.76,-237.2 945.28,-235.66 946.61,-242.53"/>
</g>
<!-- Node23 -->
<g id="node23" class="node">
<title>Node23</title>
<g id="a_node23"><a xlink:title=" ">
<polygon fill="#e0e0e0" stroke="#999999" points="1087.5,-239 1030.5,-239 1030.5,-220 1087.5,-220 1087.5,-239"/>
<text text-anchor="middle" x="1059" y="-227" font-family="Helvetica,sans-Serif" font-size="10.00">ostream</text>
</a>
</g>
</g>
<!-- Node1&#45;&gt;Node23 -->
<g id="edge37" class="edge">
<title>Node1&#45;&gt;Node23</title>
<path fill="none" stroke="#63b8ff" d="M702.59,-280.16C764.9,-274.06 897.95,-259.95 1020.49,-238.92"/>
<polygon fill="#63b8ff" stroke="#63b8ff" points="1021.17,-242.36 1030.42,-237.2 1019.97,-235.46 1021.17,-242.36"/>
</g>
<!-- Node24 -->
<g id="node24" class="node">
<title>Node24</title>
<g id="a_node24"><a xlink:title=" ">
<polygon fill="#e0e0e0" stroke="#999999" points="1150,-239 1106,-239 1106,-220 1150,-220 1150,-239"/>
<text text-anchor="middle" x="1128" y="-227" font-family="Helvetica,sans-Serif" font-size="10.00">regex</text>
</a>
</g>
</g>
<!-- Node1&#45;&gt;Node24 -->
<g id="edge38" class="edge">
<title>Node1&#45;&gt;Node24</title>
<path fill="none" stroke="#63b8ff" d="M702.68,-281.8C775.13,-277.91 944.74,-266.64 1095.83,-238.92"/>
<polygon fill="#63b8ff" stroke="#63b8ff" points="1096.56,-242.34 1105.75,-237.07 1095.28,-235.46 1096.56,-242.34"/>
</g>
<!-- Node3 -->
<g id="node3" class="node">
<title>Node3</title>
<g id="a_node3"><a xlink:href="6502isa_8h.html" target="_top" xlink:title=" ">
<polygon fill="white" stroke="#666666" points="273,-184 209,-184 209,-165 273,-165 273,-184"/>
<text text-anchor="middle" x="241" y="-172" font-family="Helvetica,sans-Serif" font-size="10.00">6502isa.h</text>
</a>
</g>
</g>
<!-- Node2&#45;&gt;Node3 -->
<g id="edge2" class="edge">
<title>Node2&#45;&gt;Node3</title>
<path fill="none" stroke="#63b8ff" d="M349.27,-219.98C328.24,-211.34 295.45,-197.87 271.46,-188.02"/>
<polygon fill="#63b8ff" stroke="#63b8ff" points="272.68,-184.73 262.1,-184.17 270.02,-191.21 272.68,-184.73"/>
</g>
<!-- Node2&#45;&gt;Node4 -->
<g id="edge21" class="edge">
<title>Node2&#45;&gt;Node4</title>
<path fill="none" stroke="#63b8ff" d="M336.25,-223.95C300.84,-218.22 244.28,-206.3 200,-184 175.6,-171.71 151.74,-150.97 136.74,-136.55"/>
<polygon fill="#63b8ff" stroke="#63b8ff" points="138.95,-133.82 129.37,-129.29 134.03,-138.8 138.95,-133.82"/>
</g>
<!-- Node2&#45;&gt;Node5 -->
<g id="edge11" class="edge">
<title>Node2&#45;&gt;Node5</title>
<path fill="none" stroke="#63b8ff" d="M375.56,-219.79C388.17,-200.08 420.07,-150.58 448,-110 454.34,-100.79 461.6,-90.66 467.6,-82.39"/>
<polygon fill="#63b8ff" stroke="#63b8ff" points="470.45,-84.43 473.52,-74.29 464.79,-80.3 470.45,-84.43"/>
</g>
<!-- Node2&#45;&gt;Node12 -->
<g id="edge12" class="edge">
<title>Node2&#45;&gt;Node12</title>
<path fill="none" stroke="#63b8ff" d="M403.51,-223.32C464.97,-213.83 595.82,-193.61 666.08,-182.75"/>
<polygon fill="#63b8ff" stroke="#63b8ff" points="666.65,-186.2 675.99,-181.22 665.58,-179.29 666.65,-186.2"/>
</g>
<!-- Node2&#45;&gt;Node13 -->
<g id="edge25" class="edge">
<title>Node2&#45;&gt;Node13</title>
<path fill="none" stroke="#63b8ff" d="M403.69,-228.02C443.14,-225.85 508.71,-217.04 553,-184 568.14,-172.7 578.15,-153.23 583.89,-138.82"/>
<polygon fill="#63b8ff" stroke="#63b8ff" points="587.18,-140.01 587.33,-129.41 580.61,-137.6 587.18,-140.01"/>
</g>
<!-- Node2&#45;&gt;Node15 -->
<g id="edge16" class="edge">
<title>Node2&#45;&gt;Node15</title>
<path fill="none" stroke="#63b8ff" d="M391.21,-219.98C412.73,-211.34 446.28,-197.87 470.83,-188.02"/>
<polygon fill="#63b8ff" stroke="#63b8ff" points="472.43,-191.14 480.41,-184.17 469.82,-184.65 472.43,-191.14"/>
</g>
<!-- Node18 -->
<g id="node18" class="node">
<title>Node18</title>
<g id="a_node18"><a xlink:href="psr_8h.html" target="_top" xlink:title=" ">
<polygon fill="white" stroke="#666666" points="366,-184 326,-184 326,-165 366,-165 366,-184"/>
<text text-anchor="middle" x="346" y="-172" font-family="Helvetica,sans-Serif" font-size="10.00">psr.h</text>
</a>
</g>
</g>
<!-- Node2&#45;&gt;Node18 -->
<g id="edge22" class="edge">
<title>Node2&#45;&gt;Node18</title>
<path fill="none" stroke="#63b8ff" d="M366.04,-219.75C362.79,-212.57 358.08,-202.18 354.05,-193.27"/>
<polygon fill="#63b8ff" stroke="#63b8ff" points="357.2,-191.75 349.89,-184.09 350.83,-194.64 357.2,-191.75"/>
</g>
<!-- Node3&#45;&gt;Node4 -->
<g id="edge3" class="edge">
<title>Node3&#45;&gt;Node4</title>
<path fill="none" stroke="#63b8ff" d="M221.72,-164.98C202.33,-156.42 172.19,-143.11 149.93,-133.28"/>
<polygon fill="#63b8ff" stroke="#63b8ff" points="151.19,-130.01 140.63,-129.17 148.36,-136.41 151.19,-130.01"/>
</g>
<!-- Node11 -->
<g id="node11" class="node">
<title>Node11</title>
<g id="a_node11"><a xlink:title=" ">
<polygon fill="#e0e0e0" stroke="#999999" points="287.5,-129 194.5,-129 194.5,-110 287.5,-110 287.5,-129"/>
<text text-anchor="middle" x="241" y="-117" font-family="Helvetica,sans-Serif" font-size="10.00">unordered_map</text>
</a>
</g>
</g>
<!-- Node3&#45;&gt;Node11 -->
<g id="edge10" class="edge">
<title>Node3&#45;&gt;Node11</title>
<path fill="none" stroke="#63b8ff" d="M241,-164.75C241,-157.8 241,-147.85 241,-139.13"/>
<polygon fill="#63b8ff" stroke="#63b8ff" points="244.5,-139.09 241,-129.09 237.5,-139.09 244.5,-139.09"/>
</g>
<!-- Node4&#45;&gt;Node5 -->
<g id="edge4" class="edge">
<title>Node4&#45;&gt;Node5</title>
<path fill="none" stroke="#63b8ff" d="M176.31,-110.33C248.37,-99.7 372.82,-81.32 437.77,-71.73"/>
<polygon fill="#63b8ff" stroke="#63b8ff" points="438.29,-75.2 447.67,-70.27 437.27,-68.27 438.29,-75.2"/>
</g>
<!-- Node9 -->
<g id="node9" class="node">
<title>Node9</title>
<g id="a_node9"><a xlink:title=" ">
<polygon fill="#e0e0e0" stroke="#999999" points="270.5,-74 205.5,-74 205.5,-55 270.5,-55 270.5,-74"/>
<text text-anchor="middle" x="238" y="-62" font-family="Helvetica,sans-Serif" font-size="10.00">functional</text>
</a>
</g>
</g>
<!-- Node4&#45;&gt;Node9 -->
<g id="edge8" class="edge">
<title>Node4&#45;&gt;Node9</title>
<path fill="none" stroke="#63b8ff" d="M139.8,-109.98C158.62,-101.46 187.82,-88.23 209.5,-78.41"/>
<polygon fill="#63b8ff" stroke="#63b8ff" points="211.2,-81.48 218.86,-74.17 208.31,-75.11 211.2,-81.48"/>
</g>
<!-- Node4&#45;&gt;Node10 -->
<g id="edge9" class="edge">
<title>Node4&#45;&gt;Node10</title>
<path fill="none" stroke="#63b8ff" d="M115.22,-109.75C110.38,-102.42 103.32,-91.73 97.36,-82.7"/>
<polygon fill="#63b8ff" stroke="#63b8ff" points="100.1,-80.5 91.67,-74.09 94.26,-84.36 100.1,-80.5"/>
</g>
<!-- Node6 -->
<g id="node6" class="node">
<title>Node6</title>
<g id="a_node6"><a xlink:title=" ">
<polygon fill="#e0e0e0" stroke="#999999" points="510,-19 450,-19 450,0 510,0 510,-19"/>
<text text-anchor="middle" x="480" y="-7" font-family="Helvetica,sans-Serif" font-size="10.00">concepts</text>
</a>
</g>
</g>
<!-- Node5&#45;&gt;Node6 -->
<g id="edge5" class="edge">
<title>Node5&#45;&gt;Node6</title>
<path fill="none" stroke="#63b8ff" d="M480,-54.75C480,-47.8 480,-37.85 480,-29.13"/>
<polygon fill="#63b8ff" stroke="#63b8ff" points="483.5,-29.09 480,-19.09 476.5,-29.09 483.5,-29.09"/>
</g>
<!-- Node5&#45;&gt;Node7 -->
<g id="edge6" class="edge">
<title>Node5&#45;&gt;Node7</title>
<path fill="none" stroke="#63b8ff" d="M447.96,-56.73C401.19,-46.86 314.49,-28.55 265.39,-18.18"/>
<polygon fill="#63b8ff" stroke="#63b8ff" points="266.02,-14.74 255.51,-16.1 264.57,-21.59 266.02,-14.74"/>
</g>
<!-- Node5&#45;&gt;Node8 -->
<g id="edge7" class="edge">
<title>Node5&#45;&gt;Node8</title>
<path fill="none" stroke="#63b8ff" d="M512.12,-57.42C565.02,-47.41 670.06,-27.52 724.87,-17.15"/>
<polygon fill="#63b8ff" stroke="#63b8ff" points="725.64,-20.57 734.81,-15.27 724.34,-13.69 725.64,-20.57"/>
</g>
<!-- Node12&#45;&gt;Node8 -->
<g id="edge13" class="edge">
<title>Node12&#45;&gt;Node8</title>
<path fill="none" stroke="#63b8ff" d="M719.93,-164.86C726.44,-156.28 735.92,-142.5 741,-129 753.69,-95.32 757.9,-53.14 759.3,-29.26"/>
<polygon fill="#63b8ff" stroke="#63b8ff" points="762.81,-29.29 759.79,-19.13 755.82,-28.95 762.81,-29.29"/>
</g>
<!-- Node12&#45;&gt;Node13 -->
<g id="edge14" class="edge">
<title>Node12&#45;&gt;Node13</title>
<path fill="none" stroke="#63b8ff" d="M693.24,-164.98C673.27,-156.38 642.2,-142.99 619.35,-133.15"/>
<polygon fill="#63b8ff" stroke="#63b8ff" points="620.69,-129.91 610.12,-129.17 617.92,-136.34 620.69,-129.91"/>
</g>
<!-- Node14 -->
<g id="node14" class="node">
<title>Node14</title>
<g id="a_node14"><a xlink:title=" ">
<polygon fill="#e0e0e0" stroke="#999999" points="732,-129 676,-129 676,-110 732,-110 732,-129"/>
<text text-anchor="middle" x="704" y="-117" font-family="Helvetica,sans-Serif" font-size="10.00">sstream</text>
</a>
</g>
</g>
<!-- Node12&#45;&gt;Node14 -->
<g id="edge15" class="edge">
<title>Node12&#45;&gt;Node14</title>
<path fill="none" stroke="#63b8ff" d="M711.51,-164.75C710.33,-157.8 708.64,-147.85 707.16,-139.13"/>
<polygon fill="#63b8ff" stroke="#63b8ff" points="710.58,-138.36 705.46,-129.09 703.68,-139.53 710.58,-138.36"/>
</g>
<!-- Node15&#45;&gt;Node5 -->
<g id="edge17" class="edge">
<title>Node15&#45;&gt;Node5</title>
<path fill="none" stroke="#63b8ff" d="M506.18,-164.67C511.49,-152.22 519.25,-128.91 513,-110 509.54,-99.54 502.57,-89.53 495.92,-81.66"/>
<polygon fill="#63b8ff" stroke="#63b8ff" points="498.33,-79.1 489.02,-74.04 493.14,-83.8 498.33,-79.1"/>
</g>
<!-- Node15&#45;&gt;Node13 -->
<g id="edge18" class="edge">
<title>Node15&#45;&gt;Node13</title>
<path fill="none" stroke="#63b8ff" d="M516.14,-164.98C529.79,-156.77 550.69,-144.18 566.78,-134.49"/>
<polygon fill="#63b8ff" stroke="#63b8ff" points="568.84,-137.33 575.6,-129.17 565.23,-131.33 568.84,-137.33"/>
</g>
<!-- Node16 -->
<g id="node16" class="node">
<title>Node16</title>
<g id="a_node16"><a xlink:title=" ">
<polygon fill="#e0e0e0" stroke="#999999" points="400,-129 344,-129 344,-110 400,-110 400,-129"/>
<text text-anchor="middle" x="372" y="-117" font-family="Helvetica,sans-Serif" font-size="10.00">stddef.h</text>
</a>
</g>
</g>
<!-- Node15&#45;&gt;Node16 -->
<g id="edge19" class="edge">
<title>Node15&#45;&gt;Node16</title>
<path fill="none" stroke="#63b8ff" d="M481.11,-164.98C459.92,-156.34 426.87,-142.87 402.7,-133.02"/>
<polygon fill="#63b8ff" stroke="#63b8ff" points="403.85,-129.7 393.27,-129.17 401.21,-136.19 403.85,-129.7"/>
</g>
<!-- Node15&#45;&gt;Node17 -->
<g id="edge20" class="edge">
<title>Node15&#45;&gt;Node17</title>
<path fill="none" stroke="#63b8ff" d="M498.37,-164.75C495.42,-157.65 491.17,-147.4 487.49,-138.56"/>
<polygon fill="#63b8ff" stroke="#63b8ff" points="490.63,-136.98 483.57,-129.09 484.17,-139.67 490.63,-136.98"/>
</g>
<!-- Node18&#45;&gt;Node9 -->
<g id="edge23" class="edge">
<title>Node18&#45;&gt;Node9</title>
<path fill="none" stroke="#63b8ff" d="M340.32,-164.69C331.81,-151.86 314.82,-127.63 297,-110 285.66,-98.78 271.42,-87.97 259.77,-79.81"/>
<polygon fill="#63b8ff" stroke="#63b8ff" points="261.69,-76.88 251.46,-74.12 257.74,-82.66 261.69,-76.88"/>
</g>
<!-- Node18&#45;&gt;Node16 -->
<g id="edge24" class="edge">
<title>Node18&#45;&gt;Node16</title>
<path fill="none" stroke="#63b8ff" d="M350.29,-164.75C353.81,-157.57 358.91,-147.18 363.28,-138.27"/>
<polygon fill="#63b8ff" stroke="#63b8ff" points="366.52,-139.61 367.79,-129.09 360.24,-136.53 366.52,-139.61"/>
</g>
</g>
</svg>
