<?xml version="1.0" encoding="UTF-8" standalone="no"?>
<!DOCTYPE svg PUBLIC "-//W3C//DTD SVG 1.1//EN"
 "http://www.w3.org/Graphics/SVG/1.1/DTD/svg11.dtd">
<!-- Generated by graphviz version 2.43.0 (0)
 -->
<!-- Title: doxygen&#45;1.9.6/examples/diagrams_e.h Pages: 1 -->
<svg width="192pt" height="148pt"
 viewBox="0.00 0.00 192.00 148.00" xmlns="http://www.w3.org/2000/svg" xmlns:xlink="http://www.w3.org/1999/xlink">
<g id="graph0" class="graph" transform="scale(1 1) rotate(0) translate(4 144)">
<title>doxygen&#45;1.9.6/examples/diagrams_e.h</title>
<!-- Node1 -->
<g id="node1" class="node">
<title>Node1</title>
<g id="a_node1"><a xlink:title=" ">
<polygon fill="#999999" stroke="#666666" points="160,-140 23,-140 23,-110 160,-110 160,-140"/>
<text text-anchor="start" x="31" y="-128" font-family="Helvetica,sans-Serif" font-size="10.00">doxygen&#45;1.9.6/examples</text>
<text text-anchor="middle" x="91.5" y="-117" font-family="Helvetica,sans-Serif" font-size="10.00">/diagrams_e.h</text>
</a>
</g>
</g>
<!-- Node2 -->
<g id="node2" class="node">
<title>Node2</title>
<g id="a_node2"><a xlink:href="diagrams__d_8h.html" target="_top" xlink:title=" ">
<polygon fill="white" stroke="#666666" points="133,-74 50,-74 50,-55 133,-55 133,-74"/>
<text text-anchor="middle" x="91.5" y="-62" font-family="Helvetica,sans-Serif" font-size="10.00">diagrams_d.h</text>
</a>
</g>
</g>
<!-- Node1&#45;&gt;Node2 -->
<g id="edge1" class="edge">
<title>Node1&#45;&gt;Node2</title>
<path fill="none" stroke="#63b8ff" d="M91.5,-109.84C91.5,-102.21 91.5,-92.7 91.5,-84.45"/>
<polygon fill="#63b8ff" stroke="#63b8ff" points="95,-84.27 91.5,-74.27 88,-84.27 95,-84.27"/>
</g>
<!-- Node3 -->
<g id="node3" class="node">
<title>Node3</title>
<g id="a_node3"><a xlink:href="diagrams__a_8h.html" target="_top" xlink:title=" ">
<polygon fill="white" stroke="#666666" points="83,-19 0,-19 0,0 83,0 83,-19"/>
<text text-anchor="middle" x="41.5" y="-7" font-family="Helvetica,sans-Serif" font-size="10.00">diagrams_a.h</text>
</a>
</g>
</g>
<!-- Node2&#45;&gt;Node3 -->
<g id="edge2" class="edge">
<title>Node2&#45;&gt;Node3</title>
<path fill="none" stroke="#63b8ff" d="M83.24,-54.75C76.04,-47.11 65.39,-35.82 56.65,-26.56"/>
<polygon fill="#63b8ff" stroke="#63b8ff" points="59.01,-23.96 49.6,-19.09 53.92,-28.76 59.01,-23.96"/>
</g>
<!-- Node4 -->
<g id="node4" class="node">
<title>Node4</title>
<g id="a_node4"><a xlink:href="diagrams__b_8h.html" target="_top" xlink:title=" ">
<polygon fill="white" stroke="#666666" points="184,-19 101,-19 101,0 184,0 184,-19"/>
<text text-anchor="middle" x="142.5" y="-7" font-family="Helvetica,sans-Serif" font-size="10.00">diagrams_b.h</text>
</a>
</g>
</g>
<!-- Node2&#45;&gt;Node4 -->
<g id="edge3" class="edge">
<title>Node2&#45;&gt;Node4</title>
<path fill="none" stroke="#63b8ff" d="M99.92,-54.75C107.27,-47.11 118.13,-35.82 127.04,-26.56"/>
<polygon fill="#63b8ff" stroke="#63b8ff" points="129.82,-28.72 134.24,-19.09 124.78,-23.87 129.82,-28.72"/>
</g>
</g>
</svg>
