<?xml version="1.0" encoding="UTF-8" standalone="no"?>
<!DOCTYPE svg PUBLIC "-//W3C//DTD SVG 1.1//EN"
 "http://www.w3.org/Graphics/SVG/1.1/DTD/svg11.dtd">
<!-- Generated by graphviz version 2.43.0 (0)
 -->
<!-- Title: gp_memory.h Pages: 1 -->
<svg width="463pt" height="192pt"
 viewBox="0.00 0.00 463.00 192.00" xmlns="http://www.w3.org/2000/svg" xmlns:xlink="http://www.w3.org/1999/xlink">
<g id="graph0" class="graph" transform="scale(1 1) rotate(0) translate(4 188)">
<title>gp_memory.h</title>
<!-- Node1 -->
<g id="node1" class="node">
<title>Node1</title>
<g id="a_node1"><a xlink:title=" ">
<polygon fill="#999999" stroke="#666666" points="322.5,-184 239.5,-184 239.5,-165 322.5,-165 322.5,-184"/>
<text text-anchor="middle" x="281" y="-172" font-family="Helvetica,sans-Serif" font-size="10.00">gp_memory.h</text>
</a>
</g>
</g>
<!-- Node2 -->
<g id="node2" class="node">
<title>Node2</title>
<g id="a_node2"><a xlink:href="6502cpu_8h.html" target="_top" xlink:title=" ">
<polygon fill="white" stroke="#666666" points="262.5,-129 195.5,-129 195.5,-110 262.5,-110 262.5,-129"/>
<text text-anchor="middle" x="229" y="-117" font-family="Helvetica,sans-Serif" font-size="10.00">6502cpu.h</text>
</a>
</g>
</g>
<!-- Node1&#45;&gt;Node2 -->
<g id="edge1" class="edge">
<title>Node1&#45;&gt;Node2</title>
<path fill="none" stroke="#63b8ff" d="M265.32,-157.52C256.16,-148.18 244.95,-136.75 237.43,-129.09"/>
<polygon fill="#63b8ff" stroke="#63b8ff" points="262.91,-160.06 272.41,-164.75 267.91,-155.16 262.91,-160.06"/>
</g>
<!-- Node5 -->
<g id="node5" class="node">
<title>Node5</title>
<g id="a_node5"><a xlink:href="debugger_8h.html" target="_top" xlink:title=" ">
<polygon fill="white" stroke="#666666" points="76.5,-74 5.5,-74 5.5,-55 76.5,-55 76.5,-74"/>
<text text-anchor="middle" x="41" y="-62" font-family="Helvetica,sans-Serif" font-size="10.00">debugger.h</text>
</a>
</g>
</g>
<!-- Node1&#45;&gt;Node5 -->
<g id="edge8" class="edge">
<title>Node1&#45;&gt;Node5</title>
<path fill="none" stroke="#63b8ff" d="M252.57,-160.71C202.99,-138.4 102,-92.95 59.99,-74.05"/>
<polygon fill="#63b8ff" stroke="#63b8ff" points="251.21,-163.93 261.77,-164.84 254.08,-157.55 251.21,-163.93"/>
</g>
<!-- Node7 -->
<g id="node7" class="node">
<title>Node7</title>
<g id="a_node7"><a xlink:href="main_8cpp.html" target="_top" xlink:title=" ">
<polygon fill="white" stroke="#666666" points="326,-19 264,-19 264,0 326,0 326,-19"/>
<text text-anchor="middle" x="295" y="-7" font-family="Helvetica,sans-Serif" font-size="10.00">main.cpp</text>
</a>
</g>
</g>
<!-- Node1&#45;&gt;Node7 -->
<g id="edge10" class="edge">
<title>Node1&#45;&gt;Node7</title>
<path fill="none" stroke="#63b8ff" d="M284.09,-154.83C287.23,-134.89 291.93,-102.31 294,-74 295.43,-54.43 295.35,-31.37 295.18,-19.14"/>
<polygon fill="#63b8ff" stroke="#63b8ff" points="280.62,-154.32 282.49,-164.75 287.53,-155.44 280.62,-154.32"/>
</g>
<!-- Node8 -->
<g id="node8" class="node">
<title>Node8</title>
<g id="a_node8"><a xlink:href="gp__memory_8cpp.html" target="_top" xlink:title=" ">
<polygon fill="white" stroke="#666666" points="455,-129 361,-129 361,-110 455,-110 455,-129"/>
<text text-anchor="middle" x="408" y="-117" font-family="Helvetica,sans-Serif" font-size="10.00">gp_memory.cpp</text>
</a>
</g>
</g>
<!-- Node1&#45;&gt;Node8 -->
<g id="edge9" class="edge">
<title>Node1&#45;&gt;Node8</title>
<path fill="none" stroke="#63b8ff" d="M310.88,-161.03C334.37,-151.23 366.47,-137.83 387.22,-129.17"/>
<polygon fill="#63b8ff" stroke="#63b8ff" points="309.29,-157.9 301.4,-164.98 311.98,-164.36 309.29,-157.9"/>
</g>
<!-- Node3 -->
<g id="node3" class="node">
<title>Node3</title>
<g id="a_node3"><a xlink:href="6502cpu_8cpp.html" target="_top" xlink:title=" ">
<polygon fill="white" stroke="#666666" points="173,-74 95,-74 95,-55 173,-55 173,-74"/>
<text text-anchor="middle" x="134" y="-62" font-family="Helvetica,sans-Serif" font-size="10.00">6502cpu.cpp</text>
</a>
</g>
</g>
<!-- Node2&#45;&gt;Node3 -->
<g id="edge2" class="edge">
<title>Node2&#45;&gt;Node3</title>
<path fill="none" stroke="#63b8ff" d="M204.74,-104.97C187.37,-95.28 164.51,-82.52 149.54,-74.17"/>
<polygon fill="#63b8ff" stroke="#63b8ff" points="203.3,-108.17 213.74,-109.98 206.71,-102.06 203.3,-108.17"/>
</g>
<!-- Node4 -->
<g id="node4" class="node">
<title>Node4</title>
<g id="a_node4"><a xlink:href="6502isa_8cpp.html" target="_top" xlink:title=" ">
<polygon fill="white" stroke="#666666" points="266.5,-74 191.5,-74 191.5,-55 266.5,-55 266.5,-74"/>
<text text-anchor="middle" x="229" y="-62" font-family="Helvetica,sans-Serif" font-size="10.00">6502isa.cpp</text>
</a>
</g>
</g>
<!-- Node2&#45;&gt;Node4 -->
<g id="edge3" class="edge">
<title>Node2&#45;&gt;Node4</title>
<path fill="none" stroke="#63b8ff" d="M229,-99.66C229,-90.93 229,-80.99 229,-74.09"/>
<polygon fill="#63b8ff" stroke="#63b8ff" points="225.5,-99.75 229,-109.75 232.5,-99.75 225.5,-99.75"/>
</g>
<!-- Node2&#45;&gt;Node5 -->
<g id="edge4" class="edge">
<title>Node2&#45;&gt;Node5</title>
<path fill="none" stroke="#63b8ff" d="M188.86,-107.18C153.7,-97.27 103.37,-83.08 71.44,-74.08"/>
<polygon fill="#63b8ff" stroke="#63b8ff" points="188.22,-110.64 198.79,-109.98 190.12,-103.9 188.22,-110.64"/>
</g>
<!-- Node2&#45;&gt;Node7 -->
<g id="edge7" class="edge">
<title>Node2&#45;&gt;Node7</title>
<path fill="none" stroke="#63b8ff" d="M249.21,-103.47C258.54,-95.61 269.06,-85.28 276,-74 286.86,-56.36 291.84,-32.13 293.84,-19.3"/>
<polygon fill="#63b8ff" stroke="#63b8ff" points="246.74,-100.97 241.12,-109.95 251.11,-106.44 246.74,-100.97"/>
</g>
<!-- Node6 -->
<g id="node6" class="node">
<title>Node6</title>
<g id="a_node6"><a xlink:href="debugger_8cpp.html" target="_top" xlink:title=" ">
<polygon fill="white" stroke="#666666" points="82,-19 0,-19 0,0 82,0 82,-19"/>
<text text-anchor="middle" x="41" y="-7" font-family="Helvetica,sans-Serif" font-size="10.00">debugger.cpp</text>
</a>
</g>
</g>
<!-- Node5&#45;&gt;Node6 -->
<g id="edge5" class="edge">
<title>Node5&#45;&gt;Node6</title>
<path fill="none" stroke="#63b8ff" d="M41,-44.66C41,-35.93 41,-25.99 41,-19.09"/>
<polygon fill="#63b8ff" stroke="#63b8ff" points="37.5,-44.75 41,-54.75 44.5,-44.75 37.5,-44.75"/>
</g>
<!-- Node5&#45;&gt;Node7 -->
<g id="edge6" class="edge">
<title>Node5&#45;&gt;Node7</title>
<path fill="none" stroke="#63b8ff" d="M86.38,-54.03C137.48,-43.37 219.17,-26.32 263.65,-17.04"/>
<polygon fill="#63b8ff" stroke="#63b8ff" points="85.66,-50.61 76.59,-56.07 87.09,-57.46 85.66,-50.61"/>
</g>
</g>
</svg>
