<?xml version="1.0" encoding="UTF-8" standalone="no"?>
<!DOCTYPE svg PUBLIC "-//W3C//DTD SVG 1.1//EN"
 "http://www.w3.org/Graphics/SVG/1.1/DTD/svg11.dtd">
<!-- Generated by graphviz version 2.43.0 (0)
 -->
<!-- Title: instruction_types.h Pages: 1 -->
<svg width="308pt" height="247pt"
 viewBox="0.00 0.00 307.50 247.00" xmlns="http://www.w3.org/2000/svg" xmlns:xlink="http://www.w3.org/1999/xlink">
<g id="graph0" class="graph" transform="scale(1 1) rotate(0) translate(4 243)">
<title>instruction_types.h</title>
<!-- Node1 -->
<g id="node1" class="node">
<title>Node1</title>
<g id="a_node1"><a xlink:title=" ">
<polygon fill="#999999" stroke="#666666" points="211,-239 101,-239 101,-220 211,-220 211,-239"/>
<text text-anchor="middle" x="156" y="-227" font-family="Helvetica,sans-Serif" font-size="10.00">instruction_types.h</text>
</a>
</g>
</g>
<!-- Node2 -->
<g id="node2" class="node">
<title>Node2</title>
<g id="a_node2"><a xlink:href="6502cpu_8cpp.html" target="_top" xlink:title=" ">
<polygon fill="white" stroke="#666666" points="78,-74 0,-74 0,-55 78,-55 78,-74"/>
<text text-anchor="middle" x="39" y="-62" font-family="Helvetica,sans-Serif" font-size="10.00">6502cpu.cpp</text>
</a>
</g>
</g>
<!-- Node1&#45;&gt;Node2 -->
<g id="edge1" class="edge">
<title>Node1&#45;&gt;Node2</title>
<path fill="none" stroke="#63b8ff" d="M143.57,-211.18C118.76,-176.62 63.93,-100.23 45.32,-74.31"/>
<polygon fill="#63b8ff" stroke="#63b8ff" points="141.03,-213.65 149.71,-219.74 146.72,-209.57 141.03,-213.65"/>
</g>
<!-- Node3 -->
<g id="node3" class="node">
<title>Node3</title>
<g id="a_node3"><a xlink:href="6502cpu_8h.html" target="_top" xlink:title=" ">
<polygon fill="white" stroke="#666666" points="211.5,-129 144.5,-129 144.5,-110 211.5,-110 211.5,-129"/>
<text text-anchor="middle" x="178" y="-117" font-family="Helvetica,sans-Serif" font-size="10.00">6502cpu.h</text>
</a>
</g>
</g>
<!-- Node1&#45;&gt;Node3 -->
<g id="edge2" class="edge">
<title>Node1&#45;&gt;Node3</title>
<path fill="none" stroke="#63b8ff" d="M159.81,-209.8C164.62,-186.2 172.69,-146.58 176.24,-129.16"/>
<polygon fill="#63b8ff" stroke="#63b8ff" points="156.37,-209.16 157.8,-219.66 163.23,-210.56 156.37,-209.16"/>
</g>
<!-- Node4 -->
<g id="node4" class="node">
<title>Node4</title>
<g id="a_node4"><a xlink:href="6502isa_8cpp.html" target="_top" xlink:title=" ">
<polygon fill="white" stroke="#666666" points="299.5,-74 224.5,-74 224.5,-55 299.5,-55 299.5,-74"/>
<text text-anchor="middle" x="262" y="-62" font-family="Helvetica,sans-Serif" font-size="10.00">6502isa.cpp</text>
</a>
</g>
</g>
<!-- Node1&#45;&gt;Node4 -->
<g id="edge9" class="edge">
<title>Node1&#45;&gt;Node4</title>
<path fill="none" stroke="#63b8ff" d="M211,-216.61C228.58,-209.99 246.24,-199.76 257,-184 280.57,-149.48 269.9,-95.19 264.48,-74.2"/>
<polygon fill="#63b8ff" stroke="#63b8ff" points="209.62,-213.38 201.29,-219.93 211.89,-220 209.62,-213.38"/>
</g>
<!-- Node5 -->
<g id="node5" class="node">
<title>Node5</title>
<g id="a_node5"><a xlink:href="debugger_8h.html" target="_top" xlink:title=" ">
<polygon fill="white" stroke="#666666" points="167.5,-74 96.5,-74 96.5,-55 167.5,-55 167.5,-74"/>
<text text-anchor="middle" x="132" y="-62" font-family="Helvetica,sans-Serif" font-size="10.00">debugger.h</text>
</a>
</g>
</g>
<!-- Node1&#45;&gt;Node5 -->
<g id="edge13" class="edge">
<title>Node1&#45;&gt;Node5</title>
<path fill="none" stroke="#63b8ff" d="M151.47,-209.9C146.82,-190 139.74,-157.46 136,-129 133.44,-109.51 132.51,-86.42 132.17,-74.16"/>
<polygon fill="#63b8ff" stroke="#63b8ff" points="148.11,-210.87 153.83,-219.78 154.92,-209.24 148.11,-210.87"/>
</g>
<!-- Node8 -->
<g id="node8" class="node">
<title>Node8</title>
<g id="a_node8"><a xlink:href="6502isa_8h.html" target="_top" xlink:title=" ">
<polygon fill="white" stroke="#666666" points="248,-184 184,-184 184,-165 248,-165 248,-184"/>
<text text-anchor="middle" x="216" y="-172" font-family="Helvetica,sans-Serif" font-size="10.00">6502isa.h</text>
</a>
</g>
</g>
<!-- Node1&#45;&gt;Node8 -->
<g id="edge10" class="edge">
<title>Node1&#45;&gt;Node8</title>
<path fill="none" stroke="#63b8ff" d="M173.18,-213.32C183.88,-203.87 197.26,-192.06 206.18,-184.17"/>
<polygon fill="#63b8ff" stroke="#63b8ff" points="170.82,-210.74 165.64,-219.98 175.45,-215.99 170.82,-210.74"/>
</g>
<!-- Node3&#45;&gt;Node2 -->
<g id="edge3" class="edge">
<title>Node3&#45;&gt;Node2</title>
<path fill="none" stroke="#63b8ff" d="M146.32,-106.42C120.53,-96.59 84.76,-82.95 61.74,-74.17"/>
<polygon fill="#63b8ff" stroke="#63b8ff" points="145.08,-109.69 155.67,-109.98 147.57,-103.15 145.08,-109.69"/>
</g>
<!-- Node3&#45;&gt;Node4 -->
<g id="edge4" class="edge">
<title>Node3&#45;&gt;Node4</title>
<path fill="none" stroke="#63b8ff" d="M200.31,-104.42C215.55,-94.81 235.27,-82.37 248.26,-74.17"/>
<polygon fill="#63b8ff" stroke="#63b8ff" points="198.09,-101.69 191.5,-109.98 201.82,-107.61 198.09,-101.69"/>
</g>
<!-- Node3&#45;&gt;Node5 -->
<g id="edge5" class="edge">
<title>Node3&#45;&gt;Node5</title>
<path fill="none" stroke="#63b8ff" d="M163.64,-101.96C155.63,-92.72 145.97,-81.6 139.45,-74.09"/>
<polygon fill="#63b8ff" stroke="#63b8ff" points="161.21,-104.49 170.4,-109.75 166.49,-99.9 161.21,-104.49"/>
</g>
<!-- Node7 -->
<g id="node7" class="node">
<title>Node7</title>
<g id="a_node7"><a xlink:href="main_8cpp.html" target="_top" xlink:title=" ">
<polygon fill="white" stroke="#666666" points="227,-19 165,-19 165,0 227,0 227,-19"/>
<text text-anchor="middle" x="196" y="-7" font-family="Helvetica,sans-Serif" font-size="10.00">main.cpp</text>
</a>
</g>
</g>
<!-- Node3&#45;&gt;Node7 -->
<g id="edge8" class="edge">
<title>Node3&#45;&gt;Node7</title>
<path fill="none" stroke="#63b8ff" d="M181.17,-99.48C185.11,-75.84 191.67,-36.5 194.56,-19.16"/>
<polygon fill="#63b8ff" stroke="#63b8ff" points="177.66,-99.22 179.47,-109.66 184.57,-100.37 177.66,-99.22"/>
</g>
<!-- Node6 -->
<g id="node6" class="node">
<title>Node6</title>
<g id="a_node6"><a xlink:href="debugger_8cpp.html" target="_top" xlink:title=" ">
<polygon fill="white" stroke="#666666" points="147,-19 65,-19 65,0 147,0 147,-19"/>
<text text-anchor="middle" x="106" y="-7" font-family="Helvetica,sans-Serif" font-size="10.00">debugger.cpp</text>
</a>
</g>
</g>
<!-- Node5&#45;&gt;Node6 -->
<g id="edge6" class="edge">
<title>Node5&#45;&gt;Node6</title>
<path fill="none" stroke="#63b8ff" d="M123.18,-45.53C118.8,-36.6 113.71,-26.22 110.21,-19.09"/>
<polygon fill="#63b8ff" stroke="#63b8ff" points="120.16,-47.31 127.71,-54.75 126.44,-44.23 120.16,-47.31"/>
</g>
<!-- Node5&#45;&gt;Node7 -->
<g id="edge7" class="edge">
<title>Node5&#45;&gt;Node7</title>
<path fill="none" stroke="#63b8ff" d="M149.99,-48.6C161.46,-39.11 175.91,-27.13 185.53,-19.17"/>
<polygon fill="#63b8ff" stroke="#63b8ff" points="147.75,-45.91 142.28,-54.98 152.22,-51.3 147.75,-45.91"/>
</g>
<!-- Node8&#45;&gt;Node3 -->
<g id="edge11" class="edge">
<title>Node8&#45;&gt;Node3</title>
<path fill="none" stroke="#63b8ff" d="M203.73,-156.39C197.19,-147.27 189.43,-136.45 184.16,-129.09"/>
<polygon fill="#63b8ff" stroke="#63b8ff" points="201.05,-158.66 209.73,-164.75 206.74,-154.58 201.05,-158.66"/>
</g>
<!-- Node8&#45;&gt;Node4 -->
<g id="edge12" class="edge">
<title>Node8&#45;&gt;Node4</title>
<path fill="none" stroke="#63b8ff" d="M223.69,-155.44C233.71,-131.92 250.83,-91.73 258.31,-74.16"/>
<polygon fill="#63b8ff" stroke="#63b8ff" points="220.46,-154.09 219.76,-164.66 226.9,-156.83 220.46,-154.09"/>
</g>
</g>
</svg>
