<?xml version="1.0" encoding="UTF-8" standalone="no"?>
<!DOCTYPE svg PUBLIC "-//W3C//DTD SVG 1.1//EN"
 "http://www.w3.org/Graphics/SVG/1.1/DTD/svg11.dtd">
<!-- Generated by graphviz version 2.43.0 (0)
 -->
<!-- Title: main Pages: 1 -->
<svg width="769pt" height="547pt"
 viewBox="0.00 0.00 769.00 547.00" xmlns="http://www.w3.org/2000/svg" xmlns:xlink="http://www.w3.org/1999/xlink">
<g id="graph0" class="graph" transform="scale(1 1) rotate(0) translate(4 543)">
<title>main</title>
<!-- Node1 -->
<g id="node1" class="node">
<title>Node1</title>
<g id="a_node1"><a xlink:title=" ">
<polygon fill="#999999" stroke="#666666" points="41,-206 0,-206 0,-187 41,-187 41,-206"/>
<text text-anchor="middle" x="20.5" y="-194" font-family="Helvetica,sans-Serif" font-size="10.00">main</text>
</a>
</g>
</g>
<!-- Node2 -->
<g id="node2" class="node">
<title>Node2</title>
<g id="a_node2"><a xlink:href="classGP__Memory.html#ab0f934ae0e78d117d05493aa3f476e41" target="_top" xlink:title=" ">
<polygon fill="white" stroke="#666666" points="201,-317 88,-317 88,-298 201,-298 201,-317"/>
<text text-anchor="middle" x="144.5" y="-305" font-family="Helvetica,sans-Serif" font-size="10.00">GP_Memory::import</text>
</a>
</g>
</g>
<!-- Node1&#45;&gt;Node2 -->
<g id="edge1" class="edge">
<title>Node1&#45;&gt;Node2</title>
<path fill="none" stroke="#63b8ff" d="M24.47,-206.05C30.87,-224.99 47.78,-267.35 77,-289.5 78.82,-290.88 80.74,-292.15 82.73,-293.33"/>
<polygon fill="#63b8ff" stroke="#63b8ff" points="81.35,-296.55 91.86,-297.89 84.48,-290.29 81.35,-296.55"/>
</g>
<!-- Node3 -->
<g id="node3" class="node">
<title>Node3</title>
<g id="a_node3"><a xlink:href="classCPUException.html#ae83e5868ddddbb6d4cede9e61b4f22f9" target="_top" xlink:title=" ">
<polygon fill="white" stroke="#666666" points="212,-280 77,-280 77,-261 212,-261 212,-280"/>
<text text-anchor="middle" x="144.5" y="-268" font-family="Helvetica,sans-Serif" font-size="10.00">CPUException::message</text>
</a>
</g>
</g>
<!-- Node1&#45;&gt;Node3 -->
<g id="edge2" class="edge">
<title>Node1&#45;&gt;Node3</title>
<path fill="none" stroke="#63b8ff" d="M28.6,-206.37C38.17,-218.95 56.42,-240.52 77,-252.5 80.04,-254.27 83.26,-255.87 86.57,-257.31"/>
<polygon fill="#63b8ff" stroke="#63b8ff" points="85.51,-260.66 96.1,-261 88.04,-254.13 85.51,-260.66"/>
</g>
<!-- Node4 -->
<g id="node4" class="node">
<title>Node4</title>
<g id="a_node4"><a xlink:href="classDebugger.html#a1df28a43e7686d9aa06714fc8b534072" target="_top" xlink:title=" ">
<polygon fill="white" stroke="#666666" points="187.5,-243 101.5,-243 101.5,-224 187.5,-224 187.5,-243"/>
<text text-anchor="middle" x="144.5" y="-231" font-family="Helvetica,sans-Serif" font-size="10.00">Debugger::run</text>
</a>
</g>
</g>
<!-- Node1&#45;&gt;Node4 -->
<g id="edge3" class="edge">
<title>Node1&#45;&gt;Node4</title>
<path fill="none" stroke="#63b8ff" d="M41.18,-203.59C51.74,-207.3 65.02,-211.83 77,-215.5 83.38,-217.45 90.13,-219.41 96.8,-221.27"/>
<polygon fill="#63b8ff" stroke="#63b8ff" points="95.87,-224.65 106.44,-223.93 97.73,-217.9 95.87,-224.65"/>
</g>
<!-- Node23 -->
<g id="node23" class="node">
<title>Node23</title>
<g id="a_node23"><a xlink:href="classCPU6502.html#a80085484281ce18e134c1337c81e7511" target="_top" xlink:title=" ">
<polygon fill="white" stroke="#666666" points="203,-206 86,-206 86,-187 203,-187 203,-206"/>
<text text-anchor="middle" x="144.5" y="-194" font-family="Helvetica,sans-Serif" font-size="10.00">CPU6502::set_debug</text>
</a>
</g>
</g>
<!-- Node1&#45;&gt;Node23 -->
<g id="edge28" class="edge">
<title>Node1&#45;&gt;Node23</title>
<path fill="none" stroke="#63b8ff" d="M41.1,-196.5C50.77,-196.5 63.08,-196.5 75.77,-196.5"/>
<polygon fill="#63b8ff" stroke="#63b8ff" points="76,-200 86,-196.5 76,-193 76,-200"/>
</g>
<!-- Node24 -->
<g id="node24" class="node">
<title>Node24</title>
<g id="a_node24"><a xlink:href="classGP__Memory.html#a83c0a0e6429f44f52b5a00a58ada113b" target="_top" xlink:title=" ">
<polygon fill="white" stroke="#666666" points="206.5,-168.5 82.5,-168.5 82.5,-138.5 206.5,-138.5 206.5,-168.5"/>
<text text-anchor="start" x="90.5" y="-156.5" font-family="Helvetica,sans-Serif" font-size="10.00">GP_Memory::set_print</text>
<text text-anchor="middle" x="144.5" y="-145.5" font-family="Helvetica,sans-Serif" font-size="10.00">_device</text>
</a>
</g>
</g>
<!-- Node1&#45;&gt;Node24 -->
<g id="edge29" class="edge">
<title>Node1&#45;&gt;Node24</title>
<path fill="none" stroke="#63b8ff" d="M41.1,-189.59C54.68,-184.8 73.45,-178.19 91.21,-171.93"/>
<polygon fill="#63b8ff" stroke="#63b8ff" points="92.67,-175.13 100.94,-168.5 90.34,-168.52 92.67,-175.13"/>
</g>
<!-- Node25 -->
<g id="node25" class="node">
<title>Node25</title>
<g id="a_node25"><a xlink:href="classCPU6502.html#a9cdf31e4e8f6cf84e240b62964b6bc44" target="_top" xlink:title=" ">
<polygon fill="white" stroke="#666666" points="207.5,-120 81.5,-120 81.5,-101 207.5,-101 207.5,-120"/>
<text text-anchor="middle" x="144.5" y="-108" font-family="Helvetica,sans-Serif" font-size="10.00">CPU6502::set_verbose</text>
</a>
</g>
</g>
<!-- Node1&#45;&gt;Node25 -->
<g id="edge30" class="edge">
<title>Node1&#45;&gt;Node25</title>
<path fill="none" stroke="#63b8ff" d="M26.96,-186.71C35.64,-172.06 53.99,-144.53 77,-129.5 80.15,-127.44 83.53,-125.6 87.03,-123.96"/>
<polygon fill="#63b8ff" stroke="#63b8ff" points="88.59,-127.1 96.5,-120.05 85.93,-120.63 88.59,-127.1"/>
</g>
<!-- Node26 -->
<g id="node26" class="node">
<title>Node26</title>
<g id="a_node26"><a xlink:href="relates_8cpp.html#a7ceb7d379a52f7e26418e7a446b4a41a" target="_top" xlink:title=" ">
<polygon fill="white" stroke="#666666" points="169.5,-83 119.5,-83 119.5,-64 169.5,-64 169.5,-83"/>
<text text-anchor="middle" x="144.5" y="-71" font-family="Helvetica,sans-Serif" font-size="10.00">strcmp</text>
</a>
</g>
</g>
<!-- Node1&#45;&gt;Node26 -->
<g id="edge31" class="edge">
<title>Node1&#45;&gt;Node26</title>
<path fill="none" stroke="#63b8ff" d="M23.9,-186.82C29.52,-166.25 45.48,-117.96 77,-92.5 86.15,-85.11 98.04,-80.59 109.24,-77.83"/>
<polygon fill="#63b8ff" stroke="#63b8ff" points="110.14,-81.22 119.22,-75.76 108.71,-74.36 110.14,-81.22"/>
</g>
<!-- Node5 -->
<g id="node5" class="node">
<title>Node5</title>
<g id="a_node5"><a xlink:href="classCPU6502.html#a06a35e0aad53b393936204b3cc548cf5" target="_top" xlink:title=" ">
<polygon fill="white" stroke="#666666" points="576.5,-539 447.5,-539 447.5,-520 576.5,-520 576.5,-539"/>
<text text-anchor="middle" x="512" y="-527" font-family="Helvetica,sans-Serif" font-size="10.00">CPU6502::get_memory</text>
</a>
</g>
</g>
<!-- Node4&#45;&gt;Node5 -->
<g id="edge4" class="edge">
<title>Node4&#45;&gt;Node5</title>
<path fill="none" stroke="#63b8ff" d="M187.78,-238.54C196.76,-241.39 205.48,-245.78 212,-252.5 257.34,-299.22 209.83,-341.75 248,-394.5 304.81,-473.01 342.56,-474.19 432,-511.5 437.03,-513.6 442.35,-515.47 447.75,-517.15"/>
<polygon fill="#63b8ff" stroke="#63b8ff" points="446.95,-520.56 457.52,-519.94 448.87,-513.83 446.95,-520.56"/>
</g>
<!-- Node6 -->
<g id="node6" class="node">
<title>Node6</title>
<g id="a_node6"><a xlink:href="classCPU6502.html#a9f7496296291584bafb4a1fd518f4d94" target="_top" xlink:title=" ">
<polygon fill="white" stroke="#666666" points="562.5,-502 461.5,-502 461.5,-483 562.5,-483 562.5,-502"/>
<text text-anchor="middle" x="512" y="-490" font-family="Helvetica,sans-Serif" font-size="10.00">CPU6502::get_PC</text>
</a>
</g>
</g>
<!-- Node4&#45;&gt;Node6 -->
<g id="edge5" class="edge">
<title>Node4&#45;&gt;Node6</title>
<path fill="none" stroke="#63b8ff" d="M187.69,-240.67C196.27,-243.42 204.85,-247.23 212,-252.5 235.52,-269.82 229.03,-285.28 248,-307.5 319.71,-391.49 334.07,-423.45 432,-474.5 438.03,-477.65 444.61,-480.24 451.3,-482.39"/>
<polygon fill="#63b8ff" stroke="#63b8ff" points="450.57,-485.82 461.15,-485.23 452.51,-479.1 450.57,-485.82"/>
</g>
<!-- Node7 -->
<g id="node7" class="node">
<title>Node7</title>
<g id="a_node7"><a xlink:href="classDebugger.html#a1b1c8e66cc7d4ea8c55f0adf02cd5494" target="_top" xlink:title=" ">
<polygon fill="white" stroke="#666666" points="396,-298 248,-298 248,-279 396,-279 396,-298"/>
<text text-anchor="middle" x="322" y="-286" font-family="Helvetica,sans-Serif" font-size="10.00">Debugger::go_to_debugger</text>
</a>
</g>
</g>
<!-- Node4&#45;&gt;Node7 -->
<g id="edge6" class="edge">
<title>Node4&#45;&gt;Node7</title>
<path fill="none" stroke="#63b8ff" d="M180.09,-243.1C190.39,-246.03 201.67,-249.32 212,-252.5 235.84,-259.84 262.43,-268.61 283.38,-275.65"/>
<polygon fill="#63b8ff" stroke="#63b8ff" points="282.28,-278.98 292.87,-278.86 284.52,-272.35 282.28,-278.98"/>
</g>
<!-- Node19 -->
<g id="node19" class="node">
<title>Node19</title>
<g id="a_node19"><a xlink:href="classCPU6502.html#a47cca859097af3da244b68c3034b9443" target="_top" xlink:title=" ">
<polygon fill="white" stroke="#666666" points="556,-95 468,-95 468,-76 556,-76 556,-95"/>
<text text-anchor="middle" x="512" y="-83" font-family="Helvetica,sans-Serif" font-size="10.00">CPU6502::step</text>
</a>
</g>
</g>
<!-- Node4&#45;&gt;Node19 -->
<g id="edge27" class="edge">
<title>Node4&#45;&gt;Node19</title>
<path fill="none" stroke="#63b8ff" d="M186.01,-223.94C194.69,-221.51 203.73,-218.67 212,-215.5 314.27,-176.32 329.18,-142.22 432,-104.5 440.27,-101.46 449.22,-98.78 458.01,-96.45"/>
<polygon fill="#63b8ff" stroke="#63b8ff" points="458.98,-99.82 467.82,-93.98 457.27,-93.03 458.98,-99.82"/>
</g>
<!-- Node20 -->
<g id="node20" class="node">
<title>Node20</title>
<g id="a_node20"><a xlink:href="classaddress.html#add0092eb4577fdc3ec396a0fdf276b30" target="_top" xlink:title=" ">
<polygon fill="white" stroke="#666666" points="737.5,-76 651.5,-76 651.5,-57 737.5,-57 737.5,-76"/>
<text text-anchor="middle" x="694.5" y="-64" font-family="Helvetica,sans-Serif" font-size="10.00">address::inner</text>
</a>
</g>
</g>
<!-- Node4&#45;&gt;Node20 -->
<g id="edge25" class="edge">
<title>Node4&#45;&gt;Node20</title>
<path fill="none" stroke="#63b8ff" d="M187.64,-228.56C196.51,-225.86 205.23,-221.74 212,-215.5 246.73,-183.48 213.12,-147.36 248,-115.5 357.78,-15.22 551.89,-37.34 643.27,-55.01"/>
<polygon fill="#63b8ff" stroke="#63b8ff" points="642.61,-58.45 653.1,-56.97 643.98,-51.58 642.61,-58.45"/>
</g>
<!-- Node22 -->
<g id="node22" class="node">
<title>Node22</title>
<g id="a_node22"><a xlink:href="classGP__Memory.html#a03b719e4f636ba1520ca31df1af651ce" target="_top" xlink:title=" ">
<polygon fill="white" stroke="#666666" points="372.5,-19 271.5,-19 271.5,0 372.5,0 372.5,-19"/>
<text text-anchor="middle" x="322" y="-7" font-family="Helvetica,sans-Serif" font-size="10.00">GP_Memory::size</text>
</a>
</g>
</g>
<!-- Node4&#45;&gt;Node22 -->
<g id="edge26" class="edge">
<title>Node4&#45;&gt;Node22</title>
<path fill="none" stroke="#63b8ff" d="M187.66,-229.49C196.75,-226.77 205.55,-222.41 212,-215.5 268.26,-155.22 193.37,-95.26 248,-33.5 251.96,-29.02 256.78,-25.37 262.03,-22.4"/>
<polygon fill="#63b8ff" stroke="#63b8ff" points="263.68,-25.49 271.19,-18.02 260.66,-19.18 263.68,-25.49"/>
</g>
<!-- Node7&#45;&gt;Node5 -->
<g id="edge9" class="edge">
<title>Node7&#45;&gt;Node5</title>
<path fill="none" stroke="#63b8ff" d="M324.72,-298.41C331.35,-333.57 358.71,-453.42 432,-511.5 434.03,-513.11 436.17,-514.57 438.4,-515.91"/>
<polygon fill="#63b8ff" stroke="#63b8ff" points="436.89,-519.07 447.39,-520.49 440.06,-512.83 436.89,-519.07"/>
</g>
<!-- Node7&#45;&gt;Node6 -->
<g id="edge10" class="edge">
<title>Node7&#45;&gt;Node6</title>
<path fill="none" stroke="#63b8ff" d="M329.57,-298.15C342.77,-317.68 373.19,-363.42 396,-403.5 413.5,-434.25 404.11,-452.73 432,-474.5 437.79,-479.02 444.51,-482.45 451.54,-485.04"/>
<polygon fill="#63b8ff" stroke="#63b8ff" points="450.66,-488.43 461.25,-488.07 452.75,-481.75 450.66,-488.43"/>
</g>
<!-- Node8 -->
<g id="node8" class="node">
<title>Node8</title>
<g id="a_node8"><a xlink:href="classPSR.html#ac31ff918bfcc4de90260a3c87b70d115" target="_top" xlink:title=" ">
<polygon fill="white" stroke="#666666" points="540.5,-391 483.5,-391 483.5,-372 540.5,-372 540.5,-391"/>
<text text-anchor="middle" x="512" y="-379" font-family="Helvetica,sans-Serif" font-size="10.00">PSR::get</text>
</a>
</g>
</g>
<!-- Node7&#45;&gt;Node8 -->
<g id="edge7" class="edge">
<title>Node7&#45;&gt;Node8</title>
<path fill="none" stroke="#63b8ff" d="M333.91,-298.15C352.63,-314.18 392.66,-346.25 432,-363.5 445.04,-369.22 460.11,-373.23 473.58,-375.99"/>
<polygon fill="#63b8ff" stroke="#63b8ff" points="473.02,-379.44 483.5,-377.86 474.32,-372.57 473.02,-379.44"/>
</g>
<!-- Node9 -->
<g id="node9" class="node">
<title>Node9</title>
<g id="a_node9"><a xlink:href="classCPU6502.html#a33f53aef61e99e83a5903f227aada495" target="_top" xlink:title=" ">
<polygon fill="white" stroke="#666666" points="559.5,-354 464.5,-354 464.5,-335 559.5,-335 559.5,-354"/>
<text text-anchor="middle" x="512" y="-342" font-family="Helvetica,sans-Serif" font-size="10.00">CPU6502::get_A</text>
</a>
</g>
</g>
<!-- Node7&#45;&gt;Node9 -->
<g id="edge8" class="edge">
<title>Node7&#45;&gt;Node9</title>
<path fill="none" stroke="#63b8ff" d="M347.86,-298.05C369.79,-306.27 402.72,-318.09 432,-326.5 439.51,-328.66 447.48,-330.73 455.36,-332.64"/>
<polygon fill="#63b8ff" stroke="#63b8ff" points="454.71,-336.09 465.24,-334.98 456.32,-329.27 454.71,-336.09"/>
</g>
<!-- Node10 -->
<g id="node10" class="node">
<title>Node10</title>
<g id="a_node10"><a xlink:href="classCPU6502.html#ad6bef8d017f575de5646eca2b1daf430" target="_top" xlink:title=" ">
<polygon fill="white" stroke="#666666" points="565.5,-317 458.5,-317 458.5,-298 565.5,-298 565.5,-317"/>
<text text-anchor="middle" x="512" y="-305" font-family="Helvetica,sans-Serif" font-size="10.00">CPU6502::get_PSR</text>
</a>
</g>
</g>
<!-- Node7&#45;&gt;Node10 -->
<g id="edge11" class="edge">
<title>Node7&#45;&gt;Node10</title>
<path fill="none" stroke="#63b8ff" d="M396.22,-295.9C413.39,-297.63 431.52,-299.47 448.18,-301.15"/>
<polygon fill="#63b8ff" stroke="#63b8ff" points="448.04,-304.65 458.34,-302.18 448.74,-297.69 448.04,-304.65"/>
</g>
<!-- Node11 -->
<g id="node11" class="node">
<title>Node11</title>
<g id="a_node11"><a xlink:href="classCPU6502.html#abe3331454039cc8a4c5376674bab3f64" target="_top" xlink:title=" ">
<polygon fill="white" stroke="#666666" points="559,-280 465,-280 465,-261 559,-261 559,-280"/>
<text text-anchor="middle" x="512" y="-268" font-family="Helvetica,sans-Serif" font-size="10.00">CPU6502::get_S</text>
</a>
</g>
</g>
<!-- Node7&#45;&gt;Node11 -->
<g id="edge12" class="edge">
<title>Node7&#45;&gt;Node11</title>
<path fill="none" stroke="#63b8ff" d="M396.22,-281.49C415.71,-279.62 436.45,-277.64 454.86,-275.87"/>
<polygon fill="#63b8ff" stroke="#63b8ff" points="455.21,-279.36 464.83,-274.92 454.54,-272.39 455.21,-279.36"/>
</g>
<!-- Node12 -->
<g id="node12" class="node">
<title>Node12</title>
<g id="a_node12"><a xlink:href="classCPU6502.html#ad64d87428d0c197f794953cb07d2470b" target="_top" xlink:title=" ">
<polygon fill="white" stroke="#666666" points="559.5,-243 464.5,-243 464.5,-224 559.5,-224 559.5,-243"/>
<text text-anchor="middle" x="512" y="-231" font-family="Helvetica,sans-Serif" font-size="10.00">CPU6502::get_X</text>
</a>
</g>
</g>
<!-- Node7&#45;&gt;Node12 -->
<g id="edge13" class="edge">
<title>Node7&#45;&gt;Node12</title>
<path fill="none" stroke="#63b8ff" d="M349.68,-279C371.63,-271.35 403.63,-260.58 432,-252.5 440.58,-250.06 449.73,-247.66 458.66,-245.44"/>
<polygon fill="#63b8ff" stroke="#63b8ff" points="459.72,-248.79 468.6,-243.01 458.06,-241.99 459.72,-248.79"/>
</g>
<!-- Node13 -->
<g id="node13" class="node">
<title>Node13</title>
<g id="a_node13"><a xlink:href="classCPU6502.html#a395b5450473ade61188f50ca69b0fd6a" target="_top" xlink:title=" ">
<polygon fill="white" stroke="#666666" points="559,-206 465,-206 465,-187 559,-187 559,-206"/>
<text text-anchor="middle" x="512" y="-194" font-family="Helvetica,sans-Serif" font-size="10.00">CPU6502::get_Y</text>
</a>
</g>
</g>
<!-- Node7&#45;&gt;Node13 -->
<g id="edge14" class="edge">
<title>Node7&#45;&gt;Node13</title>
<path fill="none" stroke="#63b8ff" d="M334.29,-278.93C353.24,-263.34 393.2,-232.51 432,-215.5 439.35,-212.28 447.33,-209.55 455.3,-207.26"/>
<polygon fill="#63b8ff" stroke="#63b8ff" points="456.22,-210.63 464.98,-204.67 454.41,-203.87 456.22,-210.63"/>
</g>
<!-- Node14 -->
<g id="node14" class="node">
<title>Node14</title>
<g id="a_node14"><a xlink:href="byte__utils_8h.html#ac7b93d9d05e25d6f96c994fa248af29f" target="_top" xlink:title=" ">
<polygon fill="white" stroke="#666666" points="558,-169 466,-169 466,-150 558,-150 558,-169"/>
<text text-anchor="middle" x="512" y="-157" font-family="Helvetica,sans-Serif" font-size="10.00">hex_to_number</text>
</a>
</g>
</g>
<!-- Node7&#45;&gt;Node14 -->
<g id="edge15" class="edge">
<title>Node7&#45;&gt;Node14</title>
<path fill="none" stroke="#63b8ff" d="M329.64,-278.8C344.98,-257.18 385.15,-204.89 432,-178.5 439.42,-174.32 447.73,-171.05 456.11,-168.51"/>
<polygon fill="#63b8ff" stroke="#63b8ff" points="457.19,-171.84 465.92,-165.83 455.35,-165.09 457.19,-171.84"/>
</g>
<!-- Node15 -->
<g id="node15" class="node">
<title>Node15</title>
<g id="a_node15"><a xlink:href="classCommand_1_1Command.html#a3dbf21522f602b248cbc7eea421dfb9c" target="_top" xlink:title=" ">
<polygon fill="white" stroke="#666666" points="590,-465 434,-465 434,-446 590,-446 590,-465"/>
<text text-anchor="middle" x="512" y="-453" font-family="Helvetica,sans-Serif" font-size="10.00">Command::Command::parse</text>
</a>
</g>
</g>
<!-- Node7&#45;&gt;Node15 -->
<g id="edge16" class="edge">
<title>Node7&#45;&gt;Node15</title>
<path fill="none" stroke="#63b8ff" d="M328.78,-298.11C346.96,-328.05 403.48,-418.75 432,-437.5 434.42,-439.09 436.97,-440.55 439.6,-441.87"/>
<polygon fill="#63b8ff" stroke="#63b8ff" points="438.27,-445.11 448.84,-445.91 441.08,-438.7 438.27,-445.11"/>
</g>
<!-- Node17 -->
<g id="node17" class="node">
<title>Node17</title>
<g id="a_node17"><a xlink:href="classDebugger.html#a0c1505f74dc7245b84e817fefab349f0" target="_top" xlink:title=" ">
<polygon fill="white" stroke="#666666" points="581.5,-132 442.5,-132 442.5,-113 581.5,-113 581.5,-132"/>
<text text-anchor="middle" x="512" y="-120" font-family="Helvetica,sans-Serif" font-size="10.00">Debugger::print_memory</text>
</a>
</g>
</g>
<!-- Node7&#45;&gt;Node17 -->
<g id="edge18" class="edge">
<title>Node7&#45;&gt;Node17</title>
<path fill="none" stroke="#63b8ff" d="M330.32,-278.91C343.55,-261.56 372.26,-223.75 396,-191.5 412.23,-169.45 409.27,-156.77 432,-141.5 434.96,-139.51 438.1,-137.73 441.37,-136.14"/>
<polygon fill="#63b8ff" stroke="#63b8ff" points="442.99,-139.25 450.83,-132.12 440.26,-132.81 442.99,-139.25"/>
</g>
<!-- Node7&#45;&gt;Node19 -->
<g id="edge21" class="edge">
<title>Node7&#45;&gt;Node19</title>
<path fill="none" stroke="#63b8ff" d="M331.56,-278.89C346.19,-262.09 376.35,-225.91 396,-191.5 416.75,-155.16 400.19,-131.69 432,-104.5 439.4,-98.17 448.55,-93.88 457.98,-90.98"/>
<polygon fill="#63b8ff" stroke="#63b8ff" points="459.02,-94.32 467.83,-88.43 457.27,-87.54 459.02,-94.32"/>
</g>
<!-- Node21 -->
<g id="node21" class="node">
<title>Node21</title>
<g id="a_node21"><a xlink:href="classDebugger.html#af5db2b7d529378ea1aa269785964c266" target="_top" xlink:title=" ">
<polygon fill="white" stroke="#666666" points="592,-428 432,-428 432,-409 592,-409 592,-428"/>
<text text-anchor="middle" x="512" y="-416" font-family="Helvetica,sans-Serif" font-size="10.00">Debugger::twos_complement</text>
</a>
</g>
</g>
<!-- Node7&#45;&gt;Node21 -->
<g id="edge24" class="edge">
<title>Node7&#45;&gt;Node21</title>
<path fill="none" stroke="#63b8ff" d="M329.35,-298.09C344.37,-319.98 384.44,-373.81 432,-400.5 435.26,-402.33 438.69,-403.97 442.23,-405.45"/>
<polygon fill="#63b8ff" stroke="#63b8ff" points="441.18,-408.79 451.78,-408.98 443.61,-402.23 441.18,-408.79"/>
</g>
<!-- Node16 -->
<g id="node16" class="node">
<title>Node16</title>
<g id="a_node16"><a xlink:href="namespaceCommand.html#a2411f60c5760436bf7e30a2d44acc56c" target="_top" xlink:title=" ">
<polygon fill="white" stroke="#666666" points="761,-465 628,-465 628,-446 761,-446 761,-465"/>
<text text-anchor="middle" x="694.5" y="-453" font-family="Helvetica,sans-Serif" font-size="10.00">Command::parse_name</text>
</a>
</g>
</g>
<!-- Node15&#45;&gt;Node16 -->
<g id="edge17" class="edge">
<title>Node15&#45;&gt;Node16</title>
<path fill="none" stroke="#63b8ff" d="M590.07,-455.5C599.19,-455.5 608.5,-455.5 617.6,-455.5"/>
<polygon fill="#63b8ff" stroke="#63b8ff" points="617.77,-459 627.77,-455.5 617.77,-452 617.77,-459"/>
</g>
<!-- Node18 -->
<g id="node18" class="node">
<title>Node18</title>
<g id="a_node18"><a xlink:href="classGP__Memory.html#a137b4c481288e6f2eb5de177f7a7fcb0" target="_top" xlink:title=" ">
<polygon fill="white" stroke="#666666" points="746,-113 643,-113 643,-94 746,-94 746,-113"/>
<text text-anchor="middle" x="694.5" y="-101" font-family="Helvetica,sans-Serif" font-size="10.00">GP_Memory::read</text>
</a>
</g>
</g>
<!-- Node17&#45;&gt;Node18 -->
<g id="edge19" class="edge">
<title>Node17&#45;&gt;Node18</title>
<path fill="none" stroke="#63b8ff" d="M581.75,-115.26C598.59,-113.49 616.47,-111.61 632.89,-109.88"/>
<polygon fill="#63b8ff" stroke="#63b8ff" points="633.32,-113.35 642.9,-108.83 632.59,-106.39 633.32,-113.35"/>
</g>
<!-- Node18&#45;&gt;Node18 -->
<g id="edge20" class="edge">
<title>Node18&#45;&gt;Node18</title>
<path fill="none" stroke="#63b8ff" d="M666.45,-113.08C652.8,-121.73 662.15,-131 694.5,-131 716.74,-131 728.11,-126.62 728.61,-121.07"/>
<polygon fill="#63b8ff" stroke="#63b8ff" points="731.38,-118.94 722.55,-113.08 725.8,-123.17 731.38,-118.94"/>
</g>
<!-- Node19&#45;&gt;Node18 -->
<g id="edge23" class="edge">
<title>Node19&#45;&gt;Node18</title>
<path fill="none" stroke="#63b8ff" d="M556.23,-89.81C579.15,-92.1 607.68,-94.94 632.78,-97.44"/>
<polygon fill="#63b8ff" stroke="#63b8ff" points="632.64,-100.95 642.94,-98.46 633.33,-93.98 632.64,-100.95"/>
</g>
<!-- Node19&#45;&gt;Node20 -->
<g id="edge22" class="edge">
<title>Node19&#45;&gt;Node20</title>
<path fill="none" stroke="#63b8ff" d="M556.23,-80.95C581.76,-78.26 614.24,-74.84 641.21,-72"/>
<polygon fill="#63b8ff" stroke="#63b8ff" points="641.66,-75.48 651.24,-70.95 640.93,-68.51 641.66,-75.48"/>
</g>
</g>
</svg>
