<?xml version="1.0" encoding="UTF-8" standalone="no"?>
<!DOCTYPE svg PUBLIC "-//W3C//DTD SVG 1.1//EN"
 "http://www.w3.org/Graphics/SVG/1.1/DTD/svg11.dtd">
<!-- Generated by graphviz version 2.43.0 (0)
 -->
<!-- Title: main.cpp Pages: 1 -->
<svg width="1116pt" height="357pt"
 viewBox="0.00 0.00 1116.33 357.00" xmlns="http://www.w3.org/2000/svg" xmlns:xlink="http://www.w3.org/1999/xlink">
<g id="graph0" class="graph" transform="scale(1 1) rotate(0) translate(4 353)">
<title>main.cpp</title>
<!-- Node1 -->
<g id="node1" class="node">
<title>Node1</title>
<g id="a_node1"><a xlink:title=" ">
<polygon fill="#999999" stroke="#666666" points="814.33,-349 752.33,-349 752.33,-330 814.33,-330 814.33,-349"/>
<text text-anchor="middle" x="783.33" y="-337" font-family="Helvetica,sans-Serif" font-size="10.00">main.cpp</text>
</a>
</g>
</g>
<!-- Node2 -->
<g id="node2" class="node">
<title>Node2</title>
<g id="a_node2"><a xlink:href="6502cpu_8h.html" target="_top" xlink:title=" ">
<polygon fill="white" stroke="#666666" points="137.83,-239 70.83,-239 70.83,-220 137.83,-220 137.83,-239"/>
<text text-anchor="middle" x="104.33" y="-227" font-family="Helvetica,sans-Serif" font-size="10.00">6502cpu.h</text>
</a>
</g>
</g>
<!-- Node1&#45;&gt;Node2 -->
<g id="edge1" class="edge">
<title>Node1&#45;&gt;Node2</title>
<path fill="none" stroke="#63b8ff" d="M752.08,-338.42C645.16,-337.81 294.86,-332.8 190.33,-294 162.77,-283.77 136.39,-261.89 120.28,-246.69"/>
<polygon fill="#63b8ff" stroke="#63b8ff" points="122.45,-243.92 112.84,-239.45 117.57,-248.94 122.45,-243.92"/>
</g>
<!-- Node13 -->
<g id="node13" class="node">
<title>Node13</title>
<g id="a_node13"><a xlink:title=" ">
<polygon fill="#e0e0e0" stroke="#999999" points="632.33,-129 572.33,-129 572.33,-110 632.33,-110 632.33,-129"/>
<text text-anchor="middle" x="602.33" y="-117" font-family="Helvetica,sans-Serif" font-size="10.00">iostream</text>
</a>
</g>
</g>
<!-- Node1&#45;&gt;Node13 -->
<g id="edge46" class="edge">
<title>Node1&#45;&gt;Node13</title>
<path fill="none" stroke="#63b8ff" d="M797.94,-329.81C828.45,-310.53 894.01,-262.5 867.33,-220 842.66,-180.71 710.23,-145.25 642.41,-129.35"/>
<polygon fill="#63b8ff" stroke="#63b8ff" points="643.04,-125.9 632.5,-127.05 641.46,-132.72 643.04,-125.9"/>
</g>
<!-- Node15 -->
<g id="node15" class="node">
<title>Node15</title>
<g id="a_node15"><a xlink:href="gp__memory_8h.html" target="_top" xlink:title=" ">
<polygon fill="white" stroke="#666666" points="364.83,-184 281.83,-184 281.83,-165 364.83,-165 364.83,-184"/>
<text text-anchor="middle" x="323.33" y="-172" font-family="Helvetica,sans-Serif" font-size="10.00">gp_memory.h</text>
</a>
</g>
</g>
<!-- Node1&#45;&gt;Node15 -->
<g id="edge43" class="edge">
<title>Node1&#45;&gt;Node15</title>
<path fill="none" stroke="#63b8ff" d="M752.15,-337.64C648.26,-334.07 316.8,-316.67 252.33,-239 235.96,-219.28 265.43,-200.17 291.23,-188.15"/>
<polygon fill="#63b8ff" stroke="#63b8ff" points="292.76,-191.3 300.48,-184.06 289.92,-184.9 292.76,-191.3"/>
</g>
<!-- Node19 -->
<g id="node19" class="node">
<title>Node19</title>
<g id="a_node19"><a xlink:href="debugger_8h.html" target="_top" xlink:title=" ">
<polygon fill="white" stroke="#666666" points="639.83,-294 568.83,-294 568.83,-275 639.83,-275 639.83,-294"/>
<text text-anchor="middle" x="604.33" y="-282" font-family="Helvetica,sans-Serif" font-size="10.00">debugger.h</text>
</a>
</g>
</g>
<!-- Node1&#45;&gt;Node19 -->
<g id="edge26" class="edge">
<title>Node1&#45;&gt;Node19</title>
<path fill="none" stroke="#63b8ff" d="M754.57,-329.98C724.39,-321.05 676.75,-306.94 643.23,-297.02"/>
<polygon fill="#63b8ff" stroke="#63b8ff" points="643.9,-293.57 633.31,-294.08 641.91,-300.28 643.9,-293.57"/>
</g>
<!-- Node26 -->
<g id="node26" class="node">
<title>Node26</title>
<g id="a_node26"><a xlink:title=" ">
<polygon fill="#e0e0e0" stroke="#999999" points="1040.33,-294 990.33,-294 990.33,-275 1040.33,-275 1040.33,-294"/>
<text text-anchor="middle" x="1015.33" y="-282" font-family="Helvetica,sans-Serif" font-size="10.00">cstring</text>
</a>
</g>
</g>
<!-- Node1&#45;&gt;Node26 -->
<g id="edge44" class="edge">
<title>Node1&#45;&gt;Node26</title>
<path fill="none" stroke="#63b8ff" d="M814.62,-331.35C857.76,-321.5 935.28,-303.79 980.31,-293.5"/>
<polygon fill="#63b8ff" stroke="#63b8ff" points="981.24,-296.88 990.21,-291.24 979.68,-290.05 981.24,-296.88"/>
</g>
<!-- Node27 -->
<g id="node27" class="node">
<title>Node27</title>
<g id="a_node27"><a xlink:title=" ">
<polygon fill="#e0e0e0" stroke="#999999" points="1108.33,-294 1058.33,-294 1058.33,-275 1108.33,-275 1108.33,-294"/>
<text text-anchor="middle" x="1083.33" y="-282" font-family="Helvetica,sans-Serif" font-size="10.00">format</text>
</a>
</g>
</g>
<!-- Node1&#45;&gt;Node27 -->
<g id="edge45" class="edge">
<title>Node1&#45;&gt;Node27</title>
<path fill="none" stroke="#63b8ff" d="M814.6,-334.09C862.72,-327.13 957.98,-312.63 1048.28,-294.08"/>
<polygon fill="#63b8ff" stroke="#63b8ff" points="1049.05,-297.5 1058.13,-292.04 1047.63,-290.64 1049.05,-297.5"/>
</g>
<!-- Node3 -->
<g id="node3" class="node">
<title>Node3</title>
<g id="a_node3"><a xlink:href="6502isa_8h.html" target="_top" xlink:title=" ">
<polygon fill="white" stroke="#666666" points="136.33,-184 72.33,-184 72.33,-165 136.33,-165 136.33,-184"/>
<text text-anchor="middle" x="104.33" y="-172" font-family="Helvetica,sans-Serif" font-size="10.00">6502isa.h</text>
</a>
</g>
</g>
<!-- Node2&#45;&gt;Node3 -->
<g id="edge2" class="edge">
<title>Node2&#45;&gt;Node3</title>
<path fill="none" stroke="#63b8ff" d="M104.33,-219.75C104.33,-212.8 104.33,-202.85 104.33,-194.13"/>
<polygon fill="#63b8ff" stroke="#63b8ff" points="107.83,-194.09 104.33,-184.09 100.83,-194.09 107.83,-194.09"/>
</g>
<!-- Node4 -->
<g id="node4" class="node">
<title>Node4</title>
<g id="a_node4"><a xlink:href="instruction__types_8h.html" target="_top" xlink:title=" ">
<polygon fill="white" stroke="#666666" points="277.33,-129 167.33,-129 167.33,-110 277.33,-110 277.33,-129"/>
<text text-anchor="middle" x="222.33" y="-117" font-family="Helvetica,sans-Serif" font-size="10.00">instruction_types.h</text>
</a>
</g>
</g>
<!-- Node2&#45;&gt;Node4 -->
<g id="edge21" class="edge">
<title>Node2&#45;&gt;Node4</title>
<path fill="none" stroke="#63b8ff" d="M113.98,-219.66C133.96,-201.38 180.07,-159.18 205.21,-136.17"/>
<polygon fill="#63b8ff" stroke="#63b8ff" points="207.85,-138.49 212.87,-129.16 203.13,-133.33 207.85,-138.49"/>
</g>
<!-- Node5 -->
<g id="node5" class="node">
<title>Node5</title>
<g id="a_node5"><a xlink:href="address_8h.html" target="_top" xlink:title=" ">
<polygon fill="white" stroke="#666666" points="502.33,-74 438.33,-74 438.33,-55 502.33,-55 502.33,-74"/>
<text text-anchor="middle" x="470.33" y="-62" font-family="Helvetica,sans-Serif" font-size="10.00">address.h</text>
</a>
</g>
</g>
<!-- Node2&#45;&gt;Node5 -->
<g id="edge11" class="edge">
<title>Node2&#45;&gt;Node5</title>
<path fill="none" stroke="#63b8ff" d="M70.59,-223.01C47.92,-217.38 19.66,-206.15 5.33,-184 -15.33,-152.06 33.21,-117.93 47.33,-110 111.72,-73.83 333.76,-67.02 427.76,-65.76"/>
<polygon fill="#63b8ff" stroke="#63b8ff" points="428.08,-69.26 438.04,-65.64 428,-62.26 428.08,-69.26"/>
</g>
<!-- Node12 -->
<g id="node12" class="node">
<title>Node12</title>
<g id="a_node12"><a xlink:href="byte__utils_8h.html" target="_top" xlink:title=" ">
<polygon fill="white" stroke="#666666" points="744.33,-184 670.33,-184 670.33,-165 744.33,-165 744.33,-184"/>
<text text-anchor="middle" x="707.33" y="-172" font-family="Helvetica,sans-Serif" font-size="10.00">byte_utils.h</text>
</a>
</g>
</g>
<!-- Node2&#45;&gt;Node12 -->
<g id="edge12" class="edge">
<title>Node2&#45;&gt;Node12</title>
<path fill="none" stroke="#63b8ff" d="M138.04,-225.54C239.52,-216.62 542.36,-190 659.93,-179.67"/>
<polygon fill="#63b8ff" stroke="#63b8ff" points="660.4,-183.14 670.06,-178.78 659.79,-176.17 660.4,-183.14"/>
</g>
<!-- Node2&#45;&gt;Node13 -->
<g id="edge25" class="edge">
<title>Node2&#45;&gt;Node13</title>
<path fill="none" stroke="#63b8ff" d="M138.23,-224.11C189.61,-217.2 290.13,-202.61 374.33,-184 442.59,-168.92 520.82,-145.83 565.62,-132.05"/>
<polygon fill="#63b8ff" stroke="#63b8ff" points="566.67,-135.39 575.19,-129.09 564.61,-128.7 566.67,-135.39"/>
</g>
<!-- Node2&#45;&gt;Node15 -->
<g id="edge16" class="edge">
<title>Node2&#45;&gt;Node15</title>
<path fill="none" stroke="#63b8ff" d="M138.07,-220.33C175.64,-211.24 236.57,-196.5 278.21,-186.42"/>
<polygon fill="#63b8ff" stroke="#63b8ff" points="279.2,-189.78 288.1,-184.03 277.56,-182.98 279.2,-189.78"/>
</g>
<!-- Node18 -->
<g id="node18" class="node">
<title>Node18</title>
<g id="a_node18"><a xlink:href="psr_8h.html" target="_top" xlink:title=" ">
<polygon fill="white" stroke="#666666" points="54.33,-184 14.33,-184 14.33,-165 54.33,-165 54.33,-184"/>
<text text-anchor="middle" x="34.33" y="-172" font-family="Helvetica,sans-Serif" font-size="10.00">psr.h</text>
</a>
</g>
</g>
<!-- Node2&#45;&gt;Node18 -->
<g id="edge22" class="edge">
<title>Node2&#45;&gt;Node18</title>
<path fill="none" stroke="#63b8ff" d="M93.08,-219.98C82.53,-212 66.53,-199.88 53.89,-190.31"/>
<polygon fill="#63b8ff" stroke="#63b8ff" points="55.86,-187.42 45.78,-184.17 51.64,-193 55.86,-187.42"/>
</g>
<!-- Node3&#45;&gt;Node4 -->
<g id="edge3" class="edge">
<title>Node3&#45;&gt;Node4</title>
<path fill="none" stroke="#63b8ff" d="M123.29,-164.98C142.35,-156.42 171.99,-143.11 193.88,-133.28"/>
<polygon fill="#63b8ff" stroke="#63b8ff" points="195.34,-136.46 203.02,-129.17 192.47,-130.07 195.34,-136.46"/>
</g>
<!-- Node11 -->
<g id="node11" class="node">
<title>Node11</title>
<g id="a_node11"><a xlink:title=" ">
<polygon fill="#e0e0e0" stroke="#999999" points="148.83,-129 55.83,-129 55.83,-110 148.83,-110 148.83,-129"/>
<text text-anchor="middle" x="102.33" y="-117" font-family="Helvetica,sans-Serif" font-size="10.00">unordered_map</text>
</a>
</g>
</g>
<!-- Node3&#45;&gt;Node11 -->
<g id="edge10" class="edge">
<title>Node3&#45;&gt;Node11</title>
<path fill="none" stroke="#63b8ff" d="M104,-164.75C103.74,-157.8 103.36,-147.85 103.03,-139.13"/>
<polygon fill="#63b8ff" stroke="#63b8ff" points="106.53,-138.95 102.65,-129.09 99.53,-139.21 106.53,-138.95"/>
</g>
<!-- Node4&#45;&gt;Node5 -->
<g id="edge4" class="edge">
<title>Node4&#45;&gt;Node5</title>
<path fill="none" stroke="#63b8ff" d="M262.17,-109.98C307.62,-100.27 381.61,-84.46 428.05,-74.54"/>
<polygon fill="#63b8ff" stroke="#63b8ff" points="429.04,-77.9 438.09,-72.39 427.58,-71.06 429.04,-77.9"/>
</g>
<!-- Node9 -->
<g id="node9" class="node">
<title>Node9</title>
<g id="a_node9"><a xlink:title=" ">
<polygon fill="#e0e0e0" stroke="#999999" points="157.83,-74 92.83,-74 92.83,-55 157.83,-55 157.83,-74"/>
<text text-anchor="middle" x="125.33" y="-62" font-family="Helvetica,sans-Serif" font-size="10.00">functional</text>
</a>
</g>
</g>
<!-- Node4&#45;&gt;Node9 -->
<g id="edge8" class="edge">
<title>Node4&#45;&gt;Node9</title>
<path fill="none" stroke="#63b8ff" d="M206.74,-109.98C191.56,-101.69 168.23,-88.94 150.43,-79.22"/>
<polygon fill="#63b8ff" stroke="#63b8ff" points="151.65,-75.89 141.2,-74.17 148.29,-82.04 151.65,-75.89"/>
</g>
<!-- Node10 -->
<g id="node10" class="node">
<title>Node10</title>
<g id="a_node10"><a xlink:title=" ">
<polygon fill="#e0e0e0" stroke="#999999" points="672.33,-74 628.33,-74 628.33,-55 672.33,-55 672.33,-74"/>
<text text-anchor="middle" x="650.33" y="-62" font-family="Helvetica,sans-Serif" font-size="10.00">string</text>
</a>
</g>
</g>
<!-- Node4&#45;&gt;Node10 -->
<g id="edge9" class="edge">
<title>Node4&#45;&gt;Node10</title>
<path fill="none" stroke="#63b8ff" d="M277.48,-111.14C280.47,-110.75 283.44,-110.37 286.33,-110 408.71,-94.39 554.39,-76.91 617.97,-69.34"/>
<polygon fill="#63b8ff" stroke="#63b8ff" points="618.64,-72.79 628.16,-68.13 617.82,-65.84 618.64,-72.79"/>
</g>
<!-- Node6 -->
<g id="node6" class="node">
<title>Node6</title>
<g id="a_node6"><a xlink:title=" ">
<polygon fill="#e0e0e0" stroke="#999999" points="500.33,-19 440.33,-19 440.33,0 500.33,0 500.33,-19"/>
<text text-anchor="middle" x="470.33" y="-7" font-family="Helvetica,sans-Serif" font-size="10.00">concepts</text>
</a>
</g>
</g>
<!-- Node5&#45;&gt;Node6 -->
<g id="edge5" class="edge">
<title>Node5&#45;&gt;Node6</title>
<path fill="none" stroke="#63b8ff" d="M470.33,-54.75C470.33,-47.8 470.33,-37.85 470.33,-29.13"/>
<polygon fill="#63b8ff" stroke="#63b8ff" points="473.83,-29.09 470.33,-19.09 466.83,-29.09 473.83,-29.09"/>
</g>
<!-- Node7 -->
<g id="node7" class="node">
<title>Node7</title>
<g id="a_node7"><a xlink:title=" ">
<polygon fill="#e0e0e0" stroke="#999999" points="909.83,-19 856.83,-19 856.83,0 909.83,0 909.83,-19"/>
<text text-anchor="middle" x="883.33" y="-7" font-family="Helvetica,sans-Serif" font-size="10.00">cstddef</text>
</a>
</g>
</g>
<!-- Node5&#45;&gt;Node7 -->
<g id="edge6" class="edge">
<title>Node5&#45;&gt;Node7</title>
<path fill="none" stroke="#63b8ff" d="M502.39,-59.39C577.94,-49.69 766.74,-25.46 846.66,-15.2"/>
<polygon fill="#63b8ff" stroke="#63b8ff" points="847.28,-18.66 856.75,-13.91 846.39,-11.71 847.28,-18.66"/>
</g>
<!-- Node8 -->
<g id="node8" class="node">
<title>Node8</title>
<g id="a_node8"><a xlink:title=" ">
<polygon fill="#e0e0e0" stroke="#999999" points="759.33,-19 709.33,-19 709.33,0 759.33,0 759.33,-19"/>
<text text-anchor="middle" x="734.33" y="-7" font-family="Helvetica,sans-Serif" font-size="10.00">cstdint</text>
</a>
</g>
</g>
<!-- Node5&#45;&gt;Node8 -->
<g id="edge7" class="edge">
<title>Node5&#45;&gt;Node8</title>
<path fill="none" stroke="#63b8ff" d="M502.44,-57.05C552.19,-47.07 647.53,-27.92 699.11,-17.57"/>
<polygon fill="#63b8ff" stroke="#63b8ff" points="700.01,-20.96 709.12,-15.56 698.63,-14.1 700.01,-20.96"/>
</g>
<!-- Node12&#45;&gt;Node8 -->
<g id="edge13" class="edge">
<title>Node12&#45;&gt;Node8</title>
<path fill="none" stroke="#63b8ff" d="M708.91,-164.98C710.56,-156.03 713.2,-141.54 715.33,-129 721.33,-93.7 727.84,-52.38 731.47,-29.04"/>
<polygon fill="#63b8ff" stroke="#63b8ff" points="734.93,-29.55 733,-19.13 728.01,-28.48 734.93,-29.55"/>
</g>
<!-- Node12&#45;&gt;Node13 -->
<g id="edge14" class="edge">
<title>Node12&#45;&gt;Node13</title>
<path fill="none" stroke="#63b8ff" d="M690.46,-164.98C673.72,-156.54 647.83,-143.47 628.44,-133.68"/>
<polygon fill="#63b8ff" stroke="#63b8ff" points="630.01,-130.55 619.51,-129.17 626.86,-136.8 630.01,-130.55"/>
</g>
<!-- Node14 -->
<g id="node14" class="node">
<title>Node14</title>
<g id="a_node14"><a xlink:title=" ">
<polygon fill="#e0e0e0" stroke="#999999" points="706.33,-129 650.33,-129 650.33,-110 706.33,-110 706.33,-129"/>
<text text-anchor="middle" x="678.33" y="-117" font-family="Helvetica,sans-Serif" font-size="10.00">sstream</text>
</a>
</g>
</g>
<!-- Node12&#45;&gt;Node14 -->
<g id="edge15" class="edge">
<title>Node12&#45;&gt;Node14</title>
<path fill="none" stroke="#63b8ff" d="M702.54,-164.75C698.57,-157.49 692.8,-146.95 687.89,-137.98"/>
<polygon fill="#63b8ff" stroke="#63b8ff" points="690.9,-136.18 683.03,-129.09 684.76,-139.54 690.9,-136.18"/>
</g>
<!-- Node15&#45;&gt;Node5 -->
<g id="edge17" class="edge">
<title>Node15&#45;&gt;Node5</title>
<path fill="none" stroke="#63b8ff" d="M335.11,-164.84C360.16,-146.44 418.97,-103.23 450.13,-80.34"/>
<polygon fill="#63b8ff" stroke="#63b8ff" points="452.5,-82.94 458.49,-74.2 448.36,-77.3 452.5,-82.94"/>
</g>
<!-- Node15&#45;&gt;Node13 -->
<g id="edge18" class="edge">
<title>Node15&#45;&gt;Node13</title>
<path fill="none" stroke="#63b8ff" d="M365.1,-165.57C418.4,-155.44 509.95,-138.05 562.37,-128.09"/>
<polygon fill="#63b8ff" stroke="#63b8ff" points="563.14,-131.51 572.31,-126.2 561.83,-124.63 563.14,-131.51"/>
</g>
<!-- Node16 -->
<g id="node16" class="node">
<title>Node16</title>
<g id="a_node16"><a xlink:title=" ">
<polygon fill="#e0e0e0" stroke="#999999" points="351.33,-129 295.33,-129 295.33,-110 351.33,-110 351.33,-129"/>
<text text-anchor="middle" x="323.33" y="-117" font-family="Helvetica,sans-Serif" font-size="10.00">stddef.h</text>
</a>
</g>
</g>
<!-- Node15&#45;&gt;Node16 -->
<g id="edge19" class="edge">
<title>Node15&#45;&gt;Node16</title>
<path fill="none" stroke="#63b8ff" d="M323.33,-164.75C323.33,-157.8 323.33,-147.85 323.33,-139.13"/>
<polygon fill="#63b8ff" stroke="#63b8ff" points="326.83,-139.09 323.33,-129.09 319.83,-139.09 326.83,-139.09"/>
</g>
<!-- Node17 -->
<g id="node17" class="node">
<title>Node17</title>
<g id="a_node17"><a xlink:title=" ">
<polygon fill="#e0e0e0" stroke="#999999" points="500.83,-129 453.83,-129 453.83,-110 500.83,-110 500.83,-129"/>
<text text-anchor="middle" x="477.33" y="-117" font-family="Helvetica,sans-Serif" font-size="10.00">vector</text>
</a>
</g>
</g>
<!-- Node15&#45;&gt;Node17 -->
<g id="edge20" class="edge">
<title>Node15&#45;&gt;Node17</title>
<path fill="none" stroke="#63b8ff" d="M348.07,-164.98C374.08,-156.03 415.16,-141.9 444.01,-131.97"/>
<polygon fill="#63b8ff" stroke="#63b8ff" points="445.34,-135.21 453.66,-128.65 443.06,-128.59 445.34,-135.21"/>
</g>
<!-- Node18&#45;&gt;Node9 -->
<g id="edge23" class="edge">
<title>Node18&#45;&gt;Node9</title>
<path fill="none" stroke="#63b8ff" d="M33.95,-164.81C33.81,-151.68 35.31,-126.58 47.33,-110 57.78,-95.57 74.45,-85.16 89.69,-78.05"/>
<polygon fill="#63b8ff" stroke="#63b8ff" points="91.15,-81.23 98.94,-74.04 88.37,-74.81 91.15,-81.23"/>
</g>
<!-- Node18&#45;&gt;Node16 -->
<g id="edge24" class="edge">
<title>Node18&#45;&gt;Node16</title>
<path fill="none" stroke="#63b8ff" d="M54.53,-167.23C57.46,-166.42 60.46,-165.65 63.33,-165 158.19,-143.53 186.07,-147.94 285.26,-129.09"/>
<polygon fill="#63b8ff" stroke="#63b8ff" points="285.93,-132.52 295.09,-127.19 284.6,-125.65 285.93,-132.52"/>
</g>
<!-- Node19&#45;&gt;Node2 -->
<g id="edge27" class="edge">
<title>Node19&#45;&gt;Node2</title>
<path fill="none" stroke="#63b8ff" d="M568.77,-280.94C492.33,-275.22 306.8,-260.25 152.33,-239 150.86,-238.8 149.37,-238.58 147.87,-238.36"/>
<polygon fill="#63b8ff" stroke="#63b8ff" points="148.27,-234.88 137.85,-236.78 147.18,-241.8 148.27,-234.88"/>
</g>
<!-- Node19&#45;&gt;Node4 -->
<g id="edge31" class="edge">
<title>Node19&#45;&gt;Node4</title>
<path fill="none" stroke="#63b8ff" d="M568.69,-283.9C488.77,-284.05 298.64,-279.97 252.33,-239 223.94,-213.89 220.56,-166.15 221.11,-139.57"/>
<polygon fill="#63b8ff" stroke="#63b8ff" points="224.62,-139.44 221.55,-129.3 217.63,-139.15 224.62,-139.44"/>
</g>
<!-- Node19&#45;&gt;Node5 -->
<g id="edge28" class="edge">
<title>Node19&#45;&gt;Node5</title>
<path fill="none" stroke="#63b8ff" d="M600.67,-274.73C595.43,-262.35 585.31,-239.12 575.33,-220 549.05,-169.66 543.92,-155.79 510.33,-110 503.05,-100.07 493.94,-89.8 486.25,-81.63"/>
<polygon fill="#63b8ff" stroke="#63b8ff" points="488.61,-79.04 479.16,-74.25 483.56,-83.89 488.61,-79.04"/>
</g>
<!-- Node19&#45;&gt;Node7 -->
<g id="edge33" class="edge">
<title>Node19&#45;&gt;Node7</title>
<path fill="none" stroke="#63b8ff" d="M640.03,-282.78C708.17,-280.64 853.1,-272.2 888.33,-239 947.02,-183.69 909.37,-72.18 891.36,-28.57"/>
<polygon fill="#63b8ff" stroke="#63b8ff" points="894.52,-27.05 887.37,-19.23 888.08,-29.8 894.52,-27.05"/>
</g>
<!-- Node19&#45;&gt;Node8 -->
<g id="edge34" class="edge">
<title>Node19&#45;&gt;Node8</title>
<path fill="none" stroke="#63b8ff" d="M639.92,-282.03C703.76,-278.67 834.15,-268.33 867.33,-239 889.4,-219.49 886.33,-204.96 886.33,-175.5 886.33,-175.5 886.33,-175.5 886.33,-118.5 886.33,-61.32 813.96,-31.63 769.09,-18.72"/>
<polygon fill="#63b8ff" stroke="#63b8ff" points="770,-15.33 759.43,-16.07 768.15,-22.09 770,-15.33"/>
</g>
<!-- Node19&#45;&gt;Node10 -->
<g id="edge41" class="edge">
<title>Node19&#45;&gt;Node10</title>
<path fill="none" stroke="#63b8ff" d="M631.03,-274.95C666.74,-261.88 728.44,-233.11 753.33,-184 775.59,-140.07 715.12,-99.12 677.61,-78.83"/>
<polygon fill="#63b8ff" stroke="#63b8ff" points="679.11,-75.66 668.63,-74.12 675.86,-81.86 679.11,-75.66"/>
</g>
<!-- Node19&#45;&gt;Node12 -->
<g id="edge29" class="edge">
<title>Node19&#45;&gt;Node12</title>
<path fill="none" stroke="#63b8ff" d="M615.61,-274.86C626.52,-266.27 643.26,-252.48 656.33,-239 670.72,-224.15 685.31,-205.54 695.18,-192.32"/>
<polygon fill="#63b8ff" stroke="#63b8ff" points="698.09,-194.27 701.2,-184.13 692.45,-190.12 698.09,-194.27"/>
</g>
<!-- Node19&#45;&gt;Node13 -->
<g id="edge37" class="edge">
<title>Node19&#45;&gt;Node13</title>
<path fill="none" stroke="#63b8ff" d="M607.93,-274.82C611.38,-265.99 616.36,-251.81 618.33,-239 623.32,-206.49 623.98,-197.4 618.33,-165 616.76,-156 613.53,-146.42 610.39,-138.46"/>
<polygon fill="#63b8ff" stroke="#63b8ff" points="613.55,-136.97 606.44,-129.12 607.11,-139.69 613.55,-136.97"/>
</g>
<!-- Node19&#45;&gt;Node15 -->
<g id="edge30" class="edge">
<title>Node19&#45;&gt;Node15</title>
<path fill="none" stroke="#63b8ff" d="M568.59,-281.49C484.83,-276.42 281.42,-261.86 261.33,-239 245.44,-220.91 272.04,-201.25 295.19,-188.67"/>
<polygon fill="#63b8ff" stroke="#63b8ff" points="296.84,-191.76 304.12,-184.06 293.63,-185.54 296.84,-191.76"/>
</g>
<!-- Node19&#45;&gt;Node17 -->
<g id="edge42" class="edge">
<title>Node19&#45;&gt;Node17</title>
<path fill="none" stroke="#63b8ff" d="M597.5,-274.74C577.26,-248.76 517.32,-171.83 490.53,-137.44"/>
<polygon fill="#63b8ff" stroke="#63b8ff" points="493.1,-135.04 484.19,-129.31 487.58,-139.35 493.1,-135.04"/>
</g>
<!-- Node20 -->
<g id="node20" class="node">
<title>Node20</title>
<g id="a_node20"><a xlink:title=" ">
<polygon fill="#e0e0e0" stroke="#999999" points="790.33,-239 746.33,-239 746.33,-220 790.33,-220 790.33,-239"/>
<text text-anchor="middle" x="768.33" y="-227" font-family="Helvetica,sans-Serif" font-size="10.00">bitset</text>
</a>
</g>
</g>
<!-- Node19&#45;&gt;Node20 -->
<g id="edge32" class="edge">
<title>Node19&#45;&gt;Node20</title>
<path fill="none" stroke="#63b8ff" d="M630.68,-274.98C659.48,-265.68 705.61,-250.77 736.43,-240.81"/>
<polygon fill="#63b8ff" stroke="#63b8ff" points="737.81,-244.04 746.25,-237.63 735.66,-237.38 737.81,-244.04"/>
</g>
<!-- Node21 -->
<g id="node21" class="node">
<title>Node21</title>
<g id="a_node21"><a xlink:title=" ">
<polygon fill="#e0e0e0" stroke="#999999" points="857.83,-239 808.83,-239 808.83,-220 857.83,-220 857.83,-239"/>
<text text-anchor="middle" x="833.33" y="-227" font-family="Helvetica,sans-Serif" font-size="10.00">cstdlib</text>
</a>
</g>
</g>
<!-- Node19&#45;&gt;Node21 -->
<g id="edge35" class="edge">
<title>Node19&#45;&gt;Node21</title>
<path fill="none" stroke="#63b8ff" d="M639.96,-275.6C677.11,-267.31 737.27,-253.75 798.61,-239.13"/>
<polygon fill="#63b8ff" stroke="#63b8ff" points="799.55,-242.51 808.46,-236.78 797.92,-235.7 799.55,-242.51"/>
</g>
<!-- Node22 -->
<g id="node22" class="node">
<title>Node22</title>
<g id="a_node22"><a xlink:title=" ">
<polygon fill="#e0e0e0" stroke="#999999" points="326.33,-239 270.33,-239 270.33,-220 326.33,-220 326.33,-239"/>
<text text-anchor="middle" x="298.33" y="-227" font-family="Helvetica,sans-Serif" font-size="10.00">iomanip</text>
</a>
</g>
</g>
<!-- Node19&#45;&gt;Node22 -->
<g id="edge36" class="edge">
<title>Node19&#45;&gt;Node22</title>
<path fill="none" stroke="#63b8ff" d="M568.52,-278.3C518.72,-270.9 425.51,-256.5 336.55,-239.14"/>
<polygon fill="#63b8ff" stroke="#63b8ff" points="337.06,-235.67 326.57,-237.18 335.71,-242.54 337.06,-235.67"/>
</g>
<!-- Node23 -->
<g id="node23" class="node">
<title>Node23</title>
<g id="a_node23"><a xlink:title=" ">
<polygon fill="#e0e0e0" stroke="#999999" points="400.33,-239 344.33,-239 344.33,-220 400.33,-220 400.33,-239"/>
<text text-anchor="middle" x="372.33" y="-227" font-family="Helvetica,sans-Serif" font-size="10.00">optional</text>
</a>
</g>
</g>
<!-- Node19&#45;&gt;Node23 -->
<g id="edge38" class="edge">
<title>Node19&#45;&gt;Node23</title>
<path fill="none" stroke="#63b8ff" d="M568.59,-275.33C525.75,-265.55 454.29,-249.22 410.43,-239.2"/>
<polygon fill="#63b8ff" stroke="#63b8ff" points="410.97,-235.74 400.45,-236.92 409.42,-242.56 410.97,-235.74"/>
</g>
<!-- Node24 -->
<g id="node24" class="node">
<title>Node24</title>
<g id="a_node24"><a xlink:title=" ">
<polygon fill="#e0e0e0" stroke="#999999" points="475.83,-239 418.83,-239 418.83,-220 475.83,-220 475.83,-239"/>
<text text-anchor="middle" x="447.33" y="-227" font-family="Helvetica,sans-Serif" font-size="10.00">ostream</text>
</a>
</g>
</g>
<!-- Node19&#45;&gt;Node24 -->
<g id="edge39" class="edge">
<title>Node19&#45;&gt;Node24</title>
<path fill="none" stroke="#63b8ff" d="M579.1,-274.98C552.97,-266.16 511.93,-252.31 482.6,-242.41"/>
<polygon fill="#63b8ff" stroke="#63b8ff" points="483.34,-238.96 472.75,-239.08 481.11,-245.6 483.34,-238.96"/>
</g>
<!-- Node25 -->
<g id="node25" class="node">
<title>Node25</title>
<g id="a_node25"><a xlink:title=" ">
<polygon fill="#e0e0e0" stroke="#999999" points="538.33,-239 494.33,-239 494.33,-220 538.33,-220 538.33,-239"/>
<text text-anchor="middle" x="516.33" y="-227" font-family="Helvetica,sans-Serif" font-size="10.00">regex</text>
</a>
</g>
</g>
<!-- Node19&#45;&gt;Node25 -->
<g id="edge40" class="edge">
<title>Node19&#45;&gt;Node25</title>
<path fill="none" stroke="#63b8ff" d="M590.19,-274.98C576.54,-266.77 555.64,-254.18 539.55,-244.49"/>
<polygon fill="#63b8ff" stroke="#63b8ff" points="541.1,-241.33 530.72,-239.17 537.48,-247.33 541.1,-241.33"/>
</g>
</g>
</svg>
