<?xml version="1.0" encoding="UTF-8" standalone="no"?>
<!DOCTYPE svg PUBLIC "-//W3C//DTD SVG 1.1//EN"
 "http://www.w3.org/Graphics/SVG/1.1/DTD/svg11.dtd">
<!-- Generated by graphviz version 2.43.0 (0)
 -->
<!-- Title: psr.h Pages: 1 -->
<svg width="328pt" height="192pt"
 viewBox="0.00 0.00 328.00 192.00" xmlns="http://www.w3.org/2000/svg" xmlns:xlink="http://www.w3.org/1999/xlink">
<g id="graph0" class="graph" transform="scale(1 1) rotate(0) translate(4 188)">
<title>psr.h</title>
<!-- Node1 -->
<g id="node1" class="node">
<title>Node1</title>
<g id="a_node1"><a xlink:title=" ">
<polygon fill="#999999" stroke="#666666" points="170,-184 130,-184 130,-165 170,-165 170,-184"/>
<text text-anchor="middle" x="150" y="-172" font-family="Helvetica,sans-Serif" font-size="10.00">psr.h</text>
</a>
</g>
</g>
<!-- Node2 -->
<g id="node2" class="node">
<title>Node2</title>
<g id="a_node2"><a xlink:href="6502cpu_8cpp.html" target="_top" xlink:title=" ">
<polygon fill="white" stroke="#666666" points="78,-74 0,-74 0,-55 78,-55 78,-74"/>
<text text-anchor="middle" x="39" y="-62" font-family="Helvetica,sans-Serif" font-size="10.00">6502cpu.cpp</text>
</a>
</g>
</g>
<!-- Node1&#45;&gt;Node2 -->
<g id="edge1" class="edge">
<title>Node1&#45;&gt;Node2</title>
<path fill="none" stroke="#63b8ff" d="M133.66,-157.61C109.88,-134.47 66.53,-92.29 47.9,-74.16"/>
<polygon fill="#63b8ff" stroke="#63b8ff" points="131.31,-160.2 140.92,-164.66 136.19,-155.18 131.31,-160.2"/>
</g>
<!-- Node3 -->
<g id="node3" class="node">
<title>Node3</title>
<g id="a_node3"><a xlink:href="6502cpu_8h.html" target="_top" xlink:title=" ">
<polygon fill="white" stroke="#666666" points="214.5,-129 147.5,-129 147.5,-110 214.5,-110 214.5,-129"/>
<text text-anchor="middle" x="181" y="-117" font-family="Helvetica,sans-Serif" font-size="10.00">6502cpu.h</text>
</a>
</g>
</g>
<!-- Node1&#45;&gt;Node3 -->
<g id="edge2" class="edge">
<title>Node1&#45;&gt;Node3</title>
<path fill="none" stroke="#63b8ff" d="M160.18,-156.1C165.47,-147.04 171.72,-136.37 175.98,-129.09"/>
<polygon fill="#63b8ff" stroke="#63b8ff" points="157.15,-154.35 155.12,-164.75 163.19,-157.88 157.15,-154.35"/>
</g>
<!-- Node4 -->
<g id="node4" class="node">
<title>Node4</title>
<g id="a_node4"><a xlink:href="6502isa_8cpp.html" target="_top" xlink:title=" ">
<polygon fill="white" stroke="#666666" points="171.5,-74 96.5,-74 96.5,-55 171.5,-55 171.5,-74"/>
<text text-anchor="middle" x="134" y="-62" font-family="Helvetica,sans-Serif" font-size="10.00">6502isa.cpp</text>
</a>
</g>
</g>
<!-- Node1&#45;&gt;Node4 -->
<g id="edge9" class="edge">
<title>Node1&#45;&gt;Node4</title>
<path fill="none" stroke="#63b8ff" d="M144.14,-155.06C141.85,-147.12 139.43,-137.68 138,-129 134.81,-109.6 134.12,-86.48 134,-74.19"/>
<polygon fill="#63b8ff" stroke="#63b8ff" points="140.82,-156.2 147.08,-164.75 147.52,-154.16 140.82,-156.2"/>
</g>
<!-- Node8 -->
<g id="node8" class="node">
<title>Node8</title>
<g id="a_node8"><a xlink:href="psr_8cpp.html" target="_top" xlink:title=" ">
<polygon fill="white" stroke="#666666" points="283.5,-129 232.5,-129 232.5,-110 283.5,-110 283.5,-129"/>
<text text-anchor="middle" x="258" y="-117" font-family="Helvetica,sans-Serif" font-size="10.00">psr.cpp</text>
</a>
</g>
</g>
<!-- Node1&#45;&gt;Node8 -->
<g id="edge10" class="edge">
<title>Node1&#45;&gt;Node8</title>
<path fill="none" stroke="#63b8ff" d="M176.49,-160.5C196.36,-150.75 223,-137.68 240.33,-129.17"/>
<polygon fill="#63b8ff" stroke="#63b8ff" points="174.79,-157.44 167.35,-164.98 177.87,-163.72 174.79,-157.44"/>
</g>
<!-- Node3&#45;&gt;Node2 -->
<g id="edge3" class="edge">
<title>Node3&#45;&gt;Node2</title>
<path fill="none" stroke="#63b8ff" d="M148.64,-106.42C122.29,-96.59 85.74,-82.95 62.23,-74.17"/>
<polygon fill="#63b8ff" stroke="#63b8ff" points="147.59,-109.77 158.19,-109.98 150.04,-103.21 147.59,-109.77"/>
</g>
<!-- Node3&#45;&gt;Node4 -->
<g id="edge4" class="edge">
<title>Node3&#45;&gt;Node4</title>
<path fill="none" stroke="#63b8ff" d="M166.58,-102.24C158.34,-92.95 148.35,-81.68 141.62,-74.09"/>
<polygon fill="#63b8ff" stroke="#63b8ff" points="163.99,-104.59 173.24,-109.75 169.22,-99.94 163.99,-104.59"/>
</g>
<!-- Node5 -->
<g id="node5" class="node">
<title>Node5</title>
<g id="a_node5"><a xlink:href="debugger_8h.html" target="_top" xlink:title=" ">
<polygon fill="white" stroke="#666666" points="260.5,-74 189.5,-74 189.5,-55 260.5,-55 260.5,-74"/>
<text text-anchor="middle" x="225" y="-62" font-family="Helvetica,sans-Serif" font-size="10.00">debugger.h</text>
</a>
</g>
</g>
<!-- Node3&#45;&gt;Node5 -->
<g id="edge5" class="edge">
<title>Node3&#45;&gt;Node5</title>
<path fill="none" stroke="#63b8ff" d="M194.73,-101.96C202.4,-92.72 211.63,-81.6 217.87,-74.09"/>
<polygon fill="#63b8ff" stroke="#63b8ff" points="191.96,-99.82 188.27,-109.75 197.35,-104.29 191.96,-99.82"/>
</g>
<!-- Node7 -->
<g id="node7" class="node">
<title>Node7</title>
<g id="a_node7"><a xlink:href="main_8cpp.html" target="_top" xlink:title=" ">
<polygon fill="white" stroke="#666666" points="320,-19 258,-19 258,0 320,0 320,-19"/>
<text text-anchor="middle" x="289" y="-7" font-family="Helvetica,sans-Serif" font-size="10.00">main.cpp</text>
</a>
</g>
</g>
<!-- Node3&#45;&gt;Node7 -->
<g id="edge8" class="edge">
<title>Node3&#45;&gt;Node7</title>
<path fill="none" stroke="#63b8ff" d="M221.98,-106.16C238.95,-99.18 257.55,-88.81 270,-74 283.47,-57.97 287.39,-32.64 288.53,-19.33"/>
<polygon fill="#63b8ff" stroke="#63b8ff" points="220.32,-103.05 212.23,-109.89 222.82,-109.59 220.32,-103.05"/>
</g>
<!-- Node6 -->
<g id="node6" class="node">
<title>Node6</title>
<g id="a_node6"><a xlink:href="debugger_8cpp.html" target="_top" xlink:title=" ">
<polygon fill="white" stroke="#666666" points="240,-19 158,-19 158,0 240,0 240,-19"/>
<text text-anchor="middle" x="199" y="-7" font-family="Helvetica,sans-Serif" font-size="10.00">debugger.cpp</text>
</a>
</g>
</g>
<!-- Node5&#45;&gt;Node6 -->
<g id="edge6" class="edge">
<title>Node5&#45;&gt;Node6</title>
<path fill="none" stroke="#63b8ff" d="M216.18,-45.53C211.8,-36.6 206.71,-26.22 203.21,-19.09"/>
<polygon fill="#63b8ff" stroke="#63b8ff" points="213.16,-47.31 220.71,-54.75 219.44,-44.23 213.16,-47.31"/>
</g>
<!-- Node5&#45;&gt;Node7 -->
<g id="edge7" class="edge">
<title>Node5&#45;&gt;Node7</title>
<path fill="none" stroke="#63b8ff" d="M242.99,-48.6C254.46,-39.11 268.91,-27.13 278.53,-19.17"/>
<polygon fill="#63b8ff" stroke="#63b8ff" points="240.75,-45.91 235.28,-54.98 245.22,-51.3 240.75,-45.91"/>
</g>
</g>
</svg>
